<svg width="497" height="443" viewBox="0 0 497 443" fill="none" xmlns="http://www.w3.org/2000/svg">
<g clip-path="url(#clip0_462_63)">
<path d="M142.348 95.8579L116.668 106.706L96.301 95.8579L94.3086 113.568H143.898L142.348 95.8579Z" fill="#B20800"/>
<path d="M356.423 95.8579L382.103 106.706L402.691 95.8579L404.462 113.568H354.873L356.423 95.8579Z" fill="#B20800"/>
<path d="M429.258 107.591H67.5215V119.546H429.258V107.591Z" fill="#F01E03"/>
<path d="M429.258 107.591H67.5215V111.133H429.258V107.591Z" fill="#F05A43"/>
<path d="M137.034 107.591H100.949C100.507 111.576 100.285 115.561 99.6211 119.546H135.928C136.37 115.561 136.813 111.576 137.034 107.591Z" fill="#B20800"/>
<path d="M397.157 107.591H361.072C361.294 111.576 361.294 115.561 361.294 119.546H398.707C398.264 115.561 397.6 111.576 397.157 107.591Z" fill="#B20800"/>
<path d="M121.095 407.562H80.1396L108.034 58.6659L135.706 61.3225L121.095 407.562Z" fill="#F01E03"/>
<path d="M134.821 79.2543L135.485 61.3225L107.813 58.6659L105.82 83.2392C114.676 77.4833 125.966 75.4909 134.821 79.2543Z" fill="#E93E25"/>
<path d="M100.064 360.851C92.7584 360.629 87.888 357.309 84.5673 352.438L80.1396 407.784H121.095L123.53 349.782C117.332 356.423 108.919 361.072 100.064 360.851Z" fill="#E93E25"/>
<path d="M92.7584 407.784L80.1396 407.562L108.034 58.6659H117.11L92.7584 407.784Z" fill="#E93E25"/>
<path d="M121.096 407.562H108.034L128.844 60.6584L135.707 61.3225L121.096 407.562Z" fill="#C60E00"/>
<path d="M127.958 442.54H65.3076L72.6132 373.027H128.844L127.958 442.54Z" fill="#F01E03"/>
<path d="M81.9112 373.027H72.6132L65.3076 442.54H74.827C78.3691 419.517 80.3615 396.272 81.9112 373.027Z" fill="#861E04"/>
<path d="M110.69 373.027C110.69 387.638 110.247 402.249 110.026 416.86C109.804 425.494 110.247 433.906 110.026 442.54H127.736L128.622 373.027H110.69Z" fill="#C60E00"/>
<path d="M141.905 54.6811H102.499V67.5212H141.905V54.6811Z" fill="#F01E03"/>
<path d="M141.905 61.1011H102.499V67.5211H141.905V61.1011Z" fill="#C60E00"/>
<path d="M375.684 407.562H416.861L388.967 58.6659L361.294 61.3225L375.684 407.562Z" fill="#F01E03"/>
<path d="M361.958 79.2543L361.294 61.3225L388.967 58.6659L390.959 83.2392C382.325 77.4833 371.035 75.4909 361.958 79.2543Z" fill="#E93E25"/>
<path d="M396.936 360.851C404.242 360.629 409.112 357.309 412.433 352.438L416.86 407.784H375.905L373.47 349.782C379.668 356.423 387.859 361.072 396.936 360.851Z" fill="#E93E25"/>
<path d="M404.02 407.784L416.86 407.562L388.966 58.6659H379.668L404.02 407.784Z" fill="#E93E25"/>
<path d="M375.684 407.562H388.967L368.157 60.6584L361.294 61.3225L375.684 407.562Z" fill="#C60E00"/>
<path d="M369.042 442.54H431.693L424.387 373.027H368.156L369.042 442.54Z" fill="#F01E03"/>
<path d="M414.868 373.027H424.166L431.472 442.54H421.952C418.632 419.517 416.418 396.272 414.868 373.027Z" fill="#861E04"/>
<path d="M386.31 373.027C386.31 387.638 386.753 402.249 386.974 416.86C387.195 425.494 386.753 433.906 386.974 442.54H369.263L368.378 373.027H386.31Z" fill="#C60E00"/>
<path d="M394.722 54.6811H355.316V67.5212H394.722V54.6811Z" fill="#F01E03"/>
<path d="M394.722 61.1011H355.316V67.5211H394.722V61.1011Z" fill="#C60E00"/>
<path d="M249.939 38.7416C249.496 38.7416 249.053 38.7416 248.389 38.7416C247.725 38.7416 247.282 38.7416 246.84 38.7416C173.563 38.2989 26.3444 19.0387 21.0312 14.1684C23.6878 24.5733 27.0085 34.9782 30.5506 45.1617C44.0549 48.7038 61.9867 52.0245 83.9034 53.7955C100.95 55.1238 141.02 55.3452 186.845 55.3452C203.67 55.3452 221.381 55.3452 239.091 55.3452C242.191 55.3452 245.29 55.3452 248.389 55.3452C251.489 55.3452 254.588 55.3452 257.687 55.3452C275.398 55.3452 293.108 55.5666 309.933 55.5666C355.759 55.5666 395.829 55.1238 412.875 54.0169C435.013 52.4673 452.724 48.9252 466.228 45.3831C469.77 35.1995 472.87 24.7946 475.747 14.3897C470.656 19.0387 323.437 38.2989 249.939 38.7416Z" fill="#F01E03"/>
<path d="M249.939 38.7416C249.496 38.7416 249.054 38.7416 248.389 38.7416C247.725 38.7416 247.282 38.7416 246.84 38.7416C173.563 38.2989 26.3444 19.0387 21.0312 14.1684C23.4664 23.0236 26.123 31.8788 29.001 40.7341C41.1769 43.1693 55.5667 45.3831 71.9488 46.7113C90.3235 48.0396 133.271 48.4824 182.418 48.4824C200.571 48.4824 219.61 48.4824 238.427 48.261C241.748 48.261 245.069 48.261 248.611 48.261C251.931 48.261 255.252 48.261 258.794 48.261C277.612 48.261 296.65 48.4824 314.804 48.4824C363.95 48.4824 406.898 48.0396 425.273 46.7113C441.876 45.6044 456.266 43.3906 468.221 40.7341C471.099 31.8788 473.977 23.245 476.19 14.1684C470.656 19.0387 323.438 38.2989 249.939 38.7416Z" fill="#C60E00"/>
<path d="M423.059 21.6953C417.746 22.1381 330.3 24.3519 248.611 25.2374C166.7 24.3519 79.033 21.9167 73.9412 21.6953C31.8788 18.8174 8.41247 6.42004 0 0C2.87795 8.63385 5.31314 17.2677 7.96971 25.9016C22.5808 32.7644 43.8334 39.6272 72.3915 41.3982C92.5372 42.7265 139.913 43.1693 194.151 43.1693C211.861 43.1693 230.236 43.1693 248.611 42.9479C266.985 42.9479 285.36 43.1693 303.07 43.1693C357.309 43.1693 404.684 42.7265 424.83 41.3982C453.388 39.4058 474.641 32.7644 489.252 25.9016C491.908 17.2677 494.343 8.63385 497.221 0C488.588 6.42004 465.121 18.8174 423.059 21.6953Z" fill="#2E2A2B"/>
<path d="M248.389 31.2147C330.079 30.5506 417.746 28.1154 422.837 27.6726C461.136 25.016 484.16 14.3898 494.343 7.74833C495.229 5.09176 495.893 2.43519 496.779 0C488.366 6.42004 464.9 18.8174 422.837 21.6953C417.524 22.1381 330.079 24.3519 248.389 25.2374C166.7 24.3519 79.033 21.9167 73.9412 21.6953C31.8788 18.8174 8.41247 6.42004 0 0C0.885523 2.65657 1.77105 5.31314 2.43519 7.74833C12.6187 14.3898 35.4209 25.016 73.7198 27.6726C79.033 28.1154 166.7 30.5506 248.389 31.2147Z" fill="#494445"/>
</g>
<defs>
<clipPath id="clip0_462_63">
<rect width="497" height="442.54" fill="white"/>
</clipPath>
</defs>
</svg>
