<svg width="342" height="341" viewBox="0 0 342 341" fill="none" xmlns="http://www.w3.org/2000/svg">
<path opacity="0.4" d="M50.6954 288.396C49.017 287.966 47.3817 287.493 45.7033 287.063C46.8222 288.224 47.8981 289.428 49.06 290.547C49.1461 290.59 49.2752 290.59 49.3613 290.633C49.6625 290.762 49.9638 290.891 50.308 291.02C50.265 291.278 50.222 291.493 50.1359 291.708C50.8245 292.396 51.513 292.998 52.2016 293.687C52.3737 293.084 52.5028 292.525 52.675 291.923C52.8041 291.45 52.8901 290.934 53.0193 290.418C53.1053 290.031 53.1914 289.643 53.3205 289.17C52.5028 288.955 51.7712 288.74 51.0827 288.525C50.9536 288.482 50.8245 288.439 50.6954 288.396ZM341.871 166.242C341.699 166.887 341.527 167.489 341.354 168.134C341.182 168.866 341.354 169.683 341.527 170.457C341.656 170.973 341.785 171.489 341.957 172.005C341.957 171.618 342 171.231 342 170.801C342 169.296 341.914 167.79 341.871 166.242ZM301.246 81.2499C298.104 84.3467 295.006 87.4436 291.692 90.7125C294.963 93.9384 298.018 96.9923 301.117 100.046C301.418 100.347 301.805 100.605 302.236 100.734C306.496 101.896 310.757 103.014 315.146 104.175C315.447 103.358 315.706 102.713 315.878 102.025C316.738 98.8848 317.556 95.7019 318.46 92.519C318.847 91.1857 318.804 89.9383 318.417 88.6049C317.685 85.9812 316.997 83.3144 316.265 80.6907C315.576 79.5724 314.845 78.4541 314.113 77.3788C310.197 78.4111 306.367 79.4434 302.58 80.4756C302.149 80.6477 301.633 80.8627 301.246 81.2499ZM313.597 80.1315C314.544 83.6585 315.447 86.9705 316.308 90.2824C316.394 90.6265 316.351 91.0136 316.265 91.3147C315.447 94.4976 314.587 97.6375 313.64 101.078C312.349 100.777 311.187 100.476 309.982 100.304C304.904 99.616 300.858 97.2073 297.717 93.2072C297.028 92.304 296.125 91.5728 295.135 90.5835C297.588 88.1748 299.912 85.8952 302.279 83.6155C302.666 83.2714 303.139 82.9703 303.613 82.7983C306.883 81.895 310.111 81.0778 313.597 80.1315ZM305.894 145.768C306.109 144.994 306.238 144.263 306.453 143.316C305.463 143.015 304.646 142.714 303.785 142.499C296.942 140.65 290.1 138.8 283.257 137.037C281.665 136.606 280.374 135.875 279.212 134.714C274.263 129.638 269.228 124.649 264.193 119.66C263.59 119.058 262.945 118.498 262.17 117.767C261.438 118.455 260.75 119.014 260.147 119.617C255.241 124.477 250.335 129.337 245.515 134.284C244.095 135.746 242.546 136.649 240.566 137.123C233.121 139.015 225.676 141.08 217.844 143.187C218.059 144.177 218.231 144.951 218.446 145.725C220.297 152.736 222.147 159.747 224.084 166.758C224.471 168.177 224.471 169.511 224.084 170.93C222.147 177.941 220.297 184.952 218.446 191.963C218.231 192.694 218.102 193.468 217.887 194.415C218.877 194.716 219.694 195.017 220.512 195.232C227.441 197.124 234.369 199.017 241.298 200.824C242.718 201.211 243.88 201.856 244.913 202.888C249.948 208.007 255.069 213.039 260.147 218.114C260.75 218.717 261.395 219.319 262.17 220.007C262.901 219.319 263.59 218.76 264.193 218.157C269.271 213.082 274.349 208.007 279.427 202.931C280.46 201.899 281.579 201.211 283.042 200.867C289.971 199.06 296.899 197.167 303.828 195.275C304.646 195.06 305.463 194.759 306.453 194.458C306.238 193.511 306.109 192.78 305.894 192.006C304.043 184.995 302.193 177.941 300.256 170.973C299.869 169.554 299.869 168.22 300.256 166.801C302.193 159.833 304.043 152.779 305.894 145.768ZM297.76 171.016C299.524 177.339 301.16 183.662 302.838 190.027C303.053 190.845 303.225 191.705 303.484 192.737C302.451 193.081 301.633 193.339 300.815 193.554C294.575 195.232 288.335 196.952 282.052 198.544C280.46 198.974 279.169 199.705 278.007 200.867C273.488 205.469 268.883 210.028 264.279 214.587C263.676 215.19 262.988 215.792 262.213 216.523C261.481 215.878 260.836 215.319 260.233 214.716C255.586 210.071 250.938 205.469 246.333 200.78C245.214 199.662 244.052 198.974 242.503 198.587C236.22 196.952 229.98 195.275 223.74 193.597C222.879 193.382 222.061 193.124 220.942 192.78C221.114 191.834 221.243 191.017 221.459 190.2C223.137 183.877 224.772 177.511 226.537 171.188C226.967 169.597 226.967 168.134 226.494 166.5C224.772 160.263 223.137 154.026 221.459 147.747C221.243 146.929 221.071 146.069 220.856 145.037C222.018 144.693 223.008 144.349 223.998 144.048C230.066 142.413 236.134 140.779 242.245 139.187C243.837 138.757 245.128 138.069 246.29 136.865C250.809 132.219 255.413 127.703 260.018 123.144C260.621 122.541 261.309 121.939 262.127 121.165C262.901 121.896 263.633 122.541 264.322 123.187C268.926 127.746 273.531 132.305 278.05 136.908C279.169 138.026 280.374 138.714 281.88 139.101C288.464 140.822 295.049 142.628 301.633 144.392C302.15 144.521 302.623 144.693 303.484 144.994C303.096 146.499 302.795 147.79 302.451 149.08C300.858 154.973 299.309 160.908 297.674 166.801C297.33 168.306 297.33 169.597 297.76 171.016ZM315.878 235.577C315.706 234.932 315.404 234.33 315.103 233.642C310.843 234.803 306.711 235.878 302.623 236.997C302.106 237.126 301.59 237.341 301.246 237.685C298.104 240.782 295.006 243.879 291.735 247.148C293.586 248.997 295.436 250.546 296.899 252.395C299.826 256.008 303.527 258.03 308.045 258.847C310.455 259.277 312.779 260.051 315.318 260.696C316.437 256.61 317.427 252.782 318.503 248.954C318.847 247.707 318.847 246.545 318.503 245.341C317.599 242.072 316.781 238.803 315.878 235.577ZM316.351 247.449C315.49 250.761 314.587 254.116 313.597 257.729C309.982 256.739 306.539 255.793 303.182 254.847C302.881 254.761 302.58 254.503 302.322 254.245C299.998 251.922 297.674 249.642 295.178 247.148C297.674 244.653 300.041 242.287 302.408 239.965C302.752 239.62 303.311 239.362 303.785 239.233C306.926 238.373 310.111 237.513 313.554 236.61C314.501 240.094 315.361 243.276 316.179 246.416C316.308 246.717 316.437 247.105 316.351 247.449ZM286.356 172.048C285.71 169.941 285.624 167.962 286.313 165.855C287.388 162.414 288.249 158.844 289.196 155.36C289.411 154.629 289.497 153.854 289.669 152.951C286.485 152.091 283.558 151.059 280.546 150.542C275.898 149.725 272.154 147.661 269.099 144.005C267.076 141.596 264.666 139.488 262.299 137.123C261.481 137.854 260.836 138.456 260.233 139.058C257.608 141.682 254.897 144.263 252.358 146.972C251.153 148.263 249.776 148.994 248.054 149.424C244.525 150.284 241.04 151.274 237.511 152.22C236.607 152.478 235.703 152.779 234.67 153.123C235.789 157.381 236.736 161.424 237.941 165.382C238.716 167.876 238.673 170.156 237.898 172.608C236.693 176.565 235.746 180.608 234.627 184.737C235.531 185.038 236.306 185.339 237.037 185.511C240.867 186.543 244.741 187.662 248.614 188.608C249.991 188.952 251.024 189.597 251.971 190.544C254.811 193.468 257.737 196.35 260.621 199.189C261.094 199.662 261.653 200.049 262.557 200.824C264.451 198.802 266.387 196.952 268.023 194.888C271.552 190.458 276.027 187.877 281.665 187.017C284.333 186.587 286.915 185.597 289.669 184.866C289.454 183.791 289.282 182.93 289.067 182.113C288.163 178.715 287.345 175.36 286.356 172.048ZM279.728 184.995C274.693 185.769 270.648 188.092 267.42 192.049C265.914 193.899 264.063 195.404 262.17 197.297C260.405 195.576 258.641 194.071 257.178 192.35C253.821 188.264 249.69 185.769 244.439 184.995C242.331 184.694 240.351 183.92 238.285 183.318C238.113 183.275 237.984 183.103 237.64 182.844C237.898 181.855 238.156 180.78 238.458 179.662C239.404 176.049 241.04 172.479 241.04 168.866C241.04 165.339 239.404 161.855 238.458 158.328C238.156 157.252 237.898 156.134 237.554 154.887C238.371 154.586 239.017 154.327 239.663 154.112C242.761 153.252 245.817 152.349 248.915 151.661C250.938 151.231 252.444 150.241 253.821 148.779C256.446 146.026 259.2 143.402 262.17 140.435C265.225 143.531 267.98 146.241 270.648 149.08C271.853 150.327 273.187 151.145 274.908 151.575C278.093 152.306 281.234 153.252 284.419 154.112C285.108 154.284 285.753 154.542 286.657 154.844C286.011 157.295 285.581 159.747 284.72 162.027C282.999 166.629 282.956 171.102 284.677 175.704C285.538 177.984 285.968 180.436 286.657 183.103C284.29 183.791 282.052 184.608 279.728 184.995ZM36.2786 258.718C36.6229 258.761 37.0102 258.89 37.3545 258.976C39.4632 259.535 41.5719 260.094 43.8097 260.696V260.653C44.4983 258.073 45.1869 255.578 45.8324 253.083C45.9185 252.868 45.9615 252.653 46.0476 252.438C46.4349 251.363 46.6931 250.287 46.8222 249.212C46.9513 248.696 47.1234 248.137 47.2525 247.621C47.4247 246.932 47.1665 246.072 46.9513 245.298C46.9083 245.083 46.8222 244.911 46.7792 244.696C46.607 243.707 46.3488 242.674 46.0045 241.642C45.8754 241.298 45.7894 240.911 45.6602 240.524C45.2299 238.846 44.7995 237.212 44.3262 235.577C44.2401 235.362 44.154 235.104 44.068 234.889C43.9388 234.459 43.8528 234.029 43.7237 233.556C43.3794 233.642 43.0351 233.728 42.6478 233.857C38.6886 234.889 34.9015 235.921 31.0713 236.954C30.9853 236.997 30.8992 236.997 30.8131 237.04C30.7701 237.04 30.7701 237.04 30.7271 237.04C30.684 237.04 30.641 237.083 30.5549 237.083C30.4258 237.126 30.3398 237.169 30.2537 237.212C29.9955 237.341 29.7803 237.47 29.6082 237.642C26.4666 240.739 23.3681 243.836 20.0974 247.105C21.7327 248.739 23.3681 250.33 24.9173 251.922C25.0895 252.094 25.2616 252.266 25.4337 252.481C26.2514 253.513 27.1982 254.331 28.145 255.105C28.5753 255.535 29.0057 255.965 29.479 256.395C29.8233 256.739 30.3398 257.04 30.8562 257.169C31.4587 257.341 32.0612 257.513 32.7067 257.642C33.8686 258.159 35.0306 258.503 36.2786 258.718ZM30.2537 253.599C30.1676 253.556 30.1246 253.513 30.0385 253.47C29.7373 253.255 29.436 252.997 29.1778 252.782C28.5753 252.223 28.0159 251.664 27.4564 250.976C26.4666 249.728 25.2616 248.696 24.1427 247.535C24.0136 247.406 24.0136 247.234 23.8414 246.846C24.487 246.201 25.1325 245.556 25.778 244.911C27.3703 243.362 28.9626 241.771 30.598 240.18C30.7271 240.051 30.8562 239.965 30.9853 239.879C31.0713 239.792 31.2005 239.706 31.2865 239.62C31.4156 239.534 31.5447 239.491 31.6308 239.448C31.7599 239.405 31.846 239.319 31.9751 239.319C35.1166 238.416 38.3012 237.599 41.658 236.696C41.7871 236.653 41.9162 236.61 42.0453 236.61C42.9921 240.094 43.8528 243.362 44.7135 246.674C44.7995 247.019 44.7565 247.406 44.6704 247.75V247.793C43.8528 250.976 42.9921 254.116 42.0453 257.556C41.3998 257.427 40.7542 257.255 40.1518 257.126C39.0328 256.825 37.9139 256.567 36.8381 256.352C35.9343 256.223 35.0736 256.008 34.2559 255.707C34.0408 255.621 33.8256 255.535 33.6535 255.449C33.3522 255.32 33.094 255.191 32.7928 255.062C31.932 254.632 31.0714 254.159 30.2537 253.599ZM126.05 331.021C126.007 331.021 126.007 331.021 126.007 331.021C125.275 331.967 124.802 332.871 124.113 333.559C123.683 333.989 123.253 334.419 122.865 334.806C123.769 335.064 124.716 335.322 125.663 335.58C125.921 335.365 126.179 335.15 126.48 334.849C126.997 335.365 127.513 335.796 127.943 336.226C129.45 336.613 130.999 336.957 132.505 337.301C131.171 335.968 129.88 334.677 128.546 333.344C127.857 332.699 127.126 332.053 126.05 331.021ZM336.018 214.071C336.104 214.329 336.147 214.63 336.233 214.888C336.621 213.426 336.965 211.964 337.309 210.501C336.621 210.716 335.932 210.974 335.243 211.189C335.545 212.351 335.76 213.211 336.018 214.071ZM272.929 162.715C270.777 162.07 268.625 161.812 266.947 160.822C265.182 159.79 263.805 158.069 262.17 156.521C260.578 158.026 259.287 159.747 257.565 160.736C255.801 161.769 253.606 162.07 251.411 162.758C251.928 164.865 252.788 166.844 252.788 168.779C252.788 170.844 251.971 172.866 251.454 175.059C253.606 175.747 255.801 176.049 257.565 177.081C259.33 178.113 260.664 179.834 262.385 181.511C264.881 177.511 268.668 175.963 272.929 175.188C272.369 172.909 271.508 170.93 271.552 168.952C271.552 166.887 272.412 164.865 272.929 162.715ZM262.299 177.984C260.19 175.575 257.823 173.855 254.337 173.554C255.542 170.371 255.542 167.489 254.381 164.392C257.651 163.876 260.147 162.543 262.127 159.833C264.193 162.328 266.516 163.962 269.916 164.306C269.099 167.36 268.625 170.285 270.174 173.554C266.646 173.898 264.279 175.317 262.299 177.984ZM63.0464 41.1196C63.2186 41.6787 63.3477 42.2379 63.5198 42.84C63.5629 42.84 63.5629 42.84 63.6059 42.84C63.6059 42.8831 63.6489 42.9261 63.6489 42.9691C65.026 42.625 66.3171 42.2379 67.6512 41.8938C75.9139 39.7002 84.1336 37.5065 92.3533 35.2269C92.6546 35.1409 92.9558 35.0118 93.2571 34.8828C93.3001 34.8828 93.3431 34.8398 93.3431 34.8398C94.1178 34.4527 94.8494 33.9365 95.4088 33.3774C101.907 26.9686 108.362 20.4738 114.818 14.0219C114.947 13.8929 115.076 13.7209 115.205 13.5488C115.506 13.2047 115.807 12.9036 116.152 12.5165C116.152 12.5165 116.152 12.4735 116.109 12.4735C116.109 12.4735 116.109 12.4735 116.109 12.4305C115.851 12.0864 115.721 11.8713 115.506 11.6993C114.861 11.0541 114.215 10.4089 113.57 9.76374C112.709 10.0648 111.848 10.3659 110.988 10.71C111.289 11.0111 111.633 11.3552 111.934 11.6563C112.106 11.8283 112.279 12.0864 112.537 12.4305C112.106 12.9466 111.719 13.5058 111.246 13.9789C105.479 19.7425 99.7554 25.5062 93.9456 31.2698C93.8165 31.3988 93.6874 31.5279 93.5153 31.6569C93.3862 31.7429 93.3001 31.8289 93.171 31.915C92.8698 32.13 92.5255 32.3451 92.2242 32.5171C91.966 32.6462 91.7078 32.7752 91.4066 32.8612C91.3635 32.8612 91.3635 32.9043 91.3205 32.9043C83.6602 35.0118 75.957 37.0764 68.2537 39.141C67.8233 39.27 67.393 39.3561 66.9626 39.4851C66.6183 39.5711 66.231 39.6572 65.7576 39.7432C65.5855 39.7432 65.4134 39.7432 65.1982 39.7432C64.94 38.8829 64.6387 38.1087 64.4236 37.3345C64.4236 37.2915 64.3805 37.2485 64.3805 37.2055C63.692 37.7646 62.9604 38.3238 62.2288 38.8829C62.3579 39.3561 62.487 39.8292 62.6161 40.3453C62.8743 40.5174 62.9604 40.8185 63.0464 41.1196ZM159.187 15.7424C159.488 16.0865 159.832 16.3876 160.134 16.7317C161.425 18.3662 162.845 19.7425 164.437 20.9039C164.824 21.291 165.212 21.6781 165.642 22.0652C166.116 22.5383 166.89 22.6674 167.579 22.8394C167.837 22.9254 168.138 22.9685 168.396 23.0545C170.075 23.7427 171.882 24.2588 173.776 24.5599C174.206 24.6029 174.593 24.732 175.024 24.818C175.971 25.0761 176.874 25.3341 177.821 25.5922C178.036 25.6352 178.251 25.6782 178.467 25.6782C178.854 25.7642 179.198 25.8933 179.585 25.9793C179.629 25.7642 179.715 25.5492 179.758 25.3341C180.059 24.3448 180.317 23.4416 180.575 22.5814C181.006 21.162 181.436 19.7856 181.823 18.3662V17.85C181.995 17.3339 182.125 16.8177 182.254 16.3016C183.157 13.5918 183.114 11.0111 182.211 8.30133C182.038 7.8282 181.952 7.35507 181.78 6.88193V6.66687C181.178 4.55928 180.575 2.45168 179.93 0.258068C179.93 0.172044 179.887 0.129031 179.887 0.0430073C178.251 -0.0430169 176.616 -0.0430169 175.024 -0.0860291C172.14 0.774213 169.343 1.50542 166.546 2.27964C166.202 2.36566 165.857 2.53771 165.599 2.75277C165.556 2.79578 165.513 2.83879 165.47 2.88181L165.427 2.92482C163.878 4.43024 162.371 5.97868 160.822 7.52711C160.779 7.57013 160.736 7.61314 160.693 7.65615C159.144 9.20459 157.552 10.796 155.916 12.3875C156.992 13.5488 158.111 14.6671 159.187 15.7424ZM166.804 5.03241C166.976 4.86036 167.234 4.68831 167.493 4.60229C170.892 3.65602 174.249 2.75277 177.864 1.76349C178.854 5.37651 179.758 8.68844 180.618 12.0004C180.704 12.3445 180.661 12.7316 180.575 13.0327C179.715 16.2586 178.854 19.4845 177.907 23.0115C176.444 22.6674 175.067 22.2803 173.733 21.9792C172.054 21.506 170.376 21.0329 168.698 20.5598C167.665 20.0866 166.675 19.5275 165.771 18.8393L165.728 18.7963C164.738 17.807 163.749 16.8607 162.759 15.8284C161.726 14.7101 160.607 13.6348 159.359 12.4305C161.941 9.84977 164.351 7.44109 166.804 5.03241ZM19.4088 214.243C29.8664 211.491 40.2809 208.652 50.7384 205.856C51.5561 205.641 52.4168 205.34 53.3205 205.082C53.0623 204.049 52.8901 203.189 52.675 202.372C49.8777 191.92 47.1234 181.468 44.2831 171.059C43.8958 169.64 43.8958 168.349 44.2831 166.93C47.1234 156.521 49.8777 146.069 52.675 135.617C52.8901 134.757 53.1053 133.94 53.3205 132.993C53.3205 132.95 53.3635 132.864 53.3635 132.821C52.8901 132.692 52.4598 132.563 52.0725 132.434C51.513 132.262 50.9966 132.133 50.4802 131.961C40.1518 129.208 29.8664 126.413 19.4949 123.703C17.9026 123.273 16.6116 122.498 15.4066 121.294C13.3839 119.273 11.3613 117.251 9.33862 115.229C9.03737 116.09 8.73613 116.95 8.47792 117.81C10.3284 119.66 12.222 121.509 14.0725 123.402C14.4168 123.746 14.761 124.047 15.1053 124.305C15.7939 124.821 16.5255 125.251 17.3001 125.552C17.3862 125.595 17.4723 125.595 17.5153 125.638C17.8165 125.724 18.1178 125.853 18.419 125.939H18.4621C18.5051 125.939 18.5051 125.982 18.5481 125.982C28.4032 128.563 38.2582 131.23 48.0702 133.897C48.8018 134.112 49.4904 134.37 50.308 134.671C50.1359 135.359 50.0068 136.004 49.8777 136.606C49.7486 137.08 49.6195 137.51 49.5334 137.983C46.9513 147.661 44.4122 157.338 41.7441 166.973C41.3567 168.392 41.3567 169.683 41.7441 171.102C44.4122 180.823 46.9943 190.587 49.6195 200.35C49.8777 201.34 50.0929 202.329 50.3941 203.447C49.1891 203.791 48.2854 204.092 47.3386 204.351C37.8279 206.888 28.3601 209.469 18.8494 211.964C18.6342 212.007 18.4621 212.093 18.2469 212.136H18.2038C16.6546 212.523 15.4926 213.211 14.3737 214.329C14.3307 214.372 14.2446 214.458 14.2016 214.501C14.1155 214.587 13.9864 214.673 13.9003 214.802C11.7916 216.91 9.6829 219.018 7.57418 221.125C7.83239 221.985 8.13364 222.846 8.43488 223.749C10.8448 221.34 13.2548 218.932 15.6217 216.523C16.6546 215.319 17.9026 214.63 19.4088 214.243ZM322.634 141.424C323.366 138.628 324.097 135.789 324.915 132.735C323.753 132.391 322.763 132.133 321.73 131.832C311.445 129.079 301.203 126.284 290.917 123.574C289.411 123.187 288.206 122.498 287.087 121.38C279.556 113.767 271.939 106.197 264.322 98.6267C263.633 97.9386 262.944 97.3364 262.127 96.6052C261.309 97.3794 260.578 98.0676 259.932 98.7128C252.315 106.283 244.741 113.853 237.166 121.466C236.134 122.498 235.015 123.187 233.552 123.531C226.494 125.337 219.522 127.273 212.507 129.165C208.247 130.327 203.986 131.488 199.468 132.692C199.769 133.94 199.984 134.8 200.199 135.617C202.997 146.069 205.751 156.521 208.591 166.93C208.935 168.263 208.978 169.468 208.591 170.844C205.923 180.694 203.298 190.501 200.673 200.35C200.285 201.856 199.898 203.404 199.511 205.039C200.544 205.34 201.361 205.598 202.222 205.856C212.593 208.652 222.922 211.447 233.293 214.2C234.886 214.63 236.177 215.319 237.339 216.523C244.87 224.136 252.487 231.706 260.104 239.276C260.75 239.922 261.481 240.524 262.557 241.513C263.332 240.524 263.848 239.706 264.537 239.018C272.025 231.491 279.599 223.964 287.087 216.437C288.206 215.319 289.411 214.673 290.917 214.243C301.375 211.491 311.789 208.652 322.247 205.856C323.065 205.641 323.882 205.34 324.829 205.039C324.571 204.006 324.399 203.146 324.183 202.286C321.386 191.834 318.632 181.382 315.792 170.973C315.404 169.554 315.404 168.263 315.792 166.844C318.116 158.371 320.353 149.897 322.634 141.424ZM313.253 170.973C315.878 180.651 318.46 190.286 321.042 199.963C321.3 200.996 321.558 202.028 321.903 203.318C320.913 203.619 320.009 203.92 319.105 204.178C309.508 206.759 299.955 209.34 290.315 211.835C288.378 212.351 286.786 213.211 285.366 214.673C278.48 221.684 271.465 228.609 264.494 235.577C263.805 236.265 263.289 237.126 262.557 238.115C261.481 237.083 260.75 236.481 260.104 235.835C252.874 228.652 245.644 221.426 238.458 214.2C237.425 213.168 236.306 212.48 234.886 212.093C225.031 209.512 215.176 206.845 205.364 204.178C204.503 203.963 203.685 203.662 202.523 203.361C202.738 202.372 202.911 201.469 203.169 200.565C205.708 191.06 208.204 181.554 210.829 172.091C211.431 169.855 211.388 167.833 210.786 165.64C208.161 156.263 205.708 146.843 203.169 137.424C202.954 136.563 202.738 135.703 202.48 134.499C203.556 134.198 204.374 133.94 205.234 133.682C214.831 131.101 224.385 128.477 234.025 125.982C235.961 125.466 237.554 124.649 238.974 123.187C245.86 116.176 252.874 109.251 259.803 102.283C260.492 101.595 260.965 100.691 261.696 99.702C262.858 100.777 263.59 101.38 264.279 102.068C271.379 109.165 278.48 116.219 285.538 123.316C286.829 124.649 288.249 125.466 290.014 125.939C299.783 128.52 309.552 131.144 319.32 133.768C320.095 133.983 320.827 134.198 321.903 134.499C321.644 135.574 321.429 136.606 321.171 137.596C318.546 147.359 315.964 157.123 313.339 166.844C312.865 168.22 312.865 169.511 313.253 170.973ZM286.485 277.256C279.126 269.815 271.724 262.417 264.322 255.019C263.633 254.331 262.944 253.728 261.783 252.653C261.051 253.642 260.578 254.546 259.889 255.191C252.401 262.718 244.827 270.245 237.339 277.772C236.22 278.89 235.058 279.579 233.508 280.009C223.137 282.719 212.766 285.514 202.394 288.31C201.49 288.568 200.544 288.826 199.511 289.127C199.769 290.203 199.898 291.063 200.156 291.88C202.954 302.332 205.708 312.784 208.548 323.193C208.935 324.612 208.978 325.903 208.548 327.365C207.558 330.935 206.569 334.548 205.622 338.161C206.525 337.989 207.429 337.731 208.333 337.516C209.237 334.118 210.14 330.677 211.087 327.279C211.431 325.946 211.475 324.741 211.087 323.408C208.419 313.644 205.837 303.881 203.255 294.16C202.997 293.171 202.738 292.138 202.48 290.934C203.47 290.633 204.288 290.332 205.105 290.117C214.874 287.493 224.643 284.869 234.412 282.288C236.091 281.858 237.425 281.084 238.673 279.837C245.73 272.697 252.831 265.643 259.932 258.589C260.621 257.901 261.309 257.298 262.17 256.524C262.988 257.298 263.719 257.944 264.408 258.589C271.509 265.686 278.609 272.74 285.667 279.837C286.915 281.084 288.249 281.858 289.928 282.288C292.811 283.063 295.651 283.837 298.535 284.611C299.137 283.923 299.74 283.235 300.342 282.547C297.545 281.815 294.704 281.041 291.907 280.31C289.755 279.751 288.034 278.804 286.485 277.256ZM257.565 317.214C255.801 318.247 253.606 318.548 251.454 319.236C251.626 319.967 251.841 320.655 252.057 321.343C256.016 319.193 259.889 316.87 263.633 314.461C263.16 313.988 262.686 313.472 262.17 312.999C260.535 314.505 259.287 316.225 257.565 317.214ZM193.744 311.408C192.281 306.031 190.861 300.655 189.311 294.977C188.408 295.149 187.805 295.235 187.203 295.407C185.395 295.88 183.588 296.353 181.78 296.87V296.784C177.348 297.988 172.915 299.192 168.482 300.397C165.814 301.128 163.146 301.859 160.478 302.547C159.101 302.891 158.111 303.665 157.164 304.612C150.838 310.978 144.512 317.3 138.186 323.623C138.1 323.709 138.057 323.795 137.971 323.838C137.798 324.01 137.669 324.139 137.497 324.311C137.196 324.612 136.938 324.956 136.55 325.387C136.636 325.473 136.68 325.559 136.766 325.602C136.981 325.86 137.153 326.118 137.325 326.29C141.155 330.118 145.028 333.946 148.858 337.774C149.805 338.72 150.709 339.667 151.613 340.57C152.904 340.699 154.238 340.828 155.572 340.957C150.967 336.355 146.362 331.795 141.758 327.193C141.284 326.72 140.854 326.247 140.381 325.731C140.294 325.602 140.251 325.473 140.122 325.301C140.208 325.215 140.251 325.129 140.337 325.042C140.682 324.612 141.069 324.225 141.456 323.795C147.309 317.945 153.119 312.053 159.058 306.246C159.832 305.472 160.994 304.999 162.027 304.698C168.612 302.891 175.196 301.171 181.78 299.407V299.364C182.899 299.063 183.975 298.762 185.094 298.461C185.783 298.289 186.471 298.16 187.332 297.945C187.59 298.59 187.934 299.192 188.106 299.837C190.215 307.709 192.367 315.58 194.433 323.451C194.691 324.526 194.777 325.774 194.519 326.806C193.357 331.365 192.109 335.925 190.904 340.484C191.807 340.398 192.668 340.269 193.529 340.14C194.734 335.709 195.896 331.236 197.058 326.806C197.316 325.774 197.23 324.483 196.972 323.408C195.939 319.408 194.82 315.408 193.744 311.408ZM137.368 241.126C137.282 241.083 137.196 241.083 137.11 241.04C137.11 241.04 137.11 241.04 137.11 240.997C135.991 240.653 134.915 240.438 133.882 240.137C132.849 239.835 131.86 239.534 130.999 239.018C130.569 238.76 130.181 238.459 129.794 238.158C128.976 237.47 128.202 236.653 127.427 235.835C126.997 235.405 126.566 234.975 126.093 234.502C125.576 235.405 125.017 236.179 124.371 236.825C124.156 237.04 123.984 237.212 123.769 237.427C121.488 239.448 118.562 240.309 115.377 241.04C115.894 241.986 116.238 242.975 116.496 243.922C116.539 244.008 116.539 244.094 116.582 244.223C117.099 246.545 116.883 248.825 116.238 251.191C116.152 251.492 116.066 251.793 115.98 252.094C115.851 252.524 115.721 252.954 115.549 253.384C117.099 253.556 118.519 253.857 119.81 254.374C121.875 255.191 123.683 256.481 125.275 258.288C125.619 258.675 125.921 259.105 126.222 259.535L126.265 259.492C126.308 259.578 126.394 259.621 126.437 259.707C129.191 255.793 132.72 253.814 137.196 253.341C137.196 253.255 137.153 253.169 137.153 253.083C137.239 253.04 137.282 253.04 137.368 253.04C135.518 249.083 135.518 245.169 137.368 241.126ZM132.333 251.965C132.161 252.008 132.032 252.051 131.86 252.137C129.966 252.782 128.331 253.771 127.04 255.535C126.868 255.75 126.695 255.879 126.566 256.094C126.05 255.492 125.49 254.933 124.931 254.46C123.769 253.384 122.521 252.61 121.058 252.137C120.326 251.879 119.552 251.707 118.734 251.621C119.552 249.04 119.767 246.631 119.035 244.094C118.906 243.621 118.82 243.19 118.605 242.717C119.336 242.588 120.068 242.416 120.757 242.201C120.843 242.158 120.972 242.158 121.058 242.115C122.908 241.513 124.458 240.567 125.706 238.932C125.921 238.674 126.136 238.502 126.308 238.244C127.728 239.534 128.632 240.653 129.794 241.341C130.999 242.029 132.419 242.287 134.097 242.803C133.753 244.137 133.495 245.427 133.452 246.803C133.452 247.019 133.452 247.234 133.452 247.449C133.452 248.051 133.495 248.653 133.624 249.255C133.624 249.341 133.667 249.427 133.71 249.513C133.796 249.9 133.925 250.33 134.097 250.761C134.183 251.019 134.227 251.277 134.313 251.492C133.581 251.621 132.935 251.793 132.333 251.965ZM279.255 291.192C274.22 286.073 269.142 280.998 264.02 275.966C263.418 275.363 262.772 274.847 261.783 273.944C261.008 274.933 260.448 275.794 259.76 276.482C254.811 281.471 249.862 286.375 244.913 291.364C243.88 292.396 242.761 293.084 241.298 293.472C237.597 294.418 233.939 295.407 230.238 296.396C226.149 297.472 222.061 298.633 217.801 299.794C218.016 300.741 218.145 301.515 218.36 302.289C220.211 309.3 222.061 316.311 223.998 323.322C224.385 324.741 224.428 326.032 223.998 327.494C223.395 329.645 222.836 331.795 222.276 333.946C223.223 333.645 224.127 333.301 225.074 333C225.547 331.193 226.02 329.344 226.537 327.537C226.924 326.118 226.967 324.827 226.537 323.365C224.772 317.042 223.137 310.719 221.459 304.354C221.243 303.536 221.071 302.676 220.813 301.687C221.502 301.429 222.061 301.171 222.621 300.999C229.205 299.235 235.789 297.429 242.374 295.708C243.88 295.321 245.085 294.633 246.204 293.515C250.679 288.955 255.241 284.482 259.717 279.923C260.405 279.235 260.879 278.374 261.653 277.385C262.815 278.46 263.547 279.063 264.193 279.708C268.625 284.138 273.144 288.568 277.533 293.084C278.868 294.461 280.331 295.364 282.224 295.837C283.601 296.181 284.978 296.568 286.313 296.913C287.001 296.267 287.69 295.579 288.378 294.934C286.657 294.461 284.935 293.988 283.171 293.558C281.708 293.084 280.417 292.396 279.255 291.192ZM263.676 294.977C263.203 294.504 262.643 294.117 262.041 293.601C258.598 297.042 255.241 300.354 251.971 303.708C251.024 304.698 249.905 305.343 248.614 305.644C244.913 306.59 241.255 307.58 237.554 308.569C236.65 308.827 235.746 309.128 234.67 309.472C235.875 314.031 236.994 318.376 238.242 322.72C238.759 324.483 238.759 326.118 238.242 327.924V327.967C239.189 327.58 240.093 327.15 240.997 326.72C241.212 325.171 241.04 323.666 240.566 322.032C239.49 318.548 238.673 315.021 237.683 311.322C238.371 311.021 239.017 310.719 239.663 310.547C242.976 309.644 246.333 308.698 249.69 307.881C251.196 307.494 252.444 306.805 253.52 305.644C256.274 302.762 259.114 299.966 262.041 296.956C262.729 297.515 263.289 297.902 263.805 298.375C266.258 300.827 268.754 303.192 271.121 305.73C271.896 306.547 272.757 307.106 273.703 307.494C274.478 306.891 275.253 306.289 276.027 305.687C274.607 305.343 273.445 304.655 272.412 303.579C269.486 300.698 266.559 297.859 263.676 294.977ZM115.635 324.569C115.549 324.483 115.463 324.397 115.377 324.311C115.334 324.268 115.248 324.182 115.205 324.139C108.578 317.472 101.907 310.848 95.2367 304.225C95.2367 304.225 95.1937 304.182 95.1506 304.182C95.1076 304.182 95.1076 304.139 95.0646 304.139C94.9354 304.01 94.7203 303.924 94.5481 303.794C94.2899 303.579 94.0317 303.364 93.7305 303.235C93.5153 303.106 93.3001 303.063 93.0849 302.977C92.8267 302.848 92.5255 302.719 92.2673 302.633C89.6852 301.945 87.1461 301.257 84.564 300.569C78.3239 298.891 72.1268 297.214 65.8867 295.536C65.1982 295.364 64.5096 295.235 63.6059 295.063C63.3477 295.708 63.1755 296.138 63.0895 296.525C62.573 298.418 62.0566 300.267 61.5832 302.16C62.2718 302.719 63.0034 303.278 63.692 303.881C64.0793 302.418 64.5096 300.913 64.8969 299.45C64.983 299.106 65.1552 298.719 65.3273 298.246C65.3273 298.203 65.3703 298.16 65.3703 298.117C66.188 298.289 67.0487 298.375 67.8664 298.633C75.4836 300.655 83.1008 302.676 90.675 304.784C91.8369 305.085 93.0419 305.687 93.8596 306.504C99.8845 312.397 105.823 318.376 111.762 324.311C111.977 324.526 112.193 324.784 112.408 325.085C112.494 325.215 112.58 325.344 112.709 325.473C112.149 326.075 111.676 326.677 111.117 327.236C110.213 328.139 109.309 329.043 108.405 329.946C109.223 330.29 110.084 330.634 110.901 330.935C112.106 329.731 113.354 328.483 114.559 327.279C115.119 326.72 115.635 326.118 116.238 325.473C116.152 325.387 116.109 325.301 116.023 325.215C115.894 324.913 115.764 324.741 115.635 324.569ZM151.139 294.719C151.268 294.59 151.398 294.461 151.527 294.375C151.742 294.16 152 293.988 152.258 293.816C152.818 293.386 153.42 293.041 154.066 292.783C154.367 292.654 154.625 292.525 154.926 292.439C155.055 292.396 155.185 292.353 155.314 292.31C158.455 291.579 161.511 290.676 164.609 289.816C165.728 289.514 166.847 289.213 167.966 288.869C174.034 287.235 180.145 285.643 186.213 284.009C187.117 283.751 188.02 283.493 189.053 283.192C188.752 281.987 188.537 281.041 188.279 280.138C186.127 272.009 183.932 263.879 181.737 255.75V255.32C181.565 254.976 181.479 254.632 181.35 254.245C180.92 252.739 180.532 251.191 180.145 249.685C179.887 248.094 179.887 246.459 180.102 244.868C180.489 243.449 180.877 242.029 181.264 240.567C181.436 240.137 181.608 239.749 181.78 239.319V238.588C183.287 232.997 184.793 227.405 186.299 221.813C187.246 218.329 188.149 214.845 189.139 211.103C187.977 210.759 186.988 210.415 185.955 210.157C184.578 209.77 183.157 209.426 181.78 209.039V208.953C172.614 206.501 163.447 204.135 154.324 201.598C154.152 201.555 153.937 201.469 153.764 201.383C153.592 201.297 153.463 201.254 153.291 201.168C153.162 201.082 153.033 201.039 152.904 200.953C152.818 200.91 152.732 200.867 152.689 200.78C152.258 200.479 151.871 200.135 151.527 199.791C143.823 192.178 136.206 184.522 128.546 176.866C127.857 176.221 127.169 175.575 126.05 174.5C125.361 175.403 124.888 176.221 124.285 176.866C124.242 176.909 124.199 176.952 124.156 176.995C116.625 184.522 109.094 192.049 101.606 199.619C101.348 199.877 101.046 200.135 100.788 200.35C99.7554 201.168 98.6365 201.684 97.3024 202.028C93.0849 203.146 88.8675 204.264 84.6501 205.383C79.4428 206.759 74.2786 208.136 69.0714 209.512C68.8992 209.555 68.7701 209.598 68.598 209.641C67.9955 209.813 67.3499 209.985 66.7475 210.157C66.5323 210.2 66.3171 210.286 66.1019 210.372C65.3273 210.587 64.5957 210.802 63.778 211.017C64.0793 212.222 64.2944 213.082 64.5096 213.942C67.3069 224.394 70.0611 234.846 72.9015 245.255C73.2458 246.502 73.2458 247.621 72.9015 248.868C70.0611 259.32 67.3069 269.729 64.5096 280.181C64.2514 281.084 64.0362 282.03 63.778 283.063C64.8539 283.407 65.6716 283.665 66.5323 283.923C67.393 284.138 68.2106 284.353 69.0714 284.611C77.5923 286.891 86.1133 289.213 94.6342 291.45C95.624 291.708 96.6138 292.009 97.6467 292.267C97.9479 292.353 98.2061 292.439 98.4643 292.525C98.5934 292.568 98.6795 292.611 98.8086 292.654C98.8947 292.697 99.0238 292.74 99.1099 292.783C99.3681 292.912 99.6693 293.041 99.9275 293.171C99.9706 293.171 100.014 293.214 100.014 293.257C100.315 293.429 100.616 293.644 100.874 293.859C101.089 294.031 101.348 294.246 101.563 294.461C101.606 294.504 101.649 294.547 101.692 294.59C109.223 302.203 116.84 309.773 124.414 317.343C124.974 317.902 125.619 318.462 126.437 319.193C126.609 319.322 126.738 319.494 126.911 319.623C127.642 318.634 128.159 317.73 128.804 317.042C131.214 314.634 133.624 312.182 136.077 309.773C138.1 307.752 140.079 305.773 142.102 303.751C145.071 300.784 148.127 297.773 151.139 294.719ZM128.675 313.73C128.288 314.117 127.857 314.505 127.427 314.935C127.126 315.193 126.781 315.494 126.437 315.838C125.663 315.107 124.931 314.461 124.242 313.816C117.228 306.805 110.17 299.794 103.198 292.74C103.155 292.697 103.155 292.697 103.112 292.697C103.026 292.611 102.94 292.525 102.854 292.439C101.692 291.278 100.401 290.547 98.8086 290.117C98.6795 290.074 98.5074 290.031 98.3783 289.988C98.3352 289.988 98.2922 289.945 98.2492 289.945C93.7305 288.783 89.2548 287.536 84.7361 286.332C79.744 284.998 74.752 283.665 69.7599 282.331C68.7701 282.073 67.7803 281.729 66.7475 281.385C67.0487 280.138 67.2639 279.235 67.479 278.288C69.846 269.428 72.2129 260.61 74.6229 251.75C74.8381 251.019 75.0102 250.244 75.2254 249.47C75.2684 249.384 75.2684 249.298 75.2684 249.169C75.2684 249.126 75.3114 249.04 75.3114 248.997C75.3114 248.954 75.3114 248.911 75.3114 248.868C75.3975 248.438 75.4405 248.051 75.4836 247.664C75.5266 247.234 75.5266 246.803 75.4836 246.373C75.4405 246.072 75.3975 245.771 75.3545 245.47C75.3114 245.384 75.3545 245.255 75.3114 245.169C75.2684 244.997 75.2254 244.825 75.1823 244.696C75.1823 244.653 75.1823 244.653 75.1823 244.61C74.5368 242.287 73.9343 240.008 73.3318 237.685C71.3522 230.416 69.4156 223.147 67.479 215.921C67.2208 214.931 67.0057 213.942 66.7475 212.867C67.393 212.652 67.9955 212.437 68.5549 212.265C68.8131 212.179 69.0283 212.136 69.2865 212.05C79.2276 209.383 89.1687 206.716 99.1099 204.092C100.53 203.705 101.692 203.06 102.725 202.028C109.912 194.802 117.142 187.576 124.371 180.393C124.931 179.834 125.576 179.231 126.48 178.457C127.298 179.188 127.986 179.834 128.632 180.479C134.7 186.544 140.811 192.608 146.836 198.716C147.826 199.705 148.858 200.694 149.848 201.727C149.934 201.813 150.02 201.856 150.063 201.942C151.225 203.06 152.516 203.834 154.109 204.264C156.82 204.996 159.574 205.727 162.285 206.458C168.784 208.222 175.325 209.942 181.823 211.706V211.663C182.34 211.792 182.899 211.964 183.416 212.093C184.233 212.308 185.094 212.609 186.127 212.91C185.869 213.985 185.696 214.931 185.481 215.835C184.233 220.523 182.985 225.211 181.694 229.9C181.651 229.9 181.651 229.943 181.651 229.943C181.135 231.921 180.618 233.9 180.059 235.878C179.284 238.674 178.553 241.47 177.778 244.266C177.692 244.653 177.606 244.997 177.563 245.384C177.477 245.685 177.391 245.986 177.348 246.287C177.219 246.76 177.176 247.363 177.262 247.836C177.348 248.223 177.477 248.567 177.563 248.954C177.649 249.384 177.735 249.814 177.821 250.244C180.446 259.707 182.942 269.256 185.524 278.718C185.74 279.579 185.912 280.396 186.17 281.514C185.051 281.858 184.061 282.159 183.071 282.417C177.003 284.052 170.978 285.643 164.911 287.278C161.296 288.224 157.724 289.213 154.109 290.16C154.023 290.203 153.937 290.203 153.851 290.246H153.807H153.764C153.162 290.418 152.646 290.633 152.129 290.934C151.914 291.063 151.699 291.192 151.484 291.321C151.096 291.579 150.709 291.88 150.365 292.224C150.322 292.267 150.236 292.31 150.193 292.353C143.006 299.45 135.819 306.59 128.675 313.73ZM30.5549 100.691C30.598 100.691 30.684 100.734 30.7271 100.734H30.7701C33.9977 101.638 37.2684 102.498 40.6251 103.358C41.701 103.659 42.7339 103.917 43.8097 104.218C44.3262 102.326 44.7995 100.519 45.2729 98.7128C45.4881 97.9386 45.7033 97.1643 45.9615 96.4331C46.3918 95.2288 46.6501 94.0675 46.8222 92.8631C46.9943 92.2179 47.1665 91.6158 47.3386 90.9706C47.4247 90.7125 47.3386 90.4544 47.2956 90.1964C47.1234 89.6372 46.9943 89.035 46.8222 88.4329C46.6501 87.2285 46.3918 86.0672 45.9615 84.8629C45.7033 84.1317 45.4881 83.3575 45.2729 82.6262C44.7995 80.8197 44.3262 79.0132 43.8097 77.1207C41.4858 77.7229 39.2911 78.325 37.0963 78.9272C36.9241 78.9702 36.795 79.0132 36.6229 79.0132C35.2027 79.2283 33.9117 79.6154 32.6636 80.1315C32.1903 80.2606 31.6738 80.3896 31.2005 80.5187C30.641 80.6907 29.9955 80.9488 29.6082 81.3789C29.1348 81.852 28.6614 82.2821 28.231 82.7553C27.1982 83.5725 26.2084 84.5188 25.3046 85.5941C25.1755 85.7661 25.0034 85.9382 24.8313 86.1102C23.325 87.6156 21.8188 89.1211 20.2265 90.7125C23.4541 93.9384 26.5527 97.0353 29.6942 100.132C29.9094 100.39 30.2537 100.605 30.5549 100.691ZM23.6693 90.5835C26.0793 88.2178 28.3601 85.9812 30.641 83.7876C31.1144 83.3144 31.8029 82.9703 32.4485 82.7553C32.7067 82.6693 32.9219 82.6262 33.1801 82.5402C36.0204 81.766 38.8607 80.9918 41.8732 80.1746C41.9592 80.1746 42.0023 80.1315 42.0883 80.1315C43.0351 83.6155 43.9388 86.9275 44.7995 90.1964C44.8856 90.5835 44.8426 90.9706 44.7565 91.3577C43.9388 94.4976 43.0781 97.5945 42.1314 101.121C40.6251 100.734 39.205 100.347 37.8279 100.089C36.3647 99.702 34.9015 99.3149 33.4813 98.9278C32.1903 98.4117 31.0283 97.7665 29.9524 96.9063C29.0057 95.96 28.0589 95.0137 27.0691 94.0675C26.0362 92.8631 24.8743 91.7878 23.6693 90.5835ZM180.403 314.892C180.274 314.461 180.145 313.988 180.016 313.558C179.844 312.956 179.672 312.311 179.499 311.709C175.067 312.87 170.892 313.988 166.718 315.15H166.675C166.632 315.15 166.589 315.193 166.546 315.193C166.116 315.322 165.728 315.537 165.427 315.838C165.384 315.881 165.298 315.967 165.255 316.01C165.212 316.053 165.212 316.053 165.169 316.096C162.113 319.064 159.101 322.075 155.83 325.301C157.25 326.72 158.326 327.838 159.445 328.957C161.339 330.806 163.017 333.043 165.126 334.548C165.298 334.72 165.427 334.849 165.599 335.021C165.986 335.408 166.675 335.58 167.277 335.752C169.644 336.742 172.313 337.129 174.852 337.774C175.841 338.032 176.831 338.29 177.778 338.548C177.95 338.591 178.122 338.591 178.251 338.634C178.682 338.72 179.069 338.849 179.542 338.935C179.542 338.849 179.585 338.806 179.585 338.763C179.93 337.602 180.231 336.57 180.532 335.58C180.963 334.161 181.393 332.785 181.78 331.365V331.15C182.383 329.215 183.028 327.322 183.028 325.387C183.028 323.064 182.168 320.784 181.436 318.462C181.135 317.257 180.79 316.096 180.403 314.892ZM180.489 326.118C179.629 329.258 178.811 332.441 177.864 335.882C176.831 335.666 175.841 335.408 174.895 335.236C172.872 334.677 170.892 334.161 168.956 333.645C167.837 333.129 166.761 332.527 165.771 331.795C163.663 329.688 161.554 327.58 159.316 325.387C161.855 322.849 164.222 320.483 166.589 318.161C166.933 317.859 167.364 317.601 167.794 317.472C170.462 316.741 173.173 316.01 176.014 315.236C176.616 315.064 177.176 314.935 177.821 314.763C178.467 317.128 179.069 319.365 179.672 321.645C179.973 322.849 180.317 324.053 180.618 325.215C180.661 325.43 180.575 325.774 180.489 326.118ZM166.202 273.858C166.847 273.686 167.493 273.514 168.181 273.342C168.31 273.299 168.482 273.256 168.612 273.213C169.343 272.998 170.032 272.826 170.763 272.611C170.505 271.578 170.333 270.718 170.118 269.901C168.267 262.976 166.46 256.008 164.566 249.126C164.394 248.481 164.308 247.879 164.308 247.277C164.308 247.234 164.308 247.191 164.308 247.148C164.308 246.545 164.394 245.9 164.566 245.255C166.503 238.158 168.396 231.061 170.29 223.964C170.333 223.749 170.376 223.491 170.419 223.276C170.548 222.76 170.634 222.287 170.763 221.684C169.601 221.34 168.698 221.082 167.751 220.824C167.708 220.824 167.665 220.824 167.665 220.781C164.609 219.964 161.511 219.147 158.455 218.329C154.797 217.34 151.139 216.351 147.481 215.405C146.362 215.104 145.416 214.673 144.555 213.985C144.297 213.77 144.039 213.555 143.78 213.297C138.745 208.179 133.624 203.103 128.546 198.071C127.943 197.469 127.298 196.866 126.179 195.834C125.447 196.78 124.974 197.555 124.328 198.157C123.64 198.845 122.951 199.533 122.263 200.221C119.465 203.017 116.668 205.813 113.871 208.566C113.57 208.867 113.268 209.211 112.967 209.512C111.805 210.673 110.643 211.835 109.481 212.996C109.223 213.254 108.965 213.469 108.707 213.684C108.448 213.899 108.19 214.071 107.889 214.286C107.416 214.587 106.942 214.845 106.426 215.061H106.383C105.995 215.19 105.608 215.319 105.178 215.448C103.456 215.878 101.778 216.351 100.057 216.824C99.7554 216.91 99.4111 216.953 99.1099 217.039C96.6999 217.684 94.2899 218.329 91.8369 219.018C89.513 219.663 87.1891 220.265 84.8652 220.867C84.6501 220.91 84.3918 220.996 84.1336 221.082C83.4451 221.254 82.8426 221.426 82.154 221.598C82.154 221.641 82.154 221.641 82.154 221.684C82.1971 221.856 82.2401 222.028 82.2831 222.201C82.4122 222.846 82.5413 223.448 82.6704 223.964C84.3918 230.459 86.0702 236.997 87.9207 243.449C88.0929 244.051 88.222 244.653 88.308 245.255C88.3941 245.814 88.4371 246.373 88.4371 246.932C88.4371 246.975 88.4371 247.019 88.4371 247.062C88.4371 247.234 88.3941 247.363 88.3941 247.535C88.3511 248.567 88.222 249.599 87.9207 250.718C86.0702 257.083 84.4349 263.535 82.7135 269.944C82.4983 270.761 82.3262 271.621 82.111 272.568C82.154 272.568 82.154 272.568 82.1971 272.611C83.1869 272.912 83.9615 273.17 84.6931 273.342C84.7361 273.342 84.7361 273.342 84.7792 273.385C84.7792 273.385 84.7792 273.385 84.8222 273.385C91.5787 275.191 98.3352 277.041 105.092 278.804C106.383 279.149 107.459 279.665 108.448 280.439C108.75 280.697 109.094 280.955 109.395 281.256C114.301 286.246 119.293 291.192 124.242 296.138C124.415 296.31 124.63 296.482 124.802 296.654C124.845 296.698 124.845 296.698 124.888 296.741C125.361 297.214 125.878 297.644 126.437 298.203C126.566 298.289 126.652 298.418 126.781 298.504C127.556 297.515 128.072 296.654 128.761 295.966C133.71 290.977 138.659 286.073 143.608 281.084C144.082 280.611 144.598 280.181 145.157 279.837C145.2 279.794 145.287 279.751 145.33 279.708C145.889 279.407 146.492 279.149 147.18 278.977C152.258 277.686 157.293 276.31 162.328 274.933C163.663 274.589 164.911 274.245 166.202 273.858ZM154.023 274.589C151.182 275.277 148.213 275.751 145.631 276.869C144.469 277.256 143.436 277.815 142.532 278.718C140.165 280.568 138.143 283.106 135.948 285.299C135.733 285.514 135.518 285.729 135.302 285.944C132.419 288.826 129.536 291.708 126.48 294.762C126.05 294.375 125.663 294.031 125.318 293.73C125.06 293.472 124.759 293.257 124.544 292.998C119.896 288.353 115.205 283.751 110.643 279.063L110.6 279.02C110.557 278.977 110.514 278.933 110.428 278.847C109.395 277.772 108.233 277.17 106.813 276.783C106.77 276.783 106.727 276.783 106.727 276.74C106.684 276.74 106.641 276.697 106.598 276.697C101.821 275.449 97.0872 274.159 92.3103 272.912C90.9762 272.568 89.6421 272.224 88.308 271.836C87.9638 271.75 87.6195 271.621 87.2322 271.535C86.5866 271.363 85.9411 271.148 85.2095 270.933C85.3386 270.331 85.4247 269.772 85.5108 269.213C85.5968 268.869 85.6829 268.482 85.769 268.137C87.4473 261.901 89.0827 255.621 90.8041 249.384C91.0193 248.653 91.1053 247.965 91.1484 247.234C91.1484 247.148 91.1484 247.062 91.1484 246.976C91.1484 246.373 91.0623 245.814 90.8901 245.212C90.8901 245.126 90.8471 245.083 90.8471 244.997C90.5028 243.707 90.1585 242.416 89.8143 241.169C88.8245 237.556 87.8347 233.9 86.8879 230.287C86.5436 228.953 86.1993 227.62 85.812 226.287C85.5968 225.469 85.4247 224.609 85.2095 223.62C85.9841 223.319 86.6297 223.018 87.3182 222.846C93.7305 221.125 100.143 219.319 106.598 217.684C107.157 217.555 107.674 217.34 108.147 217.125C108.405 216.996 108.664 216.91 108.879 216.738C108.922 216.738 108.922 216.695 108.965 216.695C109.266 216.523 109.567 216.308 109.869 216.05C109.998 215.921 110.127 215.792 110.299 215.663C110.428 215.534 110.557 215.448 110.686 215.319L110.729 215.276C110.772 215.233 110.815 215.19 110.858 215.147C115.334 210.587 119.896 206.114 124.414 201.598C125.017 200.996 125.663 200.393 126.48 199.662C127.298 200.393 127.986 201.039 128.675 201.684C133.194 206.2 137.755 210.673 142.231 215.233L142.274 215.276C142.317 215.319 142.36 215.362 142.403 215.405C142.92 215.921 143.479 216.351 144.082 216.695C144.297 216.824 144.555 216.953 144.813 217.039C145.287 217.254 145.76 217.426 146.276 217.598C147.18 217.813 148.084 218.071 148.945 218.286C153.721 219.534 158.541 220.824 163.318 222.115C163.878 222.287 164.437 222.416 165.04 222.588C165.9 222.803 166.718 223.104 167.708 223.405C167.536 224.308 167.45 225.082 167.277 225.814C165.556 232.222 163.878 238.674 162.113 245.083C161.726 246.502 161.726 247.793 162.156 249.212C163.878 255.449 165.513 261.729 167.191 267.965C167.407 268.783 167.579 269.643 167.837 270.804C167.148 271.019 166.503 271.234 165.9 271.406C163.921 271.966 161.941 272.482 160.048 272.998C157.939 273.557 156.002 274.073 154.023 274.589ZM324.872 216.953C324.442 216.996 324.14 216.996 323.925 217.039C314.587 219.534 305.248 221.985 295.909 224.523C295.092 224.738 294.231 225.211 293.672 225.814C286.614 232.782 279.599 239.835 272.412 247.019C272.843 247.535 273.144 247.879 273.445 248.18C280.072 254.847 286.743 261.514 293.413 268.094C294.188 268.869 295.264 269.428 296.34 269.729C300.256 270.847 304.172 271.88 308.131 272.912C308.648 272.224 309.164 271.492 309.681 270.761C305.721 269.686 301.762 268.654 297.803 267.535C296.727 267.234 295.608 266.718 294.834 265.987C288.766 260.008 282.784 253.986 276.759 247.965C276.501 247.707 276.328 247.406 276.027 247.062C276.587 246.459 277.103 245.857 277.619 245.298C283.214 239.706 288.766 234.115 294.36 228.609C295.178 227.792 296.297 227.018 297.416 226.674C305.506 224.394 313.64 222.287 321.773 220.093C322.204 219.964 322.634 219.964 323.366 219.835C325.001 225.943 326.636 231.835 328.186 237.728C328.186 237.814 328.229 237.857 328.229 237.943C328.745 236.696 329.262 235.448 329.735 234.201C328.315 228.953 326.938 223.706 325.518 218.458C325.388 217.985 325.087 217.469 324.872 216.953ZM153.764 262.331C153.635 261.643 153.549 261.04 153.377 260.481C152.473 257.04 151.613 253.599 150.58 250.244C149.891 248.094 149.977 246.158 150.623 244.051C151.613 240.739 152.473 237.384 153.334 234.029C153.549 233.212 153.678 232.351 153.894 231.362C153.377 231.233 152.904 231.104 152.43 230.975C152.344 230.932 152.258 230.932 152.215 230.889C148.385 229.857 144.512 228.738 140.639 227.792C140.294 227.706 139.993 227.62 139.692 227.491C139.262 227.319 138.831 227.147 138.444 226.932C137.798 226.545 137.196 226.115 136.636 225.641C136.464 225.469 136.292 225.34 136.12 225.168C133.624 222.545 130.999 220.007 128.417 217.426C128.245 217.254 128.029 217.039 127.814 216.867C127.341 216.437 126.911 215.964 126.437 215.534L126.394 215.577C125.619 216.265 124.974 216.824 124.371 217.469C124.07 217.77 123.812 218.028 123.511 218.329C121.66 220.179 119.81 222.028 117.959 223.878C117.486 224.394 116.969 224.867 116.496 225.383C116.238 225.641 115.98 225.9 115.678 226.115C114.689 226.932 113.57 227.448 112.236 227.792C111.891 227.878 111.547 227.964 111.203 228.05C108.319 228.781 105.436 229.556 102.553 230.373C101.993 230.545 101.434 230.674 100.874 230.846C100.229 231.018 99.5832 231.319 98.8516 231.577C98.8947 231.749 98.9377 231.878 98.9808 232.007C99.7123 234.76 100.229 237.47 101.132 239.965C101.391 240.739 101.649 241.556 101.864 242.33C102.725 245.556 102.682 248.739 101.864 251.965C101.606 252.825 101.348 253.685 101.089 254.546C100.229 256.954 99.7123 259.535 99.0668 262.159C98.9807 262.417 98.9377 262.632 98.8516 262.89C99.8845 263.234 100.702 263.492 101.563 263.75C105.135 264.697 108.707 265.686 112.322 266.589C112.537 266.632 112.709 266.718 112.924 266.761C113.096 266.804 113.268 266.847 113.398 266.933C114.172 267.234 114.904 267.621 115.592 268.137C115.894 268.353 116.152 268.611 116.453 268.912C119.207 271.793 122.091 274.589 124.931 277.385C125.404 277.858 125.964 278.288 126.824 278.977C128.933 276.74 131.085 274.761 132.892 272.482C133.022 272.353 133.151 272.224 133.237 272.095C136.464 268.309 140.467 266.116 145.416 265.299C148.256 264.826 151.053 263.793 153.937 263.019C153.851 262.718 153.807 262.503 153.764 262.331ZM149.289 261.686C145.803 262.632 142.274 263.621 138.745 264.481C138.616 264.524 138.487 264.61 138.358 264.653C138.315 264.696 138.229 264.696 138.186 264.74C137.325 265.041 136.55 265.471 135.905 266.073C135.819 266.116 135.733 266.202 135.647 266.245C135.561 266.331 135.475 266.374 135.388 266.46C135.173 266.718 134.915 266.933 134.7 267.148C134.657 267.191 134.657 267.191 134.614 267.234C134.571 267.277 134.528 267.32 134.485 267.363C132.505 269.428 130.482 271.406 128.46 273.428C127.9 273.987 127.255 274.546 126.523 275.191C125.921 274.718 125.361 274.331 124.931 273.944C124.027 273.041 123.123 272.181 122.22 271.277C121.832 270.847 121.402 270.46 121.015 270.03C120.111 268.912 119.078 267.922 118.002 267.062C117.873 266.933 117.701 266.761 117.572 266.632C116.496 265.471 115.248 264.826 113.742 264.438C113.527 264.395 113.354 264.309 113.139 264.266C111.891 263.793 110.557 263.406 109.137 263.191C109.094 263.191 109.094 263.191 109.051 263.191C107.287 262.718 105.479 262.245 103.715 261.772C103.155 261.6 102.596 261.385 101.821 261.083C101.907 260.696 101.993 260.352 102.122 259.965C102.811 257.427 103.456 255.019 104.102 252.653C104.145 252.481 104.188 252.309 104.274 252.137C104.575 251.32 104.79 250.459 104.92 249.642C104.963 249.427 105.049 249.212 105.092 248.997C105.436 247.75 105.436 246.631 105.092 245.384C105.049 245.212 105.006 245.04 104.963 244.868C104.834 244.051 104.618 243.19 104.317 242.373C104.231 242.115 104.145 241.857 104.059 241.599C103.499 239.448 102.94 237.298 102.337 235.147C102.208 234.588 102.079 233.986 101.95 233.169C103.586 232.695 105.049 232.265 106.512 231.835C107.157 231.663 107.803 231.491 108.448 231.362C109.352 231.19 110.256 230.975 111.117 230.76C112.795 230.373 114.43 229.857 115.851 229.039C116.926 228.437 117.873 227.62 118.777 226.717C119.767 225.857 120.713 224.91 121.574 223.792C122.908 222.071 124.63 220.652 126.394 218.932C127.599 220.093 128.546 221.039 129.45 221.942C130.525 222.975 131.515 224.136 132.548 225.211C132.677 225.34 132.806 225.469 132.892 225.598C134.14 226.932 135.431 228.136 136.938 228.996C138.444 229.857 140.208 230.373 141.973 230.803C142.403 230.932 142.834 231.018 143.264 231.104C144.469 231.362 145.674 231.62 146.793 231.964C148.127 232.351 149.418 232.738 150.924 233.169C150.58 234.631 150.236 235.964 149.891 237.298C149.203 240.051 148.041 242.803 147.653 245.599C147.567 246.029 147.524 246.459 147.524 246.889C147.524 247.019 147.481 247.191 147.481 247.32C147.481 250.589 148.988 253.814 149.848 257.083C150.193 258.331 150.494 259.621 150.881 261.04C150.365 261.213 149.848 261.514 149.289 261.686ZM9.42469 187.146C10.3715 186.931 11.3182 186.716 12.222 186.457C13.1687 186.199 14.1155 185.941 15.0623 185.683C16.0951 185.425 17.128 185.124 18.2038 184.823V184.78C17.9456 183.705 17.8165 182.887 17.6014 182.027C17.3001 180.952 17.0419 179.834 16.7407 178.758C16.5255 177.898 16.2673 177.038 16.0521 176.178C15.6217 174.629 15.1914 173.081 14.761 171.532C14.3737 170.07 14.2877 168.693 14.5028 167.231C14.5459 167.145 14.5459 167.016 14.5889 166.93C14.6319 166.758 14.675 166.586 14.718 166.371C15.2344 164.65 15.7078 162.887 16.1812 161.166C16.3964 160.349 16.6116 159.489 16.8267 158.672C17.0849 157.639 17.3862 156.607 17.6444 155.575C17.8596 154.758 17.9887 153.897 18.2038 152.951C15.3205 152.177 12.6954 151.231 10.0272 150.757C8.52095 150.327 6.97169 149.94 5.46546 149.553C4.13137 149.037 2.88335 148.349 1.7214 147.575C1.5923 148.607 1.46319 149.639 1.33409 150.714C2.02265 151.102 2.75425 151.403 3.57191 151.575C3.70102 151.618 3.83012 151.661 3.95923 151.661C5.16421 152.134 6.3692 152.478 7.74632 152.693C8.0906 152.736 8.47792 152.822 8.8222 152.908C10.3284 153.338 11.8347 153.725 13.3409 154.155C13.9864 154.327 14.5889 154.629 15.3635 154.93C14.761 157.166 14.2016 159.317 13.6421 161.51C13.5561 161.769 13.47 162.07 13.3839 162.328C12.9105 163.575 12.6093 164.779 12.3941 166.027C12.3941 166.07 12.3511 166.113 12.3511 166.156C11.7916 168.048 11.7916 169.812 12.3511 171.704C12.5663 172.952 12.8675 174.242 13.3409 175.532C13.47 175.92 13.5991 176.264 13.7282 176.651C14.1586 178.242 14.5459 179.791 14.9332 181.382C15.0623 181.941 15.1053 182.543 15.1914 183.275C14.761 183.404 14.2877 183.533 13.8573 183.619C12.4802 183.963 11.1891 184.35 9.89808 184.694C7.359 185.425 4.60476 185.812 2.23783 186.845C1.76444 187.017 1.37712 187.275 0.946772 187.533C1.03284 188.479 1.16195 189.468 1.29105 190.415C1.76444 190.07 2.19479 189.683 2.71121 189.382C4.08834 188.565 5.6376 188.092 7.27293 187.705C7.87542 187.49 8.65006 187.318 9.42469 187.146ZM217.413 258.503C221.157 257.858 224.127 256.094 226.58 253.212C228.43 251.062 230.539 249.212 232.605 247.105C229.377 243.879 226.365 240.911 223.309 237.9C223.008 237.599 222.621 237.255 222.233 237.169C217.887 235.964 213.54 234.803 208.978 233.556C207.773 238.072 206.612 242.33 205.493 246.588C205.407 246.932 205.407 247.32 205.493 247.621C206.612 251.879 207.773 256.137 208.978 260.653C212.12 259.879 214.745 258.933 217.413 258.503ZM208.032 246.76C208.892 243.449 209.796 240.094 210.743 236.567C214.315 237.513 217.629 238.416 220.942 239.319C221.373 239.448 221.717 239.749 222.018 240.051C224.385 242.33 226.709 244.61 229.205 247.062C226.666 249.599 224.256 252.008 221.889 254.331C221.588 254.632 221.157 254.89 220.77 254.976C217.542 255.879 214.272 256.739 210.743 257.686C209.796 254.159 208.892 250.847 208.032 247.535C207.989 247.277 207.989 246.976 208.032 246.76ZM99.4972 103.917C99.4541 104.046 99.4541 104.175 99.4111 104.304C99.239 105.036 99.0238 105.724 98.8516 106.498C98.8947 106.498 98.9377 106.541 98.9808 106.541C99.0238 106.541 99.1098 106.584 99.1529 106.584C102.596 107.53 105.694 108.606 108.922 109.165C113.139 109.896 116.41 111.917 119.207 115.143C121.402 117.638 123.898 119.875 126.351 122.326C126.394 122.369 126.394 122.369 126.437 122.412C126.954 121.939 127.384 121.552 127.771 121.165C128.029 120.95 128.288 120.692 128.503 120.477C130.482 118.541 132.419 116.563 134.356 114.627C135.173 113.81 135.991 112.993 136.852 112.176C137.712 111.358 138.874 110.713 139.993 110.369C142.79 109.509 145.631 108.778 148.471 108.046C149.461 107.788 150.494 107.53 151.484 107.272C151.828 107.186 152.172 107.057 152.559 106.928C153.033 106.756 153.549 106.627 154.109 106.455C154.109 106.455 154.109 106.455 154.109 106.412C153.98 105.939 153.851 105.509 153.764 105.036C153.248 102.971 152.818 100.992 152.215 99.0999C151.742 97.3794 151.311 95.6589 150.795 93.9384C150.752 93.8094 150.752 93.6804 150.709 93.5513C150.451 91.7018 150.408 89.8953 150.709 88.0458C150.752 87.8737 150.795 87.6587 150.838 87.4866C151.354 85.8091 151.785 84.0887 152.258 82.3682C152.818 80.6047 153.248 78.7551 153.678 76.9486C153.851 76.3465 153.98 75.7443 154.152 75.1421C154.152 75.1421 154.152 75.1421 154.152 75.0991C153.678 74.9271 153.291 74.798 152.947 74.669C152.732 74.583 152.516 74.497 152.301 74.4539C148.342 73.3786 144.426 72.3033 140.467 71.3141C138.96 70.927 137.712 70.2388 136.636 69.0774C133.882 66.1956 130.999 63.3998 128.159 60.604C127.685 60.1309 127.126 59.7438 126.48 59.2277C126.437 59.1846 126.437 59.1846 126.394 59.1416C122.951 62.5826 119.638 65.8515 116.367 69.2065C116.324 69.2495 116.324 69.2495 116.281 69.2925C115.894 69.6796 115.506 69.9807 115.076 70.2388C114.818 70.4108 114.603 70.5398 114.344 70.6689C114 70.8409 113.613 71.013 113.182 71.142C112.967 71.228 112.752 71.3141 112.494 71.3571C108.621 72.3033 104.79 73.3786 100.917 74.4539C100.831 74.497 100.702 74.54 100.616 74.583C100.1 74.755 99.6263 74.9271 99.0238 75.1421C99.0238 75.1852 99.0238 75.1852 99.0238 75.2282C98.9808 75.2282 98.9807 75.2282 98.9377 75.2712C99.1098 76.0024 99.325 76.6476 99.4972 77.3788C99.5402 77.5508 99.5832 77.7229 99.6263 77.8949C99.8845 78.7982 100.1 79.7014 100.358 80.6047C100.53 81.2499 100.702 81.895 100.874 82.5402C101.477 84.7338 102.079 86.9705 102.596 89.2071C102.854 90.2824 102.854 91.4867 102.596 92.562C101.606 96.2181 100.487 100.046 99.4972 103.917ZM102.94 80.8197C102.596 79.5294 102.294 78.282 101.864 76.7766C102.682 76.4755 103.37 76.1744 104.102 75.9594C105.608 75.5293 107.114 75.1421 108.621 74.712C109.137 74.583 109.653 74.4539 110.17 74.3679C111.289 74.1529 112.365 73.8518 113.354 73.4647C113.527 73.4217 113.656 73.3786 113.828 73.3356C115.377 72.9485 116.539 72.2603 117.615 71.099C117.701 71.013 117.787 70.9269 117.873 70.8409C118.691 70.1527 119.465 69.4215 120.197 68.5613C120.455 68.2602 120.757 67.9591 121.058 67.658C122.177 66.5397 123.253 65.4214 124.371 64.3461C124.974 63.7439 125.663 63.1848 126.437 62.4536C126.652 62.6686 126.867 62.8837 127.083 63.0987C128.202 64.2171 129.364 65.3354 130.439 66.4107C131.257 67.2279 132.075 68.0021 132.806 68.8624C133.495 69.6796 134.27 70.4108 135.087 71.056C136.335 72.1743 137.712 72.9485 139.305 73.4647C140.251 73.8088 141.198 74.0668 142.231 74.2819C143.35 74.497 144.469 74.798 145.588 75.0991C147.266 75.5723 148.988 76.0454 150.752 76.5185C150.838 76.5185 150.881 76.5615 150.967 76.5615C150.451 78.6261 149.934 80.4756 149.461 82.3252C148.729 85.164 147.481 87.9597 147.481 90.7985C147.481 93.5513 148.772 96.2611 149.461 99.0139C149.934 100.734 150.408 102.498 150.924 104.39C150.924 104.433 150.967 104.476 150.967 104.519C150.193 104.82 149.59 105.079 148.945 105.294C145.803 106.154 142.661 107.014 139.52 107.831C139.391 107.874 139.262 107.917 139.132 107.917C138.874 107.96 138.659 108.046 138.444 108.132C138.315 108.175 138.143 108.218 138.014 108.261C137.928 108.304 137.798 108.347 137.712 108.39C136.766 108.821 135.905 109.38 135.13 110.197C135.001 110.369 134.829 110.498 134.657 110.67C132.032 113.38 129.32 116.047 126.566 118.799C125.878 118.24 125.318 117.853 124.845 117.38C122.392 114.971 119.896 112.563 117.529 110.025C116.496 108.95 115.334 108.304 113.914 107.96C110.815 107.143 107.631 106.326 104.36 105.423C104.145 105.38 103.93 105.294 103.715 105.251C103.155 105.079 102.596 104.82 101.864 104.562C102.251 103.143 102.553 101.853 102.897 100.562C103.758 97.2074 105.307 93.8954 105.307 90.5405C105.35 87.3146 103.801 84.0887 102.94 80.8197ZM92.3103 146.155C83.4881 143.746 74.6659 141.381 65.8437 139.058C65.8437 139.058 65.8437 139.058 65.8007 139.058H65.7576C65.3703 138.972 65.026 138.886 64.6387 138.843C64.3375 138.8 64.0362 138.714 63.692 138.671C63.6489 138.757 63.6059 138.843 63.5629 138.929C63.4337 139.144 63.3046 139.316 63.3046 139.445C63.3046 139.488 63.3046 139.488 63.3046 139.531C63.2616 139.574 63.2186 139.66 63.2186 139.746C60.7225 149.08 58.1835 158.371 55.7305 167.747C55.4723 168.693 55.6014 169.855 55.8596 170.887C58.1835 179.791 60.5934 188.694 63.0034 197.598C63.1755 198.243 63.4768 198.845 63.735 199.533C73.547 196.909 83.1008 194.372 92.6976 191.748C92.7407 191.748 92.7837 191.705 92.8267 191.705C93.128 191.619 93.4292 191.49 93.7305 191.318C93.9456 191.189 94.1608 191.06 94.376 190.888C94.5481 190.759 94.7203 190.63 94.8924 190.501C94.9785 190.415 95.0646 190.372 95.1506 190.286C101.907 183.619 108.578 176.909 115.291 170.199C115.592 169.898 115.851 169.554 116.324 169.038C109.051 161.769 101.95 154.672 94.8494 147.618C94.2038 146.757 93.214 146.37 92.3103 146.155ZM112.193 168.22C112.322 168.349 112.451 168.564 112.709 168.909C112.236 169.468 111.805 170.027 111.289 170.5C105.78 176.006 100.315 181.511 94.7633 186.974C94.5912 187.146 94.376 187.361 94.2038 187.533C94.1608 187.576 94.1178 187.619 94.0747 187.662C93.6874 188.049 93.2571 188.393 92.7837 188.651C92.7407 188.694 92.6976 188.694 92.6115 188.737C92.1382 188.995 91.6217 189.253 91.1053 189.382C83.0147 191.662 74.8811 193.77 66.7475 195.963C66.4032 196.049 65.9728 196.092 65.5425 196.135C65.4564 196.135 65.4564 196.135 65.3703 196.135C65.2843 195.92 65.1982 195.662 65.1121 195.447C64.94 194.845 64.7248 194.286 64.5957 193.77C62.53 186.156 60.4643 178.543 58.4847 170.93C58.4417 170.672 58.3556 170.414 58.3126 170.156C58.3126 170.07 58.2695 169.984 58.2695 169.855C58.2265 169.425 58.1835 168.995 58.1835 168.564C58.1835 168.263 58.2265 168.005 58.2695 167.704C58.3126 167.575 58.3126 167.403 58.3556 167.274C60.077 160.478 61.9275 153.725 63.778 146.972C64.1653 145.596 64.5096 144.22 64.8969 142.886C65.026 142.499 65.1982 142.112 65.3703 141.553C65.8437 141.639 66.3171 141.682 66.7905 141.768C67.1778 141.854 67.5651 141.94 67.9524 142.026C75.5696 144.048 83.1869 146.069 90.8041 148.177C91.88 148.478 92.9989 148.951 93.7735 149.725C99.9275 155.79 106.039 161.941 112.149 168.048C112.149 168.177 112.149 168.177 112.193 168.22ZM116.754 92.261C116.711 92.519 116.668 92.7341 116.625 92.9922C116.41 94.2395 116.066 95.4869 115.635 96.7772C115.678 96.7772 115.678 96.7772 115.721 96.8202C117.959 97.5084 120.068 97.7665 121.746 98.7128C122.865 99.401 123.855 100.347 124.888 101.423C125.404 101.939 125.878 102.498 126.437 103.014C126.48 103.057 126.523 103.143 126.609 103.186C126.911 102.713 127.255 102.283 127.599 101.896C128.029 101.423 128.503 100.992 128.933 100.562C131.214 98.5407 134.054 97.4224 137.454 96.9493C135.518 92.7341 135.518 88.82 137.368 84.7769C137.282 84.7769 137.239 84.7338 137.153 84.7338C135.001 84.0887 132.892 83.8306 131.214 82.8843C130.095 82.2391 129.148 81.2929 128.116 80.2606C127.513 79.6584 126.911 79.0562 126.265 78.4111C126.222 78.368 126.179 78.325 126.093 78.282C125.533 79.3143 124.845 80.1746 124.113 80.9058C123.166 81.766 122.134 82.4542 121.015 83.0134C120.197 83.4005 119.379 83.7015 118.519 84.0026C117.486 84.3037 116.41 84.5188 115.248 84.6478C115.721 85.422 116.023 86.1963 116.281 86.9705C116.84 88.6479 116.969 90.4544 116.754 92.261ZM120.886 85.7231C121.961 85.379 122.908 84.8629 123.769 84.2177C124.242 83.8736 124.716 83.4865 125.146 83.0564C125.533 82.6693 125.921 82.2391 126.308 81.809C126.738 82.1961 127.126 82.5832 127.513 82.9703C127.771 83.2284 128.072 83.4865 128.331 83.7016C129.622 84.8199 131.042 85.7231 132.892 85.9382C133.28 86.0242 133.667 86.1532 134.097 86.1532C133.753 87.5726 133.452 88.906 133.409 90.2394C133.409 90.4544 133.409 90.7125 133.409 90.9276C133.409 91.4867 133.452 92.0889 133.581 92.6481C133.581 92.6911 133.581 92.7341 133.581 92.7771C133.71 93.4653 133.968 94.1535 134.27 94.8847C134.27 94.9277 134.27 94.9277 134.313 94.9707C132.72 95.3148 131.257 95.7879 129.923 96.5191C129.837 96.5622 129.751 96.6052 129.708 96.6482C129.105 96.9923 128.589 97.3794 128.072 97.8955C128.072 97.8955 128.072 97.8955 128.029 97.9386C127.685 98.2396 127.341 98.6267 127.04 99.0139C126.868 99.2289 126.652 99.401 126.48 99.659C124.759 97.5514 122.822 96.132 120.369 95.5299C119.853 95.4008 119.379 95.2718 118.82 95.1858C119.164 93.5083 119.681 92.0889 119.681 90.6265C119.681 89.2931 119.164 87.9167 118.82 86.1962C119.465 86.1102 120.197 85.9382 120.886 85.7231ZM89.7282 63.0987C88.1359 63.5289 86.5866 63.916 84.9943 64.3461C84.4779 64.4751 84.0045 64.6472 83.4881 64.7762C83.0147 64.9053 82.5844 65.0343 82.111 65.1633C82.2831 65.9375 82.4122 66.5827 82.5844 67.2279C82.5844 67.3139 82.6274 67.4 82.6274 67.486C82.6274 67.572 82.6704 67.658 82.6704 67.701C82.6704 67.7441 82.6704 67.7871 82.7135 67.8301C82.7565 68.0451 82.8426 68.2602 82.8856 68.4323C84.0476 72.7765 85.1665 77.1207 86.3715 81.4649C86.9309 83.6155 87.4904 85.7661 88.0929 87.9167C88.4802 89.7663 88.4802 91.5728 88.0929 93.4223C87.4473 95.7449 86.8448 98.0676 86.2424 100.347C85.3386 103.616 84.4779 106.928 83.6172 110.197C83.2729 111.487 82.9286 112.778 82.5844 114.068C82.5413 114.283 82.4983 114.498 82.4553 114.713C82.3692 115.143 82.2401 115.617 82.154 116.09C82.1971 116.09 82.2401 116.09 82.2401 116.133C83.1008 116.391 83.7463 116.649 84.4349 116.821C91.1053 118.627 97.7758 120.477 104.489 122.154C106.727 122.714 108.448 123.746 110.041 125.337C110.213 125.509 110.428 125.681 110.6 125.896C115.119 130.585 119.767 135.101 124.371 139.703C125.06 140.348 125.749 140.994 126.911 142.026C127.642 141.037 128.116 140.133 128.804 139.445C129.665 138.542 130.569 137.682 131.429 136.822C135.13 133.165 138.788 129.509 142.446 125.767C142.661 125.552 142.834 125.38 143.049 125.165C144.598 123.574 146.319 122.671 148.428 122.111C155.142 120.391 161.812 118.584 168.439 116.778C168.612 116.735 168.784 116.649 168.999 116.606C169.601 116.434 170.161 116.305 170.763 116.133C170.763 116.09 170.763 116.047 170.72 116.004H170.763C170.548 115.057 170.376 114.283 170.161 113.552C169.644 111.573 169.085 109.595 168.569 107.573C168.095 105.81 167.622 104.046 167.148 102.283C166.288 99.0999 165.47 95.917 164.609 92.7771C164.566 92.562 164.523 92.39 164.48 92.1749C164.308 90.9276 164.351 89.6802 164.609 88.4329C165.169 86.4973 165.642 84.5188 166.202 82.5832C167.45 78.067 168.655 73.5507 169.86 69.0344C169.946 68.6903 170.032 68.3462 170.118 68.0451C170.118 68.0021 170.161 67.9161 170.161 67.8731C170.204 67.7871 170.204 67.701 170.247 67.572C170.419 66.8408 170.591 66.0666 170.806 65.2494C170.505 65.1633 170.29 65.0773 170.032 64.9913C169.3 64.7762 168.655 64.5612 168.052 64.3891C163.275 63.0987 158.455 61.8084 153.678 60.561C152 60.1309 150.322 59.6578 148.643 59.2277C146.276 58.4965 144.297 57.3351 142.489 55.5716C141.241 54.2813 139.95 52.9909 138.659 51.7005C134.743 47.7004 130.698 43.7433 126.566 39.6141C126.523 39.6572 126.48 39.7002 126.437 39.7002C126.308 39.5711 126.222 39.4851 126.05 39.3561C125.361 40.2593 124.931 41.0335 124.285 41.6787C119.293 46.7111 114.258 51.7005 109.266 56.733C109.051 56.948 108.836 57.1201 108.621 57.2921C107.631 58.0663 106.598 58.6255 105.35 58.9266C101.864 59.7868 98.3783 60.7331 94.8924 61.6793C93.171 62.1525 91.4496 62.6256 89.7282 63.0987ZM105.436 61.4643C105.78 61.3783 106.082 61.2922 106.426 61.2062C106.469 61.2062 106.469 61.2062 106.512 61.1632C106.684 61.1202 106.856 61.0772 106.985 61.0342C107.114 60.9912 107.243 60.9051 107.373 60.9051C107.588 60.8191 107.803 60.7331 108.018 60.6471C108.578 60.389 109.137 60.0879 109.61 59.7008C109.783 59.5718 109.998 59.4427 110.17 59.2707C110.256 59.1847 110.342 59.1846 110.385 59.0986C110.471 59.0126 110.6 58.8836 110.686 58.7975C110.772 58.7115 110.858 58.6685 110.901 58.5825C115.291 54.0662 119.81 49.679 124.242 45.2057C124.845 44.6035 125.49 44.0014 126.394 43.1411C127.083 43.7433 127.728 44.3025 128.331 44.9046C128.417 44.9907 128.46 45.0337 128.546 45.1197C133.151 49.679 137.755 54.2383 142.274 58.8836C143.35 60.0019 144.555 60.6901 146.104 61.1202C152.473 62.7547 158.8 64.5181 165.126 66.1956C165.9 66.4107 166.632 66.6257 167.665 66.9268C167.622 67.0559 167.622 67.1419 167.622 67.2709C167.493 68.0451 167.364 68.8194 167.148 69.5076C165.47 75.8303 163.792 82.1961 162.07 88.5189C162.07 88.5619 162.027 88.6479 162.027 88.6909C161.855 89.3361 161.769 89.9813 161.769 90.6265C161.769 90.6695 161.769 90.6695 161.769 90.7125C161.769 91.3577 161.855 92.0029 162.027 92.6481C163.792 98.9708 165.427 105.337 167.105 111.659C167.32 112.477 167.493 113.337 167.708 114.369C166.933 114.584 166.245 114.799 165.599 114.971C165.255 115.057 164.911 115.186 164.566 115.272C163.964 115.444 163.318 115.617 162.716 115.789C157.25 117.251 151.742 118.756 146.276 120.176C146.061 120.219 145.889 120.305 145.674 120.391C144.469 120.778 143.436 121.38 142.489 122.326C142.446 122.369 142.403 122.412 142.36 122.455C142.317 122.498 142.274 122.541 142.231 122.584C137.712 127.187 133.108 131.746 128.503 136.348C127.9 136.951 127.212 137.553 126.48 138.241C125.749 137.553 125.06 136.994 124.458 136.391C121.187 133.165 117.959 129.897 114.732 126.628C113.742 125.595 112.709 124.606 111.762 123.574C111.59 123.402 111.418 123.273 111.246 123.101C111.074 122.929 110.945 122.8 110.772 122.628C109.524 121.38 108.19 120.606 106.512 120.176C106.254 120.09 105.995 120.047 105.737 119.961C105.608 119.918 105.479 119.875 105.307 119.832C104.231 119.574 103.155 119.273 102.036 118.971C98.2492 117.982 94.4621 116.993 90.718 115.961C89.9434 115.746 89.1257 115.531 88.3511 115.315C87.7056 115.143 86.974 114.928 86.1993 114.67C85.8981 114.584 85.6399 114.498 85.2956 114.369C85.5108 113.423 85.6399 112.606 85.855 111.788C87.5334 105.466 89.2118 99.0999 90.9332 92.7771C91.3205 91.3577 91.3635 90.0673 90.9332 88.6049C89.2118 82.3682 87.5764 76.1314 85.8981 69.8516C85.6829 68.9914 85.4677 68.1312 85.2095 67.0559C86.0272 66.7548 86.7588 66.4537 87.4904 66.2386C87.8347 66.1526 88.1789 66.0666 88.5232 65.9376C94.1178 64.4751 99.7554 62.9267 105.436 61.4643ZM293.026 70.0237C286.571 76.3895 280.202 82.7983 273.789 89.1641C273.316 89.6372 272.886 90.1534 272.412 90.6265C272.757 91.0566 272.972 91.3577 273.23 91.5728C279.943 98.2826 286.614 105.036 293.413 111.659C294.231 112.477 295.479 113.036 296.598 113.38C303.699 115.358 310.8 117.208 317.9 119.101C320.181 119.703 322.462 120.305 324.829 120.95C325.087 120.434 325.302 120.133 325.388 119.832C326.636 115.143 327.884 110.455 329.133 105.767C328.616 104.562 328.1 103.358 327.583 102.111C326.292 106.971 324.958 111.831 323.667 116.649C323.581 116.993 323.409 117.294 323.151 117.939C316.824 116.262 310.67 114.627 304.516 112.993C301.633 112.219 298.448 111.874 295.909 110.412C293.37 108.95 291.52 106.369 289.368 104.261C285.452 100.39 281.579 96.5192 277.706 92.6051C277.103 92.0029 276.501 91.3147 275.812 90.5835C281.32 85.0779 286.829 79.7874 292.036 74.2819C294.532 71.6582 297.243 70.0667 300.772 69.2495C302.924 68.7333 305.076 68.1742 307.228 67.615C306.668 66.8838 306.109 66.1956 305.549 65.5074C302.365 66.3677 299.18 67.2279 296.039 68.0882C295.006 68.3892 293.887 69.1635 293.026 70.0237ZM86.3284 315.193C82.5413 314.16 78.7542 313.171 74.795 312.096C76.9898 313.601 79.2707 315.064 81.5515 316.483C82.7995 316.827 84.0476 317.171 85.2525 317.515C85.6399 317.644 86.0272 317.945 86.3284 318.247C87.1891 319.107 88.0498 319.924 88.8675 320.784C91.2344 322.075 93.6444 323.322 96.0974 324.526C93.0849 321.515 90.1585 318.591 87.2322 315.709C87.017 315.408 86.6297 315.279 86.3284 315.193ZM233.164 57.7222C234.843 58.1524 236.22 58.9266 237.468 60.1739C244.956 67.7441 252.487 75.2282 260.018 82.7553C260.707 83.4435 261.395 84.0456 262.256 84.8199C263.117 84.0026 263.805 83.3575 264.494 82.6693C272.025 75.1421 279.556 67.658 287.044 60.0879C288.206 58.9266 289.497 58.1954 291.089 57.7653C293.284 57.2061 295.479 56.6039 297.674 56.0018C297.071 55.3136 296.383 54.6684 295.78 53.9802C293.715 54.5393 291.649 55.0985 289.54 55.6577C288.12 56.0448 286.958 56.6899 285.925 57.7222C278.781 64.9053 271.638 72.0023 264.494 79.1853C263.805 79.8735 263.332 80.7767 262.643 81.766C261.438 80.6477 260.75 80.0025 260.061 79.3573C252.917 72.2173 245.73 65.0773 238.63 57.8943C237.468 56.733 236.177 56.0018 234.584 55.5716C224.901 53.0339 215.219 50.4102 205.579 47.7864C204.632 47.5284 203.728 47.2273 202.523 46.8832C202.781 45.7649 202.997 44.7756 203.255 43.7863C205.88 33.9365 208.505 24.0868 211.173 14.28C211.518 13.0327 211.518 11.9143 211.173 10.667C210.614 8.5594 210.054 6.4088 209.452 4.30121C208.548 4.08614 207.644 3.87108 206.741 3.65602C207.343 5.97868 207.989 8.30133 208.591 10.624C208.892 11.7423 208.892 13.0757 208.591 14.237C207.085 20.1727 205.493 26.0653 203.9 31.958C202.437 37.4205 200.974 42.8831 199.468 48.5607C200.458 48.8617 201.275 49.1628 202.093 49.3779C212.464 52.1737 222.793 54.9695 233.164 57.7222ZM209.065 104.218C213.583 103.014 217.844 101.896 222.104 100.734C222.535 100.605 222.922 100.347 223.223 100.089C226.322 97.0353 229.377 93.9814 232.691 90.6695C229.463 87.4866 226.537 84.5618 223.567 81.637C223.18 81.2929 222.75 80.8627 222.276 80.7337C217.93 79.5294 213.626 78.368 209.065 77.1637C208.161 80.3896 207.515 83.4435 206.525 86.3683C205.493 89.3361 205.536 92.1749 206.569 95.1428C207.515 98.0246 208.161 101.035 209.065 104.218ZM208.032 90.3254C208.892 87.0135 209.796 83.6585 210.743 80.1315C214.272 81.0778 217.629 81.9811 220.942 82.8843C221.416 83.0134 221.846 83.4005 222.233 83.7876C224.514 85.9812 226.795 88.2178 229.248 90.5835C226.666 93.1212 224.299 95.5299 221.932 97.8525C221.631 98.1536 221.2 98.4117 220.813 98.4977C217.585 99.401 214.315 100.261 210.786 101.207C209.839 97.6375 208.978 94.4976 208.118 91.3147C208.032 91.0136 207.946 90.6265 208.032 90.3254ZM17.9026 199.146C22.8947 197.813 27.8868 196.479 32.8358 195.146C33.4813 194.974 34.1268 194.673 34.8584 194.415C34.8154 194.286 34.8154 194.2 34.7724 194.071C34.6433 193.425 34.5142 192.823 34.3851 192.264C32.5345 185.339 30.7271 178.371 28.7905 171.489C28.3171 169.812 28.2741 168.263 28.7475 166.543C30.684 159.618 32.4915 152.693 34.342 145.768C34.4281 145.51 34.4711 145.252 34.5142 144.994C34.6433 144.478 34.7724 143.962 34.9015 143.402C34.6002 143.316 34.342 143.23 34.0408 143.144C33.4813 142.972 32.9649 142.757 32.4485 142.628C25.692 140.822 18.9354 138.972 12.1789 137.209C10.3284 136.735 8.8222 135.961 7.44507 134.542C6.4983 133.553 5.50849 132.606 4.56172 131.617C4.34655 132.563 4.13137 133.51 3.91619 134.456C4.69083 135.273 5.50849 136.047 6.28313 136.822C6.28313 136.822 6.32616 136.822 6.32616 136.865C6.3692 136.908 6.41223 136.951 6.45527 136.994C7.2299 137.811 8.0906 138.37 9.03737 138.757C9.51076 138.972 9.98415 139.144 10.5436 139.316C11.3613 139.531 12.1789 139.746 13.0396 139.961C18.5912 141.424 24.1427 142.929 29.6942 144.435C29.8233 144.478 29.9524 144.521 30.0815 144.521C30.0815 144.521 30.0815 144.521 30.1246 144.521C30.684 144.693 31.2435 144.908 31.932 145.166C31.7169 146.112 31.5447 146.972 31.3296 147.833C29.6512 154.155 27.9728 160.521 26.2514 166.844C25.8641 168.263 25.8211 169.554 26.2514 171.016C28.0159 177.425 29.6942 183.834 31.4156 190.243C31.6308 191.06 31.7599 191.92 31.932 192.823C30.8131 193.167 29.9955 193.425 29.1348 193.641C22.8086 195.275 16.5685 196.995 10.3284 198.587C10.2424 198.587 10.1993 198.63 10.1563 198.63C10.1563 198.63 10.1563 198.63 10.1133 198.63C10.1133 198.63 10.1132 198.63 10.0702 198.63C9.51076 198.802 8.9513 199.017 8.47792 199.275C8.34881 199.361 8.21971 199.404 8.0906 199.49C7.53114 199.834 6.97169 200.264 6.4983 200.78C5.42242 201.856 4.34655 202.931 3.27067 204.006C3.44281 204.996 3.65798 205.942 3.87316 206.888C4.7769 205.985 5.72367 205.082 6.62741 204.135C6.84258 203.92 7.05776 203.705 7.27293 203.49C8.65006 202.071 10.1993 201.168 12.0498 200.608C13.9864 200.178 15.966 199.662 17.9026 199.146ZM168.009 144.091C165.685 144.736 163.318 145.338 160.994 145.983C159.488 146.37 158.283 147.058 157.164 148.177C150.881 154.542 144.512 160.865 138.186 167.188C138.143 167.231 138.1 167.317 138.014 167.36C137.841 167.532 137.669 167.704 137.54 167.833C137.239 168.134 136.981 168.478 136.593 168.909C136.68 168.995 136.723 169.038 136.809 169.124C137.024 169.425 137.196 169.64 137.411 169.855C141.198 173.64 145.028 177.425 148.815 181.21C150.795 183.232 152.818 185.21 154.754 187.275C155.443 188.006 156.174 188.694 156.906 189.253C157.207 189.554 157.508 189.855 157.767 190.113C158.584 190.931 159.832 191.447 160.994 191.791C161.166 191.834 161.382 191.877 161.554 191.92C162.458 192.264 163.404 192.565 164.394 192.78C165.212 192.952 166.029 193.167 166.847 193.339C173.431 195.146 180.059 196.909 186.686 198.673C187.504 198.888 188.365 199.017 189.139 199.189C189.354 198.759 189.527 198.544 189.613 198.329C192.152 188.995 194.648 179.705 197.101 170.328C197.359 169.296 197.273 168.048 197.015 166.973C196.025 162.93 194.906 158.93 193.787 154.887C192.324 149.51 190.904 144.134 189.354 138.456C188.451 138.628 187.848 138.714 187.246 138.886C185.438 139.359 183.631 139.832 181.823 140.348V140.262C177.219 141.553 172.614 142.8 168.009 144.091ZM186.299 141.768C186.643 141.682 186.988 141.682 187.461 141.596C187.719 142.456 188.02 143.316 188.236 144.134C190.258 151.661 192.281 159.188 194.304 166.715C194.648 168.005 194.82 169.253 194.476 170.629C192.324 178.586 190.215 186.544 188.063 194.458C187.891 195.06 187.633 195.576 187.332 196.35C185.955 195.963 184.707 195.662 183.416 195.318C182.856 195.189 182.297 195.017 181.737 194.888V194.63C181.221 194.587 180.704 194.587 180.231 194.458C178.553 194.028 176.874 193.554 175.196 193.124C170.677 191.92 166.202 190.716 161.726 189.468C160.607 189.167 159.445 188.479 158.627 187.619C152.861 181.984 147.18 176.264 141.499 170.543C141.026 170.07 140.596 169.511 140.079 168.952C140.122 168.909 140.165 168.866 140.208 168.779C140.596 168.349 140.94 167.919 141.284 167.532C147.18 161.639 153.033 155.747 158.972 149.897C159.015 149.854 159.015 149.854 159.058 149.811C159.832 149.08 160.951 148.564 162.027 148.263C168.612 146.456 175.196 144.736 181.78 142.972C183.287 142.585 184.793 142.155 186.299 141.768ZM152.129 28.2159C152.99 29.0762 153.851 29.9364 154.711 30.8397C154.926 31.0977 155.185 31.2698 155.4 31.4849C156.002 32.087 156.562 32.6462 157.164 33.2484C158.283 34.3667 159.488 35.0549 160.994 35.442C161.554 35.571 162.113 35.7431 162.673 35.9151C163.189 36.0871 163.706 36.2592 164.308 36.3882C164.738 36.4743 165.169 36.6033 165.642 36.6893C168.655 37.5065 171.624 38.2808 174.636 39.098C179.413 40.3884 184.19 41.6357 189.096 42.9261C189.354 42.3239 189.57 41.8508 189.699 41.3776C192.152 32.3021 194.605 23.2695 196.972 14.151C197.273 13.0327 197.187 11.6563 196.886 10.538C196.111 7.57013 195.293 4.60229 194.519 1.59144C193.658 1.46241 192.797 1.37638 191.894 1.24735C192.711 4.34422 193.529 7.39808 194.347 10.4949C194.648 11.6993 194.691 13.1617 194.347 14.366C192.324 22.1512 190.215 29.9364 188.106 37.7216C187.934 38.3668 187.676 39.012 187.375 39.7862C186.6 39.6141 185.912 39.4851 185.223 39.3131C184.061 39.012 182.899 38.6679 181.737 38.3668V38.1087C181.264 38.0657 180.79 38.0657 180.36 37.9797C174.206 36.3452 168.052 34.7108 161.898 33.0333C160.951 32.7752 160.005 32.3021 159.273 31.6569C159.101 31.5279 158.929 31.3988 158.8 31.2698C153.764 26.3234 148.772 21.334 143.823 16.3016C143.178 15.6564 142.575 15.0542 141.93 14.409C141.37 13.8499 140.811 13.2477 140.251 12.6456C140.208 12.6025 140.165 12.5165 140.122 12.4735C140.122 12.4735 140.122 12.4305 140.165 12.4305C140.51 12.0434 140.811 11.6133 141.155 11.2262C144.555 7.8282 147.998 4.43024 151.398 0.989274C150.02 1.16132 148.643 1.33337 147.309 1.50542C144.598 4.17217 141.93 6.88193 139.219 9.59169C138.358 10.4519 137.282 11.1831 136.206 12.0434C137.196 13.0757 137.755 13.7209 138.358 14.366C142.963 19.0113 147.567 23.6136 152.129 28.2159ZM97.4745 45.5498C94.7633 46.281 92.0521 47.0122 89.3409 47.7004C81.8528 49.679 74.3647 51.6575 66.8766 53.6791C65.8867 53.9372 64.8969 54.2813 63.735 54.6254C63.735 54.6684 63.735 54.6684 63.735 54.7114C63.735 54.7114 63.735 54.7114 63.692 54.7114C63.9071 55.6146 64.1223 56.3458 64.2944 57.0771C64.3375 57.2921 64.3805 57.4642 64.4236 57.6792C67.1778 68.0451 69.9321 78.4111 72.7724 88.734C73.1167 90.0673 73.1597 91.2717 72.7724 92.6051C69.9321 103.014 67.1778 113.466 64.3805 123.918C64.1654 124.778 63.9502 125.638 63.735 126.542C63.735 126.585 63.692 126.628 63.692 126.671C63.692 126.671 63.692 126.671 63.692 126.714C64.6387 127.015 65.4134 127.23 66.1019 127.445C66.188 127.488 66.3171 127.488 66.4032 127.531C74.1065 129.595 81.8097 131.703 89.5561 133.725C92.2242 134.413 94.8494 135.144 97.5176 135.832C98.7656 136.176 99.7984 136.692 100.788 137.424C101.089 137.682 101.391 137.94 101.649 138.198C109.137 145.725 116.668 153.252 124.199 160.779C124.888 161.467 125.576 162.07 126.394 162.844C126.523 162.973 126.652 163.102 126.824 163.231C127.556 162.242 128.072 161.338 128.718 160.65C136.206 153.123 143.78 145.596 151.268 138.069C152.387 136.951 153.549 136.219 155.099 135.875C158.283 135.144 161.425 134.198 164.609 133.338C165.169 133.165 165.728 133.036 166.288 132.864C172.958 131.058 179.672 129.294 186.342 127.488C187.246 127.23 188.149 126.929 189.096 126.671C188.795 125.509 188.58 124.649 188.365 123.789C186.17 115.617 183.975 107.401 181.78 99.2289V98.7988C181.651 98.4547 181.522 98.1106 181.393 97.7665C180.963 96.2611 180.575 94.7126 180.188 93.2072C179.93 91.5728 179.93 89.9383 180.145 88.3469C180.532 86.9275 180.877 85.5511 181.264 84.1317C181.436 83.7016 181.608 83.2714 181.823 82.8413V82.1101C184.018 73.9378 186.213 65.7655 188.408 57.5502C188.666 56.6469 188.838 55.7007 189.096 54.5824C187.934 54.2383 186.901 53.9372 185.912 53.6791C184.535 53.335 183.2 52.9479 181.823 52.6038V52.5178C172.657 50.0661 163.49 47.7004 154.367 45.1627C154.109 45.0767 153.894 44.9907 153.635 44.8616C153.635 44.8616 153.592 44.8616 153.592 44.8186C152.861 44.4745 152.129 43.9154 151.57 43.3132C145.717 37.5496 139.907 31.6999 134.097 25.8933C132.333 24.1298 130.525 22.3233 128.761 20.5168C128.072 19.8286 127.599 18.9253 127.04 18.1511C126.781 18.1941 126.523 18.2371 126.308 18.2371C126.265 18.1941 126.222 18.1511 126.179 18.1081C126.136 18.1511 126.093 18.1941 126.05 18.2801C126.007 18.2801 126.007 18.2801 125.964 18.2801C125.361 19.0544 124.845 19.8716 124.156 20.5598C116.711 28.0439 109.223 35.485 101.778 42.9691C100.487 44.3025 99.1529 45.1197 97.4745 45.5498ZM124.328 23.9147C124.888 23.3556 125.533 22.7964 126.437 21.9362C127.212 22.6674 127.9 23.2695 128.546 23.9147C135.69 31.0547 142.877 38.1947 149.977 45.3778C151.139 46.5821 152.43 47.2703 154.023 47.7004C154.453 47.8295 154.84 47.9155 155.271 48.0445C164.093 50.4102 172.915 52.7758 181.78 55.1845V55.1415C182.297 55.2705 182.813 55.3996 183.33 55.5716C184.19 55.7867 185.008 56.0448 186.084 56.3889C185.826 57.5072 185.61 58.5395 185.309 59.5287C184.061 64.174 182.813 68.7763 181.565 73.4217C181.565 73.4217 181.522 73.4217 181.522 73.4647C180.92 75.7873 180.274 78.11 179.672 80.4326C178.94 83.2284 178.165 86.0242 177.434 88.777C177.434 88.863 177.434 88.949 177.391 88.992C177.305 89.2501 177.262 89.5082 177.176 89.7663C177.046 90.2394 177.003 90.8416 177.089 91.3147C177.176 91.6588 177.262 91.9599 177.348 92.304C177.391 92.433 177.348 92.519 177.391 92.6481C180.016 102.326 182.598 111.961 185.18 121.638C185.438 122.671 185.697 123.66 185.998 124.95C184.922 125.294 183.932 125.595 182.942 125.896C177.046 127.488 171.108 129.036 165.212 130.628C161.468 131.617 157.681 132.649 153.937 133.639C153.851 133.682 153.764 133.682 153.678 133.725C153.076 133.897 152.559 134.112 152.043 134.37C151.828 134.499 151.613 134.628 151.398 134.757C151.01 135.015 150.623 135.316 150.236 135.66C150.193 135.703 150.106 135.746 150.063 135.789C149.934 135.918 149.805 136.047 149.633 136.219C142.575 143.316 135.518 150.37 128.417 157.467C127.857 158.026 127.212 158.629 126.308 159.446C125.361 158.586 124.759 157.983 124.199 157.424C120.24 153.467 116.324 149.553 112.365 145.596C109.18 142.413 105.952 139.187 102.768 135.961C101.606 134.8 100.315 134.069 98.7225 133.639C95.7101 132.864 92.6976 132.047 89.6852 131.23C83.1008 129.466 76.5164 127.703 69.9321 125.939C69.7599 125.896 69.5878 125.853 69.4156 125.81C68.5119 125.552 67.6512 125.251 66.6614 124.95C66.9626 123.703 67.1778 122.8 67.436 121.853C70.0612 112.09 72.6433 102.326 75.3114 92.6051C75.6988 91.2717 75.6557 90.0673 75.3114 88.734C72.6433 78.9702 70.0612 69.2065 67.436 59.4857C67.1778 58.4965 66.9626 57.4642 66.7044 56.3889C67.6512 56.0878 68.3828 55.8727 69.1144 55.6577C69.3296 55.6146 69.5447 55.5286 69.7169 55.4856C79.4858 52.8619 89.2548 50.2381 99.0238 47.6574C100.444 47.2703 101.606 46.6251 102.639 45.5928C109.869 38.3238 117.099 31.1408 124.328 23.9147ZM181.78 163.188C181.221 161.295 180.704 159.403 180.102 157.467C179.887 156.736 179.672 156.005 179.456 155.274C177.176 155.876 174.938 156.478 172.743 157.08C172.528 157.123 172.27 157.166 172.054 157.209C170.72 157.424 169.515 157.811 168.31 158.285C167.708 158.457 167.105 158.629 166.46 158.801C166.029 158.93 165.642 159.145 165.341 159.446C164.868 159.919 164.394 160.392 163.921 160.822C162.931 161.639 161.941 162.543 161.08 163.575C160.736 163.962 160.349 164.349 160.005 164.693C158.627 166.07 157.207 167.489 155.787 168.909C155.787 168.909 155.787 168.909 155.83 168.952C159.144 172.263 162.285 175.403 165.427 178.5C165.728 178.801 166.159 179.016 166.589 179.102C169.73 179.963 172.915 180.823 176.186 181.683C176.702 181.812 177.219 181.984 177.735 182.113H177.778C178.337 182.285 178.897 182.414 179.456 182.543C179.499 182.457 179.499 182.371 179.542 182.285H179.585C179.93 181.124 180.231 180.092 180.532 179.102C180.963 177.683 181.393 176.307 181.78 174.887V174.586C182.383 172.694 183.028 170.801 183.028 168.909C183.028 167.016 182.426 165.123 181.78 163.188ZM180.575 169.339C179.715 172.651 178.811 175.963 177.821 179.576C174.766 178.758 171.925 177.984 169.042 177.21C168.482 177.081 167.966 176.909 167.407 176.78C167.364 176.78 167.321 176.737 167.277 176.737C167.148 176.694 167.019 176.608 166.933 176.522C166.89 176.522 166.89 176.479 166.847 176.436C164.351 173.984 161.898 171.489 159.273 168.866C161.812 166.328 164.179 163.962 166.589 161.639C166.632 161.639 166.632 161.596 166.675 161.596C166.847 161.467 167.019 161.338 167.191 161.209C167.277 161.166 167.407 161.123 167.493 161.08C167.622 161.037 167.751 160.951 167.923 160.908C169.343 160.521 170.806 160.091 172.227 159.704C174.034 159.231 175.841 158.715 177.821 158.199C178.811 161.812 179.672 165.037 180.532 168.263C180.618 168.607 180.661 168.995 180.575 169.339ZM16.9558 106.971C18.0747 108.218 19.2367 109.294 20.4417 110.24C21.0011 110.756 21.5176 111.315 22.077 111.874C22.7656 112.563 23.8414 113.036 24.8313 113.337C25.4337 113.509 26.0362 113.681 26.6818 113.853C28.0589 114.412 29.5221 114.842 31.0713 115.186C32.1903 115.444 33.3092 115.703 34.4281 115.961C36.9672 116.649 39.5062 117.294 42.0453 117.982C45.2299 118.842 48.4575 119.703 51.6852 120.563C52.2446 120.692 52.761 120.864 53.3205 121.036C53.4926 120.735 53.6217 120.52 53.7078 120.305C53.7509 120.219 53.7939 120.176 53.7939 120.09C53.7939 120.09 53.7939 120.09 53.7939 120.047C53.7939 120.004 53.8369 120.004 53.8369 119.961C56.333 110.627 58.872 101.294 61.325 91.9599C61.5402 91.0566 61.4541 90.0243 61.239 89.1211C58.872 80.1315 56.4621 71.142 54.0091 62.1525C53.966 61.9804 53.88 61.7654 53.7939 61.5933C53.6648 61.2492 53.5357 60.9051 53.3635 60.518H53.3205C53.3205 60.518 53.3205 60.518 53.3205 60.475C52.5459 60.6471 51.9434 60.7761 51.3839 60.9481C51.3409 60.9481 51.3409 60.9481 51.2978 60.9481C51.2548 60.9481 51.2548 60.9481 51.2118 60.9481C46.4779 62.1955 41.701 63.4859 36.9672 64.7332C36.1065 65.8085 35.2027 66.9268 34.3851 68.0021C35.9774 67.572 37.5266 67.1419 39.1189 66.7118C42.9921 65.6795 46.8222 64.6472 50.6954 63.6149C50.9105 63.5719 51.1687 63.5719 51.47 63.5289C51.5561 63.5289 51.5991 63.5289 51.7282 63.5289C51.8573 63.873 51.9864 64.2601 52.1586 64.6042C52.2877 64.9913 52.4168 65.3784 52.5028 65.7225C54.3533 72.6044 56.2038 79.5294 58.0544 86.4113C58.2265 87.1425 58.4417 87.8737 58.6138 88.6049C58.9151 89.7232 59.0011 91.0136 58.7429 92.1319C56.6342 100.304 54.3964 108.477 52.2016 116.606C52.0725 116.993 51.9003 117.38 51.7282 117.81C51.0827 117.681 50.5232 117.552 49.9207 117.423C47.4677 116.778 45.0147 116.133 42.6048 115.487C37.1393 114.025 31.6308 112.563 26.2084 111.057C26.0793 111.014 25.9071 110.971 25.778 110.928C25.3907 110.799 24.9604 110.67 24.573 110.455C24.53 110.455 24.53 110.412 24.487 110.412C24.0566 110.197 23.6693 109.896 23.3681 109.595C20.5277 106.799 17.7305 103.96 14.8901 101.164C14.5459 101.982 14.1586 102.756 13.8143 103.573C14.0294 103.788 14.2877 104.046 14.5028 104.261C15.2775 105.165 16.1382 106.068 16.9558 106.971ZM52.1155 48.9478C52.5028 48.8187 52.8901 48.6897 53.3205 48.5607C53.3205 48.5607 53.3205 48.5607 53.3635 48.5607C53.2344 48.0445 53.1484 47.6144 53.0193 47.1843C52.2446 47.9155 51.47 48.6467 50.6954 49.4209C50.7384 49.4209 50.7814 49.3779 50.8245 49.3779C51.2118 49.2489 51.6852 49.0768 52.1155 48.9478ZM86.2424 22.6244C86.6727 22.4953 87.06 22.2803 87.3613 21.9792C87.5334 21.8071 87.7056 21.6351 87.8777 21.463C87.9638 21.42 88.0068 21.334 88.0929 21.291C87.1461 21.8071 86.2424 22.3663 85.3386 22.8824C85.4247 22.8394 85.5108 22.8394 85.5968 22.7964C85.812 22.7534 86.0272 22.7104 86.2424 22.6244ZM191.721 92.6481C193.959 101.207 196.24 109.767 198.564 118.326C198.779 119.144 199.08 119.961 199.425 121.036C209.323 118.369 218.92 115.832 228.516 113.165C229.549 112.864 230.539 112.09 231.314 111.315C237.683 105.036 244.009 98.6698 250.335 92.347C250.895 91.7878 251.368 91.1857 251.971 90.5405C244.827 83.4005 237.812 76.3895 230.754 69.4215C230.066 68.7333 228.99 68.2602 228 68.0021C219.178 65.5935 210.356 63.2708 201.533 60.9051C200.888 60.7331 200.199 60.604 199.468 60.475C199.253 60.9051 199.037 61.2062 198.951 61.5503C196.455 70.7979 193.959 80.0025 191.549 89.2931C191.291 90.3254 191.463 91.5728 191.721 92.6481ZM194.131 89.2071C196.197 81.1638 198.392 73.1206 200.544 65.0773C200.673 64.5612 200.888 64.131 201.146 63.5289C201.921 63.6579 202.652 63.7439 203.298 63.916C211.087 65.9806 218.877 68.0451 226.623 70.1957C227.699 70.4968 228.818 71.013 229.592 71.7872C235.703 77.8089 241.771 83.9166 247.839 89.9813C248.011 90.1534 248.14 90.4114 248.399 90.7125C247.882 91.2717 247.366 91.8738 246.806 92.433C241.255 98.0246 235.66 103.573 230.109 109.165C229.076 110.197 227.957 110.842 226.494 111.229C218.877 113.208 211.259 115.315 203.642 117.337C202.868 117.552 202.093 117.681 201.017 117.939C199.597 112.649 198.22 107.616 196.843 102.584C195.939 99.2719 194.992 95.917 194.174 92.562C194.002 91.4867 193.873 90.2394 194.131 89.2071ZM126.437 6.4088C126.566 6.53783 126.695 6.66687 126.867 6.79591C127.255 6.27976 127.556 5.80663 127.857 5.41952C127.212 5.59157 126.566 5.80663 125.921 5.97868C126.093 6.10771 126.222 6.23675 126.437 6.4088ZM200.974 277.041C210.054 274.589 219.135 272.224 228.172 269.686C229.291 269.385 230.41 268.654 231.271 267.793C237.64 261.514 243.966 255.148 250.292 248.825C250.852 248.266 251.368 247.664 251.971 247.019C244.784 239.835 237.726 232.738 230.582 225.728C229.937 225.082 228.947 224.695 228.043 224.437C219.221 222.028 210.399 219.706 201.576 217.34C200.888 217.168 200.242 217.039 199.425 216.867C199.166 217.426 198.994 217.641 198.951 217.899C196.455 227.147 193.959 236.395 191.549 245.642C191.291 246.631 191.334 247.793 191.592 248.739C193.959 257.815 196.412 266.89 198.865 275.966C198.994 276.439 199.296 276.869 199.511 277.342C200.113 277.256 200.544 277.17 200.974 277.041ZM194.304 249.169C194.002 248.094 193.873 246.846 194.131 245.814C196.24 237.599 198.478 229.384 200.716 221.211C200.802 220.867 200.974 220.566 201.146 220.093C201.835 220.179 202.523 220.222 203.169 220.394C211.044 222.502 218.92 224.566 226.752 226.717C227.656 226.975 228.646 227.362 229.291 228.007C235.66 234.287 241.986 240.61 248.399 247.062C247.925 247.621 247.538 248.18 247.065 248.653C241.384 254.374 235.703 260.094 229.937 265.729C229.162 266.503 228.129 267.234 227.096 267.535C218.92 269.815 210.7 271.966 202.48 274.159C202.05 274.245 201.663 274.331 201.06 274.417C200.759 273.385 200.458 272.482 200.242 271.535C198.263 264.051 196.24 256.61 194.304 249.169ZM0.0430351 169.038C0.0430351 166.973 0.860702 164.951 1.37712 162.715C1.37712 162.715 1.37712 162.715 1.37712 162.672C0.989807 162.543 0.602491 162.457 0.215176 162.371C0.0860702 165.166 0 168.005 0 170.801C0 172.393 0.0860702 173.941 0.129105 175.532C0.559456 175.446 0.989807 175.317 1.46319 175.231C0.903737 172.952 0.0430351 170.973 0.0430351 169.038ZM336.793 196.264C335.932 193.124 335.157 190.243 334.383 187.361C332.92 181.898 331.413 176.436 329.993 170.93C329.735 169.855 329.563 168.607 329.821 167.575C331.973 159.274 334.254 150.972 336.492 142.714C336.578 142.37 336.75 142.069 336.965 141.596C337.869 141.811 338.729 141.983 339.547 142.198C339.375 141.295 339.246 140.391 339.074 139.488C338.471 139.316 337.869 139.144 337.266 139.015C336.664 138.843 336.061 138.757 335.243 138.628C334.985 139.144 334.813 139.445 334.727 139.789C332.231 149.037 329.735 158.242 327.325 167.532C327.067 168.564 327.153 169.855 327.454 170.887C329.778 179.705 332.145 188.522 334.512 197.34C334.684 197.985 334.942 198.63 335.2 199.361C335.76 199.232 336.19 199.146 336.621 199.017C337.697 198.716 338.729 198.458 339.805 198.157C339.934 197.297 340.063 196.393 340.193 195.49C339.59 195.662 338.988 195.791 338.428 195.963C337.998 196.092 337.567 196.135 336.793 196.264ZM61.239 245.642C61.239 245.599 61.239 245.513 61.1959 245.47C61.1959 245.384 61.1529 245.298 61.1529 245.255C61.1529 245.212 61.1529 245.212 61.1529 245.169C58.9151 236.61 56.5912 228.05 54.3103 219.491C54.2673 219.276 54.1812 219.018 54.0951 218.803C54.0521 218.717 54.0521 218.631 54.0091 218.544C53.966 218.458 53.966 218.372 53.923 218.286C53.7939 217.856 53.6648 217.426 53.4926 216.953C53.4496 216.953 53.4066 216.953 53.3205 216.953C53.3205 216.953 53.3205 216.91 53.2775 216.91C52.9332 216.953 52.675 216.996 52.4168 217.039C52.3737 217.039 52.2877 217.039 52.2446 217.039C52.2016 217.039 52.1586 217.082 52.1155 217.082C52.0725 217.082 52.0725 217.082 52.0294 217.082C45.402 218.846 38.7316 220.609 32.1042 222.416C29.479 223.104 26.8539 223.792 24.2288 224.523C23.4972 224.738 22.7225 225.125 22.2061 225.685C19.0215 228.867 15.7939 232.05 12.6093 235.276C12.9536 236.093 13.2548 236.954 13.5991 237.771C16.6546 234.717 19.667 231.663 22.7225 228.652C22.8516 228.523 23.0238 228.351 23.1959 228.222C23.6263 227.921 24.0566 227.577 24.487 227.276C24.8743 227.061 25.2616 226.932 25.692 226.717C25.735 226.717 25.735 226.674 25.778 226.674C28.6183 225.9 31.4587 225.125 34.342 224.351H34.3851C39.3341 223.018 44.3262 221.684 49.2752 220.394C49.9207 220.222 50.6093 220.093 51.3839 219.921C51.513 219.921 51.5991 219.878 51.7282 219.878C51.9434 220.652 52.1586 221.383 52.3307 222.115C53.5357 226.545 54.6976 230.889 55.8596 235.19C56.1608 236.265 56.4621 237.341 56.7633 238.416C57.3228 240.524 57.8822 242.674 58.4417 244.782C58.4847 244.868 58.4847 244.954 58.5277 245.04C58.829 246.158 58.9151 247.492 58.6138 248.61C56.5051 256.696 54.3103 264.74 52.1586 272.783C51.9864 273.256 51.8143 273.686 51.5561 274.245C50.8675 274.116 50.265 273.987 49.6625 273.858C47.3386 273.256 45.0147 272.611 42.6908 272.009C38.7746 270.976 34.8584 269.901 30.9422 268.826C31.6738 269.901 32.4054 270.933 33.1801 271.966C37.5696 273.127 41.9162 274.331 46.3058 275.493C47.2525 275.751 48.1993 276.009 49.1031 276.224C49.4043 276.31 49.6625 276.396 49.9638 276.439C50.0498 276.439 50.1359 276.482 50.1789 276.482C51.2118 276.74 52.2016 276.998 53.2344 277.299C53.2344 277.299 53.2344 277.299 53.2344 277.256C53.4926 276.74 53.6648 276.439 53.7509 276.095C56.2469 266.847 58.7429 257.599 61.1529 248.352C61.282 247.922 61.282 247.492 61.282 247.019C61.282 246.932 61.282 246.846 61.282 246.76C61.3681 246.502 61.325 246.072 61.239 245.642ZM87.6625 159.618C87.2752 159.231 86.8018 158.887 86.3284 158.758C86.2854 158.758 86.2424 158.758 86.1993 158.715C86.1563 158.715 86.1563 158.672 86.1133 158.672C82.4983 157.682 78.8833 156.736 75.2684 155.747C74.6659 155.575 74.0634 155.446 73.504 155.274C73.2888 155.747 73.0736 156.048 72.9875 156.349C71.9547 160.22 70.8788 164.048 69.9321 167.919V167.962C69.9321 168.005 69.889 168.091 69.889 168.134C69.7169 168.823 69.889 169.64 70.0612 170.371C70.0612 170.414 70.0612 170.457 70.0612 170.457C70.9219 173.898 71.8686 177.339 72.7724 180.737C72.8154 180.952 72.9015 181.124 72.9875 181.339C73.1167 181.726 73.2458 182.113 73.3749 182.5C73.4179 182.5 73.4609 182.457 73.547 182.457C74.1065 182.328 74.6229 182.156 75.1393 182.027C75.8709 181.855 76.5595 181.683 77.248 181.468C80.0023 180.737 82.9287 180.307 85.4677 179.231C85.7259 179.145 85.9841 179.102 86.2424 179.016C86.6727 178.887 87.1031 178.672 87.3613 178.371C87.5764 178.156 87.7486 177.984 87.9638 177.769C90.2446 176.092 92.0951 173.683 94.1608 171.618C94.4621 171.317 94.7203 171.016 95.0215 170.758C95.7101 170.07 96.3556 169.425 97.0442 168.736C94.0317 165.769 91.2775 163.059 88.5663 160.392C88.265 160.177 87.9638 159.919 87.6625 159.618ZM90.5028 165.855C91.1484 166.672 92.0091 167.36 92.9989 168.177C93.214 168.392 93.4292 168.564 93.6444 168.779C91.0623 171.36 88.7814 173.64 86.5006 175.876C86.4575 175.919 86.3715 176.006 86.3284 176.049C86.2424 176.135 86.1133 176.221 86.0272 176.35C85.9411 176.436 85.855 176.479 85.769 176.522C85.6399 176.608 85.4677 176.694 85.3386 176.737C85.2956 176.737 85.2525 176.78 85.2095 176.78C83.402 177.296 81.5515 177.769 79.701 178.285C78.1948 178.672 76.6455 179.102 75.0532 179.533C74.6659 178.199 74.3647 176.952 73.9773 175.79C73.504 174.07 73.0736 172.349 72.6002 170.672C72.4711 169.425 72.4711 168.134 72.6433 166.887C73.0736 165.296 73.504 163.704 73.9343 162.07C74.3216 160.908 74.6229 159.704 75.0102 158.371C76.3012 158.672 77.5062 159.059 78.7112 159.231C80.3035 159.661 81.8958 160.091 83.4451 160.564C84.9513 161.166 86.3715 161.984 87.6195 163.016C88.222 163.618 88.8245 164.177 89.427 164.779C89.8143 165.123 90.2016 165.425 90.5028 165.855ZM248.356 32.087C249.905 32.4741 251.067 33.2053 252.186 34.3237C254.983 37.2055 257.823 40.0013 260.664 42.797C261.137 43.2702 261.697 43.6573 262.514 44.3455C263.934 42.84 265.225 41.3776 266.602 40.0013C268.711 37.8937 270.691 35.399 273.058 33.6785C272.369 33.1623 271.638 32.6892 270.949 32.173C270.648 32.4741 270.304 32.7322 270.002 33.0763C267.635 35.7 265.053 38.1517 262.471 40.8185C261.74 40.2593 261.18 39.8722 260.707 39.3991C258.512 37.2055 256.231 35.0549 254.122 32.8182C252.616 31.1838 250.938 30.1945 248.743 29.6783C245.128 28.8611 241.556 27.7858 237.812 26.7535C237.898 26.0653 237.941 25.4632 238.07 24.904C238.888 21.8071 239.576 18.7103 240.566 15.6564C240.652 15.3553 240.695 15.0972 240.781 14.7962C239.964 14.4091 239.146 14.0219 238.285 13.6778C238.156 15.0972 237.898 16.5166 237.425 17.9791C236.306 21.334 235.574 24.775 234.67 28.302C235.617 28.603 236.349 28.9041 237.08 29.0762C240.824 30.1085 244.569 31.1838 248.356 32.087ZM241.126 44.3455C242.761 44.7756 244.009 45.5068 245.171 46.7111C250.206 51.8296 255.327 56.905 260.405 61.9374C260.965 62.4966 261.567 62.9697 262.213 63.5719C262.944 62.8837 263.59 62.3245 264.236 61.6793C269.314 56.6039 274.392 51.5285 279.47 46.4531C280.503 45.4208 281.665 44.7756 283.085 44.3885C283.86 44.1734 284.634 43.9584 285.409 43.7863C284.677 43.0981 283.903 42.496 283.128 41.8078C282.741 41.8938 282.31 42.0228 281.923 42.1519C280.417 42.539 279.212 43.2272 278.093 44.3455C273.574 48.9478 268.926 53.5071 264.408 58.1093C263.805 58.7545 263.332 59.5287 262.643 60.475C261.61 59.5287 260.965 58.9696 260.362 58.3674C255.672 53.6791 250.938 48.9908 246.247 44.2594C245.214 43.2272 244.095 42.539 242.632 42.1949C236.306 40.5604 229.937 38.8399 223.61 37.1194C222.793 36.9044 221.932 36.6033 220.899 36.2592C221.114 35.2699 221.33 34.4097 221.545 33.5924C223.223 27.3557 224.815 21.0759 226.58 14.8392C227.01 13.2477 227.053 11.7853 226.623 10.1509C226.537 9.80676 226.408 9.41965 226.322 9.07555C225.375 8.77446 224.471 8.43037 223.524 8.12928C223.74 8.9035 223.912 9.63471 224.127 10.4089C224.514 11.8283 224.514 13.1617 224.127 14.5811C222.19 21.5921 220.383 28.603 218.489 35.614C218.274 36.3452 218.145 37.1194 217.973 38.0227C218.877 38.3238 219.608 38.5818 220.383 38.7539C227.268 40.6464 234.154 42.539 241.126 44.3455ZM335.717 124.907C335.545 125.509 335.416 126.068 335.243 126.714C335.631 126.843 335.975 126.929 336.319 127.015C336.104 126.327 335.889 125.638 335.717 124.907Z" fill="#383838"/>
</svg>
