<svg width="409" height="195" viewBox="0 0 409 195" fill="none" xmlns="http://www.w3.org/2000/svg">
<path d="M-201.968 109.329C-192.164 104.789 -182.12 100.846 -171.718 97.8584C-156.414 93.4375 -132.98 88.4191 -118.154 96.4246C-102.252 105.028 -88.5024 116.498 -74.1548 127.252C-62.1985 136.094 -45.101 147.086 -29.1991 146.369C-19.5145 146.25 -13.2972 143.143 -11.2646 137.408C-8.27554 128.686 -10.069 123.548 -12.2211 120.919C-14.9711 117.335 -19.0362 116.259 -20.9492 116.498C-21.0688 116.498 -21.0688 116.498 -21.1884 116.498C-22.8622 116.618 -24.5361 117.454 -25.3731 119.246C-25.8513 120.322 -25.9709 121.517 -25.4926 122.711C-25.0144 123.787 -24.1774 124.623 -23.1014 124.982C-22.7427 125.101 -22.5036 124.982 -22.384 124.623C-22.2644 124.265 -22.5035 124.026 -22.7427 123.906C-23.5796 123.667 -24.1774 123.07 -24.4166 122.233C-24.7753 121.397 -24.7753 120.561 -24.297 119.724C-23.4601 118.051 -21.5471 117.454 -19.9927 117.693C-19.8732 117.693 -19.634 117.693 -19.5145 117.812C-16.0471 118.529 -14.0146 122.353 -14.2537 125.579C-14.4928 128.925 -17.0036 131.912 -20.3514 132.748C-23.2209 133.346 -26.21 133.107 -28.96 131.792C-34.8186 129.044 -38.2859 121.875 -36.7316 115.542C-35.7751 111.958 -33.5034 108.732 -30.3947 106.581C-25.2535 102.877 -17.9602 102.279 -12.2211 104.908C-11.2646 102.757 -9.59074 100.965 -7.43861 100.129C-3.61259 98.5753 1.16995 100.009 3.56122 103.355C4.27859 104.311 4.75684 105.505 4.87639 106.7C1.76776 106.939 -0.862625 107.776 -3.37346 109.568C-7.07991 112.197 -9.35162 117.454 -8.63425 121.755C-8.15599 124.982 -6.12341 127.849 -3.13432 129.283C-1.69957 130 -0.145248 130.358 1.40907 130.358C2.96339 130.358 4.5177 130 6.07202 129.283C7.26765 128.686 8.94154 127.61 9.89804 125.698C10.8546 124.026 10.8546 121.875 10.1372 120.322C9.30025 118.529 7.38722 117.335 5.59378 117.693C4.63727 117.812 3.68076 118.41 3.08295 119.246C2.48514 120.083 2.24602 121.039 2.36559 121.994C2.36559 122.353 2.72426 122.592 3.08295 122.472C3.44164 122.472 3.68077 122.114 3.56122 121.755C3.44165 121.158 3.68077 120.561 4.03946 119.963C4.39815 119.366 5.11552 119.007 5.71333 118.888C7.02853 118.649 8.46329 119.485 9.0611 120.8C9.65892 121.994 9.53935 123.667 8.82198 125.101C7.98503 126.654 6.55028 127.61 5.47421 128.088C2.96338 129.283 -0.145264 129.283 -2.65608 128.088C-5.16692 126.774 -7.07993 124.265 -7.43861 121.517C-8.03642 117.693 -5.88429 112.794 -2.65608 110.404C-0.264816 108.612 2.36557 107.776 5.59378 107.776C10.0176 107.895 14.3219 110.165 16.9523 113.75C19.1044 116.618 20.1805 120.083 20.3 123.787C20.6587 123.309 21.0174 122.711 21.3761 122.114C32.1368 104.669 44.3322 87.5827 61.5493 75.9926C62.6254 75.2757 64.658 73.7224 64.658 73.7224L76.136 65.9559C79.0055 63.9246 82.3533 61.7739 84.625 58.5478C86.6576 55.7996 88.2119 51.3786 86.538 47.4356C85.1032 44.09 81.3968 41.8198 77.4512 41.7003C74.9404 41.7003 72.5491 42.5367 70.8752 44.09C69.0818 45.8823 68.2448 48.511 68.9622 50.7812C69.3209 51.9761 70.1578 53.0514 71.2339 53.7683C70.0383 53.4099 68.8427 52.693 68.0057 51.6176C66.4514 49.4669 66.2122 47.1967 67.2883 44.9264C69.0818 40.9834 74.1034 38.3547 77.9294 37.9963C81.6359 37.6378 85.5815 38.9522 88.451 41.5808C91.5597 44.329 92.8748 48.511 92.0379 53.0514C90.6031 60.9375 82.8315 65.1195 76.0164 68.8235C74.223 69.7794 72.5491 70.7353 70.9948 71.6911C59.8754 78.6213 52.1038 85.193 46.6039 92.7206C42.6583 98.0974 39.4301 103.952 35.8432 110.524C29.626 122.233 20.7783 132.39 9.53937 140.873C-9.35161 155.211 -39.6011 147.564 -48.3292 144.816C-61.1224 140.873 -75.3504 130 -88.9806 119.366C-104.643 107.178 -119.469 95.7077 -132.023 94.7518C-152.708 93.6764 -178.653 100.248 -201.968 109.329Z" fill="#2B2B2B"/>
<path d="M144.766 162.022C140.103 169.908 131.972 175.404 123.603 176.36C115.951 177.197 107.821 173.971 103.277 168.235C103.636 168.235 103.875 168.116 104.114 167.996C106.505 167.279 108.538 165.607 109.494 163.575C111.288 159.632 109.853 154.495 106.027 151.746C102.56 149.237 97.6576 148.759 93.1142 150.313C88.81 151.866 85.3426 155.331 83.7883 159.513C82.5927 162.62 82.4731 166.085 83.4296 169.311C79.8427 167.638 76.7341 164.89 74.8211 161.305C71.1146 154.375 72.7885 145.055 78.5276 139.678C80.9188 137.408 84.0275 135.974 87.2557 135.257C89.1687 135.138 91.2012 136.213 92.1577 137.886C93.2338 139.917 92.636 142.665 90.8426 144.099C89.0491 145.533 86.1796 145.414 84.5057 143.98C84.2666 143.741 83.9079 143.741 83.6688 144.099C83.4296 144.338 83.4296 144.697 83.6688 144.936C84.7448 145.892 86.2992 146.489 87.7339 146.489C89.0491 146.489 90.4839 146.011 91.5599 145.175C93.8316 143.382 94.549 140.037 93.2338 137.408C92.2773 135.616 90.4839 134.421 88.5708 134.182C88.4513 133.824 88.2122 133.465 88.2122 132.987C86.06 126.296 88.3317 118.529 93.5925 113.989C94.7881 113.033 96.1033 112.197 97.4185 111.48C102.679 109.927 108.897 111.838 112.125 116.259C115.712 120.919 115.473 127.969 111.647 132.27C107.821 136.691 100.647 137.647 95.8642 134.421C93.9512 133.107 91.7991 130.478 92.2773 127.61C92.636 125.699 94.0707 123.906 95.9838 123.428C97.8968 122.831 100.049 123.548 101.364 125.101C101.603 125.34 101.962 125.34 102.201 125.221C102.44 124.982 102.44 124.623 102.321 124.384C100.766 122.472 98.0163 121.636 95.7446 122.353C93.3534 122.95 91.5599 125.101 91.2012 127.491C90.723 130.358 92.3969 133.465 95.2664 135.496C97.299 136.93 99.8098 137.647 102.44 137.647C104.234 137.647 106.147 137.289 107.82 136.572C109.255 141.949 113.201 146.608 118.342 148.879C126.831 152.463 137.233 148.998 142.494 140.634C145.961 135.257 147.037 128.566 145.842 121.636C147.874 126.654 149.189 131.673 149.668 136.452C150.744 145.772 149.07 154.853 144.766 162.022Z" fill="#2B2B2B"/>
<path d="M88.3322 107.656C82.5932 107.537 77.2129 110.524 72.6695 113.989C61.0718 122.831 52.5829 135.257 42.0613 145.294C26.7572 159.871 7.02933 169.55 -13.8942 172.537C-27.8831 174.568 -42.2307 173.612 -55.8608 170.028C-67.8172 166.802 -76.3061 161.305 -85.5125 153.419C-102.012 139.439 -113.012 118.052 -133.816 109.568C-150.316 102.877 -168.848 106.342 -186.185 109.927C-187.022 109.927 -187.978 109.927 -188.935 110.046C-167.652 104.43 -149.24 102.757 -134.055 105.028C-121.621 106.939 -109.425 119.724 -96.3927 133.346C-84.556 145.653 -72.3606 158.438 -59.2086 163.695C-49.2849 167.757 -38.1655 169.669 -27.2853 169.669C-16.405 169.669 -5.88348 167.638 3.20331 163.695C15.2792 158.438 26.1594 150.791 34.4093 141.829C38.3548 137.528 42.0613 132.868 45.6482 128.447C50.5503 122.353 55.5719 116.02 61.311 110.524C81.278 91.6453 113.201 81.8475 133.288 100.846C136.157 103.594 138.668 106.939 140.581 110.524C140.94 111.241 141.418 112.077 141.777 112.794C141.777 112.914 141.896 112.914 141.896 113.033C146.201 122.592 146.081 132.27 141.299 139.678C136.397 147.325 126.473 150.791 118.582 147.445C113.799 145.414 110.093 140.993 108.778 135.735C110.212 135.018 111.408 134.063 112.364 132.868C116.549 128.088 116.788 120.441 112.843 115.303C109.136 110.405 102.082 108.373 96.1038 110.405C94.0713 108.851 91.2018 107.656 88.3322 107.656Z" fill="#2B2B2B"/>
<path d="M173.222 137.05C173.222 137.169 173.222 137.169 173.222 137.169C173.222 137.528 173.222 137.767 173.222 138.125C172.983 147.564 171.548 156.645 167.363 165.129C162.222 175.763 153.135 184.485 142.255 189.145C131.375 193.805 118.821 194.283 107.582 190.579C100.767 188.309 94.4299 184.485 89.8865 178.989C88.2126 176.958 86.8974 174.807 85.8213 172.417C85.5822 171.82 85.3431 171.342 85.1039 170.745C84.9844 170.506 84.9844 170.267 84.8648 170.028C83.6692 166.802 83.6692 163.217 84.9844 160.11C86.4191 156.287 89.6473 153.061 93.7125 151.627C97.7776 150.074 102.321 150.671 105.43 152.822C108.777 155.211 110.093 159.871 108.538 163.217C107.701 165.009 105.908 166.443 103.875 167.041C101.962 167.638 100.049 167.399 98.6146 166.443C98.3755 166.324 97.8972 166.324 97.7776 166.682C97.5385 166.921 97.6581 167.28 98.0168 167.518C99.2124 168.235 100.528 168.594 101.962 168.594C106.267 174.329 113.68 177.914 121.212 177.914C122.049 177.914 122.886 177.914 123.842 177.794C132.57 176.838 141.059 171.103 145.962 162.859C150.385 155.45 152.059 146.011 150.983 136.333C150.027 128.925 147.516 121.039 143.212 113.033C143.212 112.914 143.092 112.914 143.092 112.914C140.94 108.254 137.951 103.833 134.244 100.487C121.929 88.7777 106.745 88.8972 96.3429 91.0479C83.6692 93.6766 70.6368 100.607 60.7131 110.046C54.8545 115.542 49.8328 121.875 44.9307 128.088C41.3438 132.509 37.6374 137.169 33.6918 141.351C25.442 150.193 14.8008 157.721 2.84453 162.859C-14.9704 170.745 -39.1221 170.625 -58.6109 162.739C-71.5237 157.482 -83.5996 144.816 -95.3167 132.629C-108.469 118.888 -120.903 105.864 -133.697 103.952C-151.033 101.324 -172.435 103.833 -197.543 111.36C-197.543 111.36 -197.543 111.36 -197.663 111.36C-199.576 111.719 -201.369 112.197 -203.282 112.555C-182.598 105.267 -155.816 98.5755 -132.62 101.324C-120.664 102.757 -107.154 114.348 -92.8059 126.655C-79.8931 137.767 -66.3825 149.357 -53.111 153.897C-43.7851 157.123 -33.6222 158.796 -23.818 158.796C-12.6987 158.796 -2.05754 156.765 6.55099 152.583C20.5399 145.892 32.2571 135.616 38.4743 124.265C42.5395 116.976 46.7242 109.927 52.7023 103.833C57.9631 98.456 64.0608 93.6766 70.8759 89.7336C80.5605 84.1177 91.4408 80.1747 102.321 78.5019C124.679 75.0369 146.679 82.5644 159.831 98.0975C167.483 107.178 172.146 118.53 172.983 130.359V130.478C173.222 132.629 173.222 134.78 173.222 137.05Z" fill="#2B2B2B"/>
<path d="M167.961 108.134L168.2 108.373L168.081 108.254C168.081 108.134 167.961 108.134 167.961 108.134Z" fill="#2B2B2B"/>
<path d="M268.155 148.759C267.198 150.313 265.764 151.627 264.209 152.344H264.09C262.894 152.941 261.698 153.3 260.383 153.3H260.264C257.035 153.18 254.166 150.91 253.688 147.923C253.449 146.37 254.046 144.816 255.242 143.621C256.318 142.546 257.633 141.949 258.829 142.068C259.188 142.068 259.427 141.829 259.427 141.59C259.427 141.232 259.188 140.993 258.829 140.993C257.155 140.873 255.481 141.59 254.166 142.904C252.731 144.338 252.133 146.37 252.373 148.162C252.851 151.627 256.318 154.495 260.025 154.495H260.144C261.34 154.495 262.535 154.256 263.731 153.778C264.807 158.796 263.611 164.292 260.622 168.713C257.035 174.09 250.818 177.794 243.644 179.109C237.547 180.184 231.688 179.228 227.145 176.48C222.123 173.493 218.656 168.116 218.417 162.859C218.297 158.677 220.21 154.614 223.438 152.105C222.601 153.778 222.482 155.809 222.96 157.482C223.797 160.469 226.666 162.859 230.134 163.456C230.732 163.575 231.329 163.575 232.047 163.575C236.59 163.575 241.134 160.708 243.047 156.406C245.079 151.746 244.123 145.892 240.655 141.71C237.427 137.886 232.047 135.735 226.786 136.094C222.003 136.333 217.101 138.484 213.275 141.949C204.189 141.829 195.221 139.32 187.45 134.899C181.95 131.792 177.048 127.61 173.102 122.711C172.743 120.68 172.146 118.768 171.548 116.857C181.83 131.075 200.482 134.779 216.264 131.553C219.254 130.956 222.123 130.239 224.993 129.642C233.84 127.61 242.21 125.579 251.894 126.296C259.307 126.774 264.448 129.642 267.079 134.899C270.307 140.873 268.992 147.445 268.155 148.759Z" fill="#2B2B2B"/>
<path d="M164.374 102.041C164.135 101.682 163.896 101.324 163.537 100.846C162.7 99.6509 161.744 98.456 160.787 97.3806C147.396 81.4891 124.918 73.842 102.201 77.4266C91.0818 79.0994 80.0819 83.0424 70.2777 88.7777C63.4626 92.7207 57.2454 97.6196 51.865 103.116C45.7673 109.329 41.5826 116.498 37.5175 123.787C31.3002 134.899 19.8221 145.055 6.07237 151.627C-9.94908 159.274 -33.0248 159.752 -52.7527 152.941C-65.9046 148.401 -79.1761 136.93 -92.0889 125.938C-106.437 113.272 -120.186 101.563 -132.621 100.129C-156.175 97.2611 -183.196 104.072 -204 111.36C-180.207 101.921 -153.305 94.752 -131.784 96.3053C-119.708 97.1417 -105.002 108.612 -89.4585 120.68C-75.7088 131.314 -61.4808 142.307 -48.4484 146.25C-43.5463 147.803 -32.0683 150.791 -19.6337 150.791C-9.35127 150.791 1.7681 148.759 10.4962 142.068C21.8547 133.465 30.8219 123.07 37.1588 111.241C40.6261 104.789 43.8543 98.9339 47.7999 93.5571C53.1802 86.2685 60.8323 79.6968 71.8321 72.8861C73.3864 71.9303 75.0603 71.0939 76.7342 70.138C83.7884 66.3145 91.9187 61.8935 93.3534 53.5295C94.1904 48.6306 92.7556 43.9707 89.4078 40.9836C86.2992 38.2354 81.9949 36.8016 77.9298 37.16C73.7451 37.5185 68.3647 40.5056 66.3322 44.8071C65.1366 47.4358 65.3757 50.1839 67.1691 52.6931C68.9626 55.2023 72.4299 56.1582 74.9407 54.9633C75.1798 54.8439 75.2994 54.4854 75.2994 54.2464C75.1798 54.0075 74.9407 53.7685 74.582 53.7685C72.669 54.0075 70.756 52.6931 70.1582 50.7814C69.5604 48.9891 70.2778 46.7189 71.7125 45.285C73.1473 43.9707 75.1798 43.1343 77.4515 43.2538C80.9189 43.2538 84.1471 45.285 85.4623 48.1527C87.0166 51.6178 85.5818 55.5608 83.7884 58.07C81.6363 61.0571 78.5276 63.0883 75.5385 65.1196L63.5822 73.2446C59.7562 70.9744 56.6476 67.3898 55.4519 63.0883C54.2563 58.4284 55.6911 53.1711 59.0388 49.945C57.2454 48.0332 56.1693 45.285 56.528 42.6564C57.0063 39.4303 59.3975 36.6821 62.3866 35.4872C62.3866 35.3678 63.104 35.1288 63.5822 35.1288C64.8974 35.2483 66.3322 35.9652 67.0496 37.0406C67.1691 37.16 67.4083 37.2795 67.5278 37.2795C67.6474 37.2795 67.7669 37.2795 67.8865 37.16C68.1256 36.9211 68.2452 36.5626 68.0061 36.3236C66.93 34.8898 65.3757 34.0534 63.5822 33.9339C63.104 33.9339 62.5062 33.9339 62.0279 34.0534C61.7888 32.9781 61.6692 31.7832 61.7888 30.5883C62.267 23.6582 68.2452 17.8034 74.9407 16.0111C78.4081 15.1747 82.1145 15.1747 85.3427 16.6086C87.4948 17.5644 89.2883 19.2372 90.3643 21.2685C90.7231 22.1049 91.0817 22.9413 91.0817 23.8972C91.2013 25.4505 90.6035 27.1233 89.5274 28.3181C88.5709 29.513 87.1361 30.2299 85.821 30.2299C84.3862 30.2299 83.071 29.274 82.7123 28.0792C82.4732 27.4817 82.5927 26.7648 82.9514 26.0479C83.3102 25.4505 83.7884 25.092 84.2667 25.092C84.6253 24.9725 84.7449 24.7336 84.7449 24.3751C84.6253 24.0167 84.3862 23.7777 84.0275 23.8972C83.1906 24.1361 82.3536 24.6141 81.8754 25.4505C81.2776 26.4064 81.158 27.4817 81.5167 28.4376C81.9949 30.1104 83.908 31.4247 85.821 31.4247C87.4948 31.4247 89.1687 30.4689 90.4839 29.035C91.6796 27.6012 92.2774 25.6894 92.2774 23.7777C92.2774 22.5828 91.9187 21.5075 91.3209 20.4321C92.5165 19.7152 93.9512 19.1178 95.386 18.9983C99.212 18.7593 102.918 21.149 104.712 24.4946C103.277 25.331 102.201 26.1674 101.005 27.4817C98.7338 29.9909 97.4186 33.3365 97.6577 36.6821C97.8969 40.1472 99.6903 43.3733 102.321 45.285C103.995 46.4799 106.027 46.9578 107.94 46.9578C109.375 46.9578 110.69 46.5994 112.005 46.0019C115.114 44.4486 117.146 41.1031 117.027 37.7575C116.907 35.9652 116.19 34.2924 114.994 33.3365C113.56 32.1417 111.527 31.7832 110.092 32.6196C109.255 33.0975 108.658 33.9339 108.418 34.8898C108.179 35.8457 108.299 36.6821 108.777 37.399C108.897 37.638 109.375 37.7575 109.614 37.638C109.853 37.5185 109.973 37.0406 109.853 36.8016C109.614 36.3236 109.494 35.8457 109.734 35.2483C109.853 34.6508 110.331 34.0534 110.929 33.695C112.005 33.0975 113.44 33.3365 114.516 34.2924C115.473 35.1288 116.07 36.4431 116.19 37.8769C116.31 40.7446 114.636 43.7317 111.886 45.0461C109.255 46.3604 105.908 46.0019 103.397 44.3292C101.005 42.6564 99.3316 39.7887 99.212 36.6821C99.0925 33.695 100.169 30.7078 102.321 28.4376C103.875 26.7648 105.19 25.9284 107.342 24.853C111.886 23.1803 117.147 24.4946 120.853 27.6012C124.679 30.8273 126.831 35.8457 127.07 40.8641C127.309 44.2097 126.712 47.5553 125.157 50.5424C124.918 51.0203 124.559 51.6178 124.201 52.0957C121.809 49.2281 117.744 48.5111 114.516 48.9891C111.647 49.467 109.255 50.7814 107.701 52.8126C105.908 55.0828 105.549 58.1894 106.625 60.4597C107.581 62.6104 109.853 64.0442 112.005 64.0442C112.484 64.0442 112.962 63.9247 113.56 63.8053C114.875 63.3273 116.07 62.252 116.668 60.8181C117.147 59.5038 117.146 58.07 116.429 56.8751C115.831 55.7997 114.875 55.2023 113.799 55.2023C113.201 55.2023 112.484 55.4413 112.005 55.9192C111.647 56.3972 111.407 56.8751 111.407 57.4725C111.407 57.831 111.766 58.07 112.005 58.07C112.364 58.07 112.603 57.7115 112.603 57.4725C112.603 57.2336 112.723 56.9946 112.842 56.8751C113.081 56.6361 113.44 56.5167 113.679 56.5167C114.277 56.5167 114.875 56.9946 115.233 57.592C115.712 58.4284 115.712 59.3843 115.353 60.4597C114.875 61.535 114.038 62.4909 112.962 62.7299C110.929 63.3273 108.418 62.1325 107.462 60.1012C106.505 58.1894 106.984 55.5608 108.418 53.649C109.734 51.9762 112.005 50.6619 114.516 50.3034C117.505 49.8255 121.212 50.6619 123.244 53.1711C124.32 54.6049 125.038 56.2777 125.277 58.07C125.396 59.2648 125.396 60.4597 125.157 61.6545C135.559 63.2078 145.722 66.5534 155.048 71.6913C162.341 77.3071 170.113 82.5645 178.004 87.1049C186.493 92.0038 198.33 97.9781 210.645 97.9781C213.514 97.9781 216.503 97.6196 219.373 96.9027C229.895 94.1545 238.623 85.7906 241.492 75.5148C244.481 65.0001 241.133 53.1711 233.242 46.0019C228.34 41.581 222.003 39.3108 215.667 39.0718C224.155 37.5185 236.71 37.5185 247.59 46.1214C257.394 53.888 263.253 66.0755 262.655 77.9045C262.296 85.5516 259.785 93.1986 255.361 100.009C255.361 100.009 255.361 100.129 255.242 100.129C252.851 103.713 250.101 107.059 246.753 110.046C235.155 120.561 218.895 125.818 203.352 124.026C187.689 121.995 172.863 113.75 164.374 102.041Z" fill="#2B2B2B"/>
<path d="M356.87 58.4284C356.751 58.1894 356.631 57.831 356.392 57.592C364.761 55.5607 374.805 57.7115 380.663 62.7298C386.522 67.8677 392.022 80.0552 386.163 91.4063C386.044 91.6453 386.044 91.8843 386.283 92.1232C393.935 98.9339 395.848 111.121 390.826 119.963C385.924 128.447 374.805 132.39 365.001 129.164C364.761 129.044 364.642 129.164 364.403 129.283C364.283 129.403 364.164 129.642 364.164 129.761C364.881 137.169 359.381 144.697 352.207 146.37C344.914 148.042 336.784 143.502 334.273 136.452C334.153 136.213 333.914 136.094 333.675 136.094C325.545 136.691 317.175 131.553 314.306 123.906C311.436 116.259 314.067 106.82 320.523 101.921C324.947 98.5754 331.762 97.1416 336.784 98.456C338.577 98.9339 340.131 99.6508 341.208 100.846C340.251 100.487 339.055 100.487 337.86 100.607C334.99 100.965 332.479 102.877 331.403 105.267C329.251 110.046 331.643 115.542 334.751 118.529C337.979 121.636 342.523 123.309 347.186 123.309C350.294 123.309 353.523 122.592 356.273 120.919C362.848 117.215 366.914 109.329 366.435 101.443C365.957 93.9155 361.414 86.7464 354.599 82.6839C350.175 79.9357 344.794 78.6214 339.414 78.7409C340.49 78.5019 341.566 78.2629 342.642 78.024C348.501 76.8291 353.642 75.7537 356.87 70.0184C358.783 66.7923 358.305 61.4155 356.87 58.4284Z" fill="#2B2B2B"/>
<path d="M409 109.21C409 119.366 403.022 129.283 394.055 134.182C387.24 137.767 378.99 138.364 371.697 135.974C371.936 141.949 369.903 148.042 365.838 152.583C360.458 158.676 351.61 161.664 343.599 159.991C337.621 158.796 332.241 155.092 329.371 149.715C328.534 148.042 327.817 146.25 327.578 144.338C322.437 144.219 317.176 142.188 313.469 138.603C307.73 133.107 305.698 124.384 308.089 116.857C298.883 121.517 288.122 122.95 277.959 120.919C279.514 122.831 280.948 124.862 282.024 127.132C285.133 133.226 286.209 140.395 284.057 146.847C282.503 151.627 279.274 155.689 274.97 158.438C278.677 161.544 280.47 167.16 279.633 172.059C278.438 179.586 272.459 186.158 265.046 187.95C259.786 189.265 254.047 188.07 249.503 185.083C249.384 185.441 249.264 185.8 249.145 186.039C248.068 188.428 245.916 190.221 243.645 191.654C239.579 194.164 234.677 195.478 229.895 195C225.112 194.522 220.569 192.013 217.939 187.95C216.623 185.919 215.906 183.649 215.786 181.259C214.232 180.662 212.797 179.706 211.482 178.511C208.613 176.002 206.819 172.537 205.743 168.833C203.95 162.381 205.026 155.211 208.493 149.596C209.928 147.206 211.721 145.175 213.754 143.502C213.873 143.382 213.993 143.263 214.113 143.143C214.471 142.904 214.71 142.665 215.069 142.426H214.95C218.417 139.559 222.602 137.886 226.786 137.767C231.808 137.528 236.71 139.559 239.699 143.024C242.927 146.728 243.764 152.105 241.971 156.406C240.058 160.827 234.917 163.575 230.493 162.739C227.504 162.142 224.993 160.11 224.275 157.601C223.558 155.211 224.515 151.866 226.906 150.671C227.025 150.671 227.145 150.551 227.265 150.551C227.504 150.432 227.623 150.193 227.623 149.954C227.623 149.954 227.623 149.954 227.623 149.835V149.715C227.504 149.357 227.145 149.237 226.906 149.357C226.906 149.357 226.786 149.357 226.786 149.476C226.667 149.476 226.547 149.596 226.428 149.596C220.928 151.627 217.221 157.362 217.46 163.336C217.699 169.191 221.286 174.807 226.786 178.033C230.373 180.064 234.558 181.14 239.101 181.14C240.775 181.14 242.449 181.02 244.123 180.662C251.536 179.347 257.992 175.404 261.818 169.789C265.046 165.009 266.242 159.035 265.046 153.658C266.601 152.702 268.036 151.507 268.992 149.835C270.068 148.162 271.383 141.112 268.155 134.899C266.242 131.075 261.818 126.296 252.014 125.699C242.09 124.982 233.721 127.013 224.754 129.044C222.004 129.761 219.015 130.358 216.026 130.956C198.091 134.54 176.331 129.164 168.2 108.971C168.2 108.851 168.081 108.851 168.081 108.851C177.048 117.812 189.722 124.026 203.113 125.579C205.265 125.818 207.297 125.938 209.45 125.938C223.319 125.938 237.188 120.68 247.471 111.36C250.579 108.493 253.329 105.267 255.601 101.921C259.666 108.254 266.601 112.555 273.894 113.272C285.97 114.347 296.731 106.7 304.741 99.7702C305.817 98.8143 307.013 97.8585 308.089 96.9026C315.263 90.6893 322.556 84.2371 331.524 81.6085H331.643C332.002 81.489 332.36 81.3695 332.719 81.3695C340.132 79.4577 347.784 80.5331 353.882 84.1177C360.338 88.0607 364.643 94.8713 365.121 101.921C365.599 109.329 361.773 116.737 355.556 120.202C349.219 123.787 340.61 122.831 335.469 117.932C332.6 115.184 330.328 110.285 332.36 105.983C333.317 103.952 335.469 102.399 337.86 102.04C339.893 101.682 341.686 102.279 342.762 103.594C342.882 103.713 343.002 103.833 343.241 103.833C343.36 103.833 343.36 103.833 343.48 103.833H343.599C343.599 103.833 343.599 103.833 343.719 103.833C343.839 103.713 343.958 103.594 343.958 103.355C343.958 103.235 343.958 103.235 343.958 103.116C342.762 100.368 340.371 98.5754 337.023 97.739C331.643 96.4246 324.469 97.978 319.806 101.443C312.872 106.7 310.002 116.737 313.111 124.743C316.1 132.748 324.708 138.244 333.197 137.767C335.589 144.099 342.404 148.401 349.099 148.401C350.175 148.401 351.251 148.281 352.327 148.042C359.86 146.369 365.599 138.722 365.24 131.075C375.284 134.062 386.523 129.881 391.664 121.158C396.925 111.958 395.012 99.4118 387.24 92.2426C393.099 80.5331 387.359 67.8677 381.262 62.6103C375.045 57.2335 364.284 54.9632 355.556 57.3529C354.001 55.4412 351.849 54.1268 349.099 53.4099C345.632 52.5735 342.165 53.4099 339.893 55.4412C337.263 57.8309 336.665 61.8934 338.578 64.6415C339.534 66.0754 341.208 67.0313 343.121 67.1507C344.795 67.2702 346.469 66.6728 347.425 65.5974C347.665 65.3585 347.665 65 347.425 64.761C347.186 64.5221 346.828 64.5221 346.588 64.761C345.752 65.5974 344.556 66.0754 343.241 65.9559C341.686 65.8364 340.371 65 339.534 63.9246C338.1 61.6544 338.578 58.3088 340.73 56.2776C342.762 54.3658 345.871 53.7684 348.86 54.4853C352.088 55.3217 354.36 56.9945 355.675 59.6232C356.99 62.2518 357.469 67.1507 355.795 70.0184C352.806 75.3952 348.143 76.2316 342.284 77.4265C338.936 78.1434 335.23 78.8603 331.165 80.5331C321.958 83.2813 314.546 89.7335 307.372 96.0662C306.296 97.0221 305.1 97.978 304.024 98.9338C296.252 105.625 285.731 113.153 274.133 112.077C267.079 111.36 260.264 107.178 256.438 100.846C260.862 93.9155 263.492 86.1489 263.851 78.3824C264.449 66.1949 258.47 53.6489 248.308 45.6434C233.004 33.5754 213.276 37.6379 204.906 41.3419C204.308 41.5809 203.711 41.8199 203.113 42.1783C193.428 46.9577 187.45 58.5478 189.243 68.943C190.08 73.8419 192.95 79.8162 198.569 81.9669C201.439 83.0423 204.906 82.8033 207.776 81.25C210.167 79.9357 211.721 77.9044 212.2 75.3952C212.319 75.0368 212.08 74.7978 211.721 74.6783C211.363 74.6783 211.123 74.7978 211.004 75.1563C210.645 77.1875 209.21 78.9798 207.178 80.1746C204.667 81.6085 201.558 81.8474 198.928 80.8915C193.667 78.8603 191.037 73.2445 190.319 68.704C188.646 58.7868 194.385 47.7941 203.591 43.1342C204.189 42.8952 204.787 42.5368 205.384 42.2978C205.384 42.2978 205.384 42.2978 205.504 42.2978C214.352 38.8327 225.112 40.7445 232.406 47.3162C240.058 54.1268 243.166 65.478 240.297 75.5147C237.427 85.3125 229.058 93.4375 219.015 96.0662C204.308 99.8897 188.885 92.3621 178.602 86.3879C170.472 81.6085 162.581 76.3511 155.048 70.4963C153.374 63.2077 154.211 55.3217 157.679 48.6305C161.744 40.7445 169.396 35.0092 178.005 32.739C183.504 31.1857 187.928 31.7831 191.874 34.4118C191.993 34.4118 192.113 34.5313 192.233 34.5313C192.472 34.5313 192.591 34.4118 192.711 34.2923C192.95 34.0533 192.83 33.6949 192.591 33.4559C188.287 30.5882 183.504 29.9908 177.765 31.6636C177.646 31.3052 177.646 30.9467 177.646 30.7077C177.407 26.8842 179.439 23.1802 182.428 20.7904C185.776 17.9228 190.2 16.7279 194.624 16.9669C195.341 14.4577 196.656 12.068 198.33 10.1563C202.993 4.8989 210.047 2.38971 216.982 1.31434C226.188 -0.238966 236.112 0.477946 243.764 5.7353C249.145 9.31986 253.09 15.6526 253.568 21.9853C256.318 19.5956 260.025 18.2813 263.612 18.7592C270.068 19.5956 275.209 25.2114 276.285 31.5441C276.644 33.3364 276.644 35.1287 276.285 36.921C276.166 37.8768 275.927 38.7132 275.688 39.5496V39.6691C275.568 40.0276 275.448 40.386 275.329 40.7445C275.209 41.2224 274.97 41.7004 274.851 42.1783C274.133 43.8511 272.938 45.046 271.503 45.5239C270.546 45.8824 269.47 45.8824 268.275 45.6434C266.959 45.4044 266.003 44.6875 265.286 43.8511C264.568 42.8952 264.329 41.7004 264.688 40.7445C265.046 39.7886 266.123 39.0717 267.079 39.3107C267.438 39.3107 267.677 39.1912 267.796 38.8327C267.796 38.4743 267.677 38.2353 267.318 38.1158C265.764 37.7574 264.09 38.7132 263.492 40.2666C263.014 41.5809 263.253 43.2537 264.21 44.568C265.046 45.6434 266.362 46.3603 267.916 46.7188C268.514 46.8382 268.992 46.9577 269.59 46.9577C270.427 46.9577 271.144 46.8382 271.862 46.5993C273.535 46.0018 274.97 44.568 275.807 42.5368C276.046 41.9393 276.285 41.3419 276.524 40.625C283.34 40.7445 290.155 43.1342 295.415 47.5552C297.568 49.3474 299.481 51.4982 300.915 53.7684C300.915 53.8879 300.915 53.8879 301.035 53.8879C306.415 62.1324 306.415 73.125 301.035 81.3695C297.926 86.2684 293.144 89.853 287.883 91.1673C282.024 92.7206 275.688 91.1673 271.981 87.5827C268.036 83.6397 267.677 77.307 271.264 73.4835C272.938 71.6912 276.166 70.1379 279.035 71.0938C281.068 71.8107 282.622 73.8419 282.503 75.8732C282.383 77.9044 280.709 79.8162 278.557 80.2941C278.198 80.4136 278.079 80.6526 278.079 81.011C278.198 81.3695 278.438 81.489 278.796 81.489C281.427 80.7721 283.459 78.5018 283.579 75.9927C283.698 73.4835 281.905 70.9743 279.274 70.0184C276.405 69.0625 272.699 70.1379 270.307 72.6471C266.362 76.9485 266.72 83.9982 271.144 88.2996C274.133 91.2868 278.557 92.8401 283.22 92.8401C284.894 92.8401 286.448 92.6011 288.122 92.2426C293.622 90.8088 298.644 87.1048 301.991 81.9669C306.176 75.5147 307.133 67.5092 305.1 60.2206C306.057 59.6232 307.133 59.2647 308.209 58.9063C310.241 58.3088 312.393 58.1893 314.426 58.5478V58.4283C318.73 59.3842 322.556 62.6103 324.111 66.6728C325.067 69.0625 325.187 71.4522 324.469 73.4835C323.752 75.7537 321.958 77.546 319.926 78.1434C317.774 78.7408 315.263 77.7849 314.187 75.9927C313.709 75.0368 313.47 73.8419 313.828 72.7665C314.187 71.6912 314.785 70.9743 315.622 70.4963C315.861 70.3768 315.98 70.0184 315.861 69.6599C315.741 69.3015 315.383 69.3015 315.024 69.421C313.948 70.0184 313.111 71.0938 312.633 72.4081C312.154 73.8419 312.393 75.3952 313.111 76.5901C314.187 78.3824 316.339 79.5772 318.491 79.5772C319.089 79.5772 319.567 79.4577 320.165 79.3382C322.676 78.6213 324.708 76.5901 325.545 73.9614C326.263 71.6912 326.143 68.943 325.187 66.3143C323.513 61.8934 319.328 58.4283 314.665 57.3529C316.219 51.9761 319.209 46.9577 323.274 43.2537C330.208 36.921 340.132 34.1728 349.219 35.9651C355.675 37.1599 362.012 40.9835 365.001 46.8382C365.719 48.1526 366.077 49.4669 366.436 51.0202C372.414 49.4669 378.871 49.8254 384.49 52.4541C393.935 56.7555 400.392 66.7923 400.99 77.068C401.229 81.9669 400.272 86.7463 398.359 91.2868C400.631 92.4816 402.544 94.1544 404.098 96.1857C407.685 99.2923 409 104.311 409 109.21Z" fill="#2B2B2B"/>
</svg>
