<svg width="857" height="526" viewBox="0 0 857 526" fill="none" xmlns="http://www.w3.org/2000/svg">
<path d="M301.706 399.213C300.149 408.208 294.613 414.781 287.002 417.548C278.179 420.662 267.454 417.721 261.572 410.283C260.015 408.381 258.804 406.132 257.593 403.884C256.901 402.673 256.383 401.635 255.691 400.424C253.096 396.1 250.328 393.505 247.041 392.122C246.176 391.776 245.311 391.43 244.446 391.257C244.619 391.084 244.619 391.084 244.792 390.911C247.041 388.835 249.982 387.279 252.923 386.414C256.728 386.068 259.496 386.76 261.399 388.489C263.475 390.392 264.859 392.987 266.243 395.754C266.762 396.619 267.108 397.657 267.627 398.522C270.914 404.748 279.217 410.111 286.137 408.208C291.845 406.651 295.824 400.597 294.959 394.716C294.613 392.122 293.402 389.873 291.672 388.489C289.596 386.76 286.829 386.414 284.753 387.279C283.715 387.797 282.85 388.489 282.331 389.7C282.158 387.625 282.85 385.376 284.234 383.819C286.483 381.398 290.288 380.533 293.575 381.744C296.689 382.781 299.457 385.376 300.841 388.835C302.225 391.776 302.398 395.408 301.706 399.213Z" fill="#2B2B2B"/>
<path d="M162.622 419.451C161.93 414.435 161.066 410.283 160.028 406.478V406.305C157.606 398.003 153.8 392.122 146.361 383.992C146.015 383.646 146.015 383.127 146.361 382.781C146.534 382.608 146.88 382.435 147.226 382.608C145.67 380.533 143.767 378.803 141.518 377.246C138.923 375.344 135.809 373.787 132.695 372.922C132.349 371.365 131.83 369.636 131.311 368.079C126.295 353.549 114.359 341.269 100.173 335.042C80.4527 326.393 57.2722 328.296 37.2055 336.253C29.94 339.193 22.8475 342.998 17.1388 348.36C14.717 350.609 12.6411 353.204 10.9112 355.971L10.7382 356.144C4.85661 366.868 6.41351 381.398 14.544 390.565C18.8687 395.408 24.5774 398.522 30.286 398.867C36.5136 399.386 42.7412 396.446 45.855 391.603C49.1418 386.414 48.4498 379.149 44.2981 375.344C42.2222 373.268 38.9354 372.403 35.8216 372.576C32.8808 372.922 30.286 374.133 28.9021 376.381C28.5561 376.727 28.0371 376.9 27.6911 376.554C27.3452 376.208 27.1722 375.69 27.5182 375.344C29.248 372.922 32.3618 371.192 35.6486 370.846C39.2814 370.5 43.0871 371.711 45.509 373.96C47.2389 375.517 48.2768 377.592 48.9688 379.668C61.424 372.576 76.474 370.328 90.3131 373.787C98.4436 375.69 105.19 379.495 109.861 384.511C116.434 391.603 116.607 399.559 115.396 405.267C121.97 405.786 126.641 408.381 129.755 413.224C136.155 423.083 132.868 440.207 129.409 448.683C125.257 458.542 117.126 465.634 108.131 467.017C107.093 467.19 106.228 467.19 105.19 467.19C96.1947 467.19 87.8913 460.618 86.3344 452.142V451.969C86.3344 451.45 86.5073 451.104 87.0263 450.931C87.1993 450.931 87.1993 450.931 87.3723 450.931C87.3723 450.931 87.3723 450.931 87.5453 450.931C90.8321 452.315 94.6378 451.796 98.2706 449.548C102.249 446.953 104.671 442.802 104.844 438.65C104.844 435.018 103.287 431.213 100.346 428.272C97.0597 424.986 92.7349 423.256 88.4102 423.256C80.2798 423.429 72.4953 430.002 70.2464 438.304C67.9975 446.088 70.2464 455.255 75.782 462.347C82.0096 470.131 90.8321 474.282 97.2327 476.185C116.088 482.066 137.193 477.396 149.821 464.423C160.374 453.526 165.217 436.575 162.622 419.451ZM226.801 457.85C226.455 457.504 226.282 456.985 226.628 456.639C232.683 447.818 233.202 435.191 227.839 426.024C222.477 416.683 211.232 410.975 200.507 412.013C196.182 412.359 192.204 413.916 188.917 416.164C187.014 417.548 185.284 419.105 184.073 421.008C180.094 426.543 179.921 433.807 183.208 438.996C186.841 444.358 194.625 446.261 199.642 442.975C202.583 441.072 204.832 436.748 203.275 433.288C202.583 431.559 200.853 430.348 198.777 430.002C197.047 429.829 195.49 430.175 194.625 431.386C194.279 431.732 193.76 431.732 193.414 431.559C193.068 431.213 193.068 430.694 193.241 430.348C194.625 428.791 196.701 428.099 198.95 428.445C201.545 428.791 203.967 430.521 204.832 432.769C206.735 437.267 204.14 442.283 200.507 444.531C194.625 448.337 185.803 446.261 181.651 440.034C177.845 434.326 178.191 426.197 182.516 420.143C183.9 418.24 185.457 416.683 187.36 415.3C187.187 413.224 186.495 411.321 185.457 409.419C183.554 406.305 180.44 403.711 176.98 402.5C172.656 400.943 167.639 401.808 163.833 404.575C162.968 405.267 162.103 405.959 161.412 406.651C162.449 410.283 163.314 414.435 164.006 419.451C166.601 437.094 161.585 454.564 150.513 466.153C141.172 475.666 127.333 481.028 113.148 481.028C107.439 481.028 101.73 480.163 96.1947 478.433C86.6803 475.493 79.0688 470.477 73.8792 463.904C67.9975 456.293 65.7487 446.607 67.9975 438.304C70.5924 428.964 78.8958 422.218 87.8913 422.045C92.562 421.872 97.5786 423.948 101.038 427.407C104.325 430.694 106.055 434.845 106.055 438.996C105.882 443.667 103.114 448.51 98.7896 451.45C95.3298 453.699 91.524 454.564 88.0642 453.526C90.3131 461.482 98.9625 467.19 107.612 465.807C116.088 464.423 123.7 457.85 127.506 448.337C130.965 440.207 134.079 423.948 128.025 414.435C125.084 409.938 120.413 407.516 114.013 407.17C113.667 407.17 113.494 406.997 113.321 406.824C113.148 406.651 113.148 406.305 113.148 406.132C115.223 398.176 113.494 391.43 108.304 385.895C103.806 381.052 97.4056 377.592 89.6211 375.69C76.128 372.403 61.424 374.652 49.1418 381.743C49.8337 385.376 49.1418 389.527 47.0659 392.814C43.7791 397.83 37.8975 400.943 31.3239 400.943C30.8049 400.943 30.286 400.943 29.767 400.943C23.5394 400.424 17.4848 397.138 12.8141 391.949C5.20259 383.3 3.12673 370.155 7.10547 359.43C-3.61983 358.22 -14.8641 361.506 -22.8216 368.771C-30.4331 375.863 -34.5848 386.587 -34.2389 396.965C-33.2009 405.094 -29.0492 413.051 -22.8216 418.413C-22.4756 418.759 -22.4756 419.278 -22.6486 419.624C-22.8216 419.797 -22.9946 419.97 -23.3406 419.97C-23.5136 419.97 -23.6865 419.97 -23.8595 419.797C-30.2601 414.262 -34.5848 406.478 -35.7958 398.176C-39.6015 397.484 -43.5803 397.138 -47.559 397.657C-61.9171 399.213 -75.0642 408.554 -81.8108 421.354C-88.5573 434.153 -89.0763 449.893 -83.7137 463.385C-78.697 476.531 -67.9717 487.774 -54.3056 491.579C-43.7532 494.52 -31.817 492.271 -23.3406 485.525C-20.3998 482.931 -18.1509 479.817 -16.767 476.358C-14.6911 470.996 -14.8641 464.942 -17.286 460.099C-19.8808 455.083 -25.0704 451.45 -30.4331 450.931C-35.9687 450.412 -41.6774 453.526 -44.0992 458.369C-45.6561 461.655 -45.6561 465.288 -44.0992 467.882C-42.3693 470.65 -38.3906 471.688 -35.7958 470.131C-35.4498 469.785 -34.9308 469.958 -34.5848 470.477C-34.2389 470.823 -34.4118 471.342 -34.9308 471.688C-38.2176 473.763 -43.2343 472.38 -45.4831 468.92C-47.559 465.807 -47.559 461.482 -45.6561 457.677C-42.8883 452.315 -36.6607 448.856 -30.2601 449.375C-24.3785 449.893 -18.6699 453.872 -15.7291 459.407C-13.1342 464.596 -12.7882 471.342 -15.0371 477.05C-16.421 480.509 -18.6699 483.795 -21.4377 486.39C-12.2693 499.882 2.95374 509.395 19.2147 511.471C31.1509 513.027 43.2601 510.433 53.8125 504.725H53.9854C61.078 499.882 66.4406 493.136 68.8625 485.871C71.6303 477.569 70.5924 468.401 66.0947 461.655C61.251 454.564 52.4285 450.412 44.644 451.796C36.1676 453.18 29.421 460.618 29.0751 468.574C28.9021 473.936 31.6699 479.125 35.9946 481.201C38.2435 482.239 41.1843 482.412 43.7791 481.374C46.028 480.509 47.7579 478.952 48.4498 477.05C48.6228 476.531 49.1418 476.358 49.4877 476.531C50.0067 476.704 50.1797 477.223 50.0067 477.569C48.9688 479.99 47.0659 481.893 44.2981 482.931C41.3573 484.141 37.8975 483.968 35.1297 482.758C30.286 480.336 26.9992 474.801 27.1722 468.574C27.5182 459.753 34.9567 451.623 44.1251 450.066C52.7745 448.683 62.1159 453.007 67.3056 460.618C72.1493 467.882 73.1872 477.396 70.2464 486.39C68.8625 490.368 66.9596 494.001 64.1918 497.46C65.2297 496.595 66.0947 495.73 66.9596 494.866C77.166 489.676 88.0643 486.217 99.4815 487.947C109.688 489.503 118.856 495.384 128.371 499.19C138.058 503.168 149.475 505.071 157.779 499.363C162.276 496.249 165.044 491.406 167.985 486.736C167.466 482.931 167.985 479.298 169.369 476.012C171.618 470.65 175.943 466.326 181.305 464.769C186.841 463.039 193.241 464.423 197.22 468.401C201.545 472.379 203.102 478.952 200.853 484.141C199.469 487.428 196.355 490.887 192.031 490.887C190.128 490.887 188.398 490.195 187.187 488.812C189.782 501.957 199.296 504.725 209.329 505.417C220.574 506.282 231.991 499.017 235.97 488.466C240.294 477.569 236.143 464.942 226.801 457.85ZM354.121 440.726C352.045 437.959 349.104 435.71 345.991 434.326C347.547 431.386 348.585 428.099 348.931 424.813C349.45 418.067 347.374 410.975 342.704 406.132C338.033 401.289 330.595 399.04 324.194 400.943C323.156 401.289 322.118 401.808 321.08 402.327C320.907 396.446 319.177 390.738 316.064 385.895C311.047 377.765 301.878 372.403 292.364 372.23C282.85 372.23 273.335 377.765 269.53 386.587C269.184 387.279 269.011 387.97 268.838 388.662C266.416 387.451 263.994 386.587 261.226 386.068C261.745 386.414 262.437 386.76 262.956 387.279C265.378 389.527 266.762 392.295 268.146 395.062C268.665 395.927 269.011 396.965 269.53 397.83C272.643 403.538 279.909 408.381 285.963 406.651C290.807 405.267 294.267 399.905 293.575 395.062C293.229 392.987 292.364 391.084 290.98 390.046C289.423 388.835 287.347 388.489 285.79 389.008C284.234 389.7 283.888 391.603 284.234 393.159C284.407 393.505 284.061 394.024 283.715 394.197C283.369 394.37 282.85 394.197 282.677 394.024C280.255 390.911 280.601 385.722 283.542 382.608C286.309 379.841 290.807 378.63 294.786 380.014C298.419 381.225 301.532 384.165 303.089 388.143C304.473 391.43 304.819 395.408 304.127 399.559C302.397 409.073 296.516 416.337 288.212 419.278C285.617 420.143 283.023 420.662 280.255 420.662C272.816 420.662 265.378 417.375 260.707 411.494C259.15 409.419 257.766 407.17 256.555 404.921C255.863 403.884 255.344 402.673 254.652 401.635C252.231 397.657 249.809 395.235 246.868 394.024C245.657 393.505 244.446 393.159 243.062 392.987C242.197 393.332 241.159 393.678 240.64 393.678C237.527 393.159 234.586 391.43 232.683 389.008C229.223 388.662 225.763 389.008 222.477 389.7C221.439 390.046 220.401 390.219 219.363 390.738C214 379.495 203.794 370.328 191.685 367.387C175.943 363.755 158.471 371.019 148.956 383.992C155.53 391.43 159.163 397.138 161.757 404.748C162.276 404.23 162.968 403.711 163.66 403.192C167.985 400.078 173.521 399.213 178.364 400.77C182.17 402.154 185.63 404.921 187.706 408.381C188.744 410.111 189.436 412.013 189.782 414.089C193.068 412.013 196.874 410.802 201.026 410.456C212.443 409.419 224.206 415.3 229.915 425.332C235.624 435.018 235.278 447.818 229.05 457.158C238.737 464.942 242.716 477.915 238.738 488.466C234.759 499.017 223.514 506.627 212.097 506.627C211.405 506.627 210.886 506.627 210.194 506.627C198.604 505.763 186.495 502.303 185.63 482.758C185.63 482.239 185.976 481.893 186.495 481.893C186.668 481.893 186.668 481.893 186.841 481.893H187.014C187.014 481.893 187.014 481.893 187.187 481.893L187.36 482.066C187.36 482.239 187.36 482.239 187.36 482.412C187.36 482.585 187.36 482.585 187.36 482.585C187.706 485.525 189.609 488.466 192.722 488.466H192.895C196.355 488.466 199.123 485.525 200.161 482.758C202.064 478.26 200.68 472.379 196.874 468.747C193.241 465.288 187.533 464.077 182.516 465.634C177.672 467.017 173.521 470.996 171.618 475.839C170.58 478.26 170.234 480.855 170.234 483.45C170.234 483.45 170.234 483.277 170.407 483.277C170.58 486.39 171.272 489.503 172.656 493.136C176.635 503.514 184.073 512.508 193.587 518.043C210.886 528.076 236.489 529.459 253.442 518.389C262.437 512.508 271.432 501.611 274.546 490.195C278.525 491.579 283.023 491.925 287.174 491.06C287.347 491.06 287.347 491.06 287.347 491.06C297.381 488.466 305.857 479.471 307.241 469.266C308.106 463.385 305.857 456.466 298.938 455.083C294.267 454.218 289.25 456.812 287.347 461.136C286.482 463.039 286.309 465.288 287.174 466.844C287.866 468.574 290.115 469.958 292.191 469.958C293.056 470.131 293.921 469.439 294.44 468.574C294.959 467.709 294.959 466.844 294.613 466.326C294.44 465.98 294.44 465.461 294.959 465.115C295.305 464.942 295.997 464.942 296.17 465.461C296.862 466.672 296.862 468.228 295.997 469.612C295.132 470.996 293.748 471.688 292.191 471.861C289.423 471.861 286.655 469.958 285.617 467.709C284.753 465.634 284.753 463.039 285.79 460.618C288.039 455.601 293.921 452.488 299.284 453.526C307.241 455.083 309.836 463.039 308.798 469.612C307.587 477.742 302.57 485.006 295.651 489.33C300.322 492.963 306.376 495.211 312.258 495.211C319.869 495.211 327.481 491.925 333.189 486.217C338.379 481.028 342.012 473.936 343.915 465.807C345.299 459.234 345.299 453.353 343.915 447.991C342.185 441.764 338.379 436.402 333.535 433.461C328.173 430.175 321.253 429.829 316.582 432.769C316.409 432.942 316.064 432.942 315.718 432.769C315.545 432.597 315.199 432.424 315.199 432.251C313.296 425.505 305.511 420.489 298.765 421.699C296.17 422.218 293.748 423.602 292.364 425.332C290.98 427.234 290.461 430.002 291.499 432.251C292.537 434.672 294.959 436.229 297.208 436.229C298.419 436.229 299.457 435.537 300.322 434.672C301.013 433.807 301.359 432.769 301.186 431.905C301.186 431.386 301.532 431.04 301.878 430.867C302.397 430.867 302.743 431.213 302.916 431.559C303.089 433.115 302.57 434.499 301.532 435.71C300.495 437.094 298.765 437.786 297.208 437.959C294.094 438.132 290.98 436.056 289.769 432.942C288.558 430.175 289.077 426.716 290.98 424.294C292.537 422.045 295.305 420.489 298.419 419.97C305.857 418.586 313.988 423.602 316.582 430.694C321.772 428.099 328.692 428.618 334.227 432.078C339.59 435.364 343.569 441.072 345.472 447.645C347.029 453.18 347.029 459.58 345.472 466.326C343.569 474.974 339.763 482.239 334.4 487.601C328.346 493.655 320.215 497.114 312.258 497.114C305.684 497.114 299.111 494.693 294.094 490.541C293.748 490.714 293.229 490.887 292.883 491.06C297.035 495.903 303.262 499.19 309.663 499.882C320.042 501.092 330.422 496.595 339.071 490.541C347.029 485.006 353.948 477.742 357.408 468.574C360.522 459.407 360.003 448.51 354.121 440.726Z" fill="#2B2B2B"/>
<path d="M621.216 13.1457L621.043 12.9727C613.086 6.57285 603.225 2.42159 593.192 0.864862C574.682 -2.07562 555.48 3.4594 539.911 13.6646C526.937 22.1401 516.385 33.729 507.735 46.7018C491.128 42.2046 471.927 47.0477 459.99 59.6745C448.919 71.4364 444.94 89.2522 448.919 104.819C444.248 106.549 440.27 109.836 437.675 113.987C432.658 122.289 434.388 134.224 442.173 139.932C447.362 143.738 454.109 144.775 460.509 143.738C462.066 143.565 463.45 143.219 464.834 142.873C467.948 153.77 477.116 162.764 488.188 165.359C495.972 167.261 504.276 165.878 511.195 161.899C513.444 165.705 516.731 168.991 520.709 171.24C520.882 171.413 521.228 171.586 521.401 171.586C523.996 172.969 526.591 173.834 529.532 174.353H529.705C531.781 174.526 534.203 174.353 536.797 173.834C543.371 172.796 552.539 170.029 559.805 162.764C566.206 156.537 569.492 147.543 568.454 139.586C567.243 130.938 560.67 123.327 552.712 121.598C544.236 119.695 535.068 125.057 532.992 133.013C531.781 137.857 533.338 143.046 536.624 145.986C540.257 149.1 545.966 149.273 549.426 146.159C549.772 145.813 550.291 145.813 550.637 146.159C550.983 146.505 550.983 147.024 550.637 147.37C546.658 150.829 539.911 150.829 535.587 147.197C531.608 143.911 529.878 138.03 531.262 132.495C533.511 123.673 543.717 117.792 553.058 119.868C561.708 121.77 568.8 129.9 570.011 139.24C571.222 147.889 567.762 157.056 560.843 163.975C553.231 171.413 543.717 174.353 536.797 175.564C534.722 175.91 532.819 176.083 530.916 176.083C529.705 176.083 528.667 176.083 527.629 175.91C524.342 177.294 521.401 179.196 519.153 181.964C512.579 190.093 515.866 203.239 523.823 209.985C531.781 216.904 542.679 218.806 553.231 219.498C560.843 220.017 607.55 221.92 599.592 240.082C598.554 242.503 596.133 244.06 594.057 245.617C581.775 253.573 573.99 258.243 558.94 259.281C526.937 261.184 490.955 257.033 461.201 271.735C448.919 277.789 437.502 286.264 423.836 288.686C415.532 290.07 406.883 289.032 398.406 290.243C388.027 291.626 374.534 299.064 376.437 311.345C377.648 319.129 378.513 327.258 375.918 334.696C367.787 358.047 339.244 356.49 319.351 357.009C299.803 357.528 280.255 356.49 260.534 356.317C217.633 355.971 174.559 359.776 132.35 367.733C132.869 368.944 133.215 370.155 133.561 371.538C136.674 372.576 139.442 373.96 142.037 375.863C144.113 377.419 146.016 379.149 147.746 381.225C156.049 370.846 169.023 364.62 182.17 364.62C183.727 364.62 185.284 364.793 186.841 364.965C211.751 358.047 241.16 357.528 252.923 357.701C265.378 357.874 276.622 358.22 287.694 358.566C328.519 360.122 358.1 361.16 376.437 343.69C382.837 337.636 382.145 329.507 381.626 321.723C381.108 314.977 380.589 308.577 384.221 303.561C390.622 294.74 404.115 293.01 415.878 291.453C422.971 290.416 429.544 289.551 433.869 287.475C460.682 273.638 466.564 270.87 495.972 265.162C504.622 263.432 521.401 263.086 536.278 262.568C546.831 262.395 556.864 262.049 562.919 261.357C586.791 258.762 600.284 249.768 604.782 242.33C606.685 239.217 607.204 236.103 606.339 233.682C601.495 220.882 589.386 219.152 570.876 216.558C561.362 215.174 550.637 213.617 538.527 210.331C531.262 208.255 523.477 202.72 523.131 196.32C522.958 193.034 524.688 188.018 534.376 184.039C537.143 182.829 540.43 181.618 544.063 180.407C565.687 172.278 598.208 160.17 599.419 135.435C599.765 128.862 597.171 120.214 592.673 114.333C591.289 114.16 589.905 113.987 588.521 113.641C575.72 111.046 564.995 101.706 560.843 89.7711C556.691 77.4903 560.151 62.9609 569.492 54.4854C579.007 45.6639 594.403 44.1072 605.128 50.5071C611.875 54.4854 616.199 61.2312 616.718 67.977C617.237 75.2417 612.048 82.8524 605.474 85.101C606.339 86.6577 607.896 88.3874 610.318 88.7333C612.567 89.0793 615.161 88.7333 618.102 87.5225C624.676 85.101 630.038 80.2578 632.806 74.5498C635.92 68.3229 635.92 61.0582 632.806 55.3502C629.692 49.4693 622.946 45.491 616.718 46.0099C616.199 46.0099 616.026 45.8369 615.853 45.318C614.296 39.783 609.28 32.3453 600.111 27.6751C592.154 23.6968 578.488 20.4104 557.902 27.8481C533.684 36.4966 525.553 53.1016 522.958 62.442C532.127 67.6311 537.662 78.7011 535.241 88.5604C534.03 93.4035 531.262 97.2088 527.456 99.1115C522.958 101.36 517.596 100.322 514.655 96.8629C513.098 94.9602 512.579 92.1927 513.271 89.5982C513.79 87.3496 515.347 85.4469 517.25 84.5821C517.769 84.4091 518.115 84.5821 518.461 85.101C518.634 85.6199 518.461 85.9658 517.942 86.3118C516.558 87.0036 515.347 88.3874 515.001 90.1171C514.482 92.1927 515.001 94.2683 516.212 95.8251C518.461 98.5926 523.131 99.4574 526.764 97.5548C530.051 95.8251 532.473 92.3657 533.684 88.0415C536.105 77.8363 529.359 66.0743 518.634 62.269C508.773 58.8096 496.491 61.9231 488.361 70.0526C481.095 77.3173 476.77 88.3874 476.597 100.322C476.597 100.841 476.251 101.187 475.732 101.187C475.213 101.187 474.867 100.841 474.867 100.322C475.04 87.8685 479.365 76.4525 487.15 68.8418C495.799 60.1934 508.773 56.907 519.153 60.5393C519.845 60.7123 520.71 61.0582 521.401 61.4042C524.342 51.5449 532.646 34.7669 557.383 25.9454C578.488 18.3348 592.673 21.7942 600.976 25.9454C610.318 30.7886 615.507 38.3992 617.41 44.1072H617.756C624.503 44.1072 631.249 48.0855 634.536 54.4854C637.823 60.7123 637.823 68.6689 634.536 75.2417C631.595 81.2956 625.887 86.4847 618.967 89.0793C616.372 90.1171 614.123 90.463 612.048 90.463C611.356 90.463 610.837 90.463 610.318 90.29C607.723 89.9441 605.301 88.0414 603.917 84.928V84.755V84.5821C603.917 84.4091 603.917 84.0631 604.09 83.8902C604.09 83.8902 604.09 83.8902 604.263 83.7172C604.263 83.7172 604.436 83.7172 604.436 83.5442H604.609C610.837 81.9875 616.026 74.7228 615.507 67.977C615.161 61.7501 611.01 55.5232 604.782 51.7179C594.576 45.6639 580.218 47.2207 571.222 55.5232C562.4 63.4798 559.113 77.3173 563.092 88.9063C566.897 100.149 577.277 109.144 589.559 111.738C590.251 111.911 590.943 112.084 591.635 112.084C592.5 112.257 593.365 112.257 594.23 112.43C597.517 112.776 600.803 112.603 603.744 112.084C604.609 111.911 605.474 111.911 606.339 111.738C610.491 110.873 614.296 109.663 617.237 108.452C618.102 108.106 618.967 107.76 619.659 107.414H619.832C626.579 104.128 632.114 99.6304 635.747 94.2683C655.122 64.3446 639.553 27.3292 621.216 13.1457ZM631.076 232.817C626.06 219.325 610.145 216.904 588.348 213.617C579.007 212.233 568.454 210.504 557.556 207.736C547.004 204.969 541.468 201.336 541.122 196.666C540.776 191.477 547.004 186.115 558.594 181.272C561.708 179.888 565.514 178.677 569.319 177.294C589.04 170.202 616.026 160.689 617.064 136.473C617.41 129.035 612.221 118.83 605.301 113.468C602.533 113.987 599.765 114.16 596.998 114.16C596.306 114.16 595.614 114.16 594.922 114.16C599.073 120.387 601.495 128.862 601.149 135.262C599.938 161.208 566.725 173.661 544.582 181.791C541.122 183.175 537.662 184.385 535.068 185.423C528.148 188.364 524.688 191.996 524.861 195.974C525.207 201.509 532.3 206.698 539.046 208.428C550.983 211.715 561.708 213.271 571.049 214.655C589.386 217.25 602.706 219.152 607.896 232.817C609.107 235.757 608.415 239.39 606.166 243.022C599.938 253.227 583.85 260.665 562.919 262.914C556.691 263.605 546.831 263.778 536.106 264.124C521.401 264.47 504.622 264.989 496.145 266.546C467.083 272.254 461.201 275.021 434.561 288.686C430.063 290.935 423.144 291.972 416.051 292.837C404.634 294.394 391.487 296.124 385.432 304.253C382.145 308.75 382.664 314.804 383.183 321.204C383.875 329.507 384.567 337.982 377.475 344.555C358.619 362.371 328.692 361.333 287.521 359.776C276.622 359.43 265.205 358.912 252.923 358.912C244.965 358.739 216.595 358.912 191.339 365.138C198.95 366.868 205.87 371.019 211.405 376.727C231.991 359.257 266.243 360.468 283.196 361.16C285.445 361.16 287.348 361.333 288.904 361.333C299.284 361.506 308.279 361.679 316.41 361.852C356.543 362.89 371.593 363.409 390.795 345.247C397.023 339.366 395.639 332.447 393.909 325.183C392.525 319.302 391.141 313.075 394.947 307.886C402.212 298.026 426.95 291.972 445.113 287.475C452.725 285.573 459.298 284.016 462.931 282.459C488.88 271.908 515.174 269.832 540.603 267.757C554.961 266.719 568.627 265.681 581.948 263.087C608.069 258.07 625.022 246.827 629.692 238.525C631.422 236.795 631.768 234.547 631.076 232.817ZM856.308 115.89C854.924 109.144 851.637 102.571 846.274 98.2466C842.469 95.1332 837.625 93.4035 832.781 93.4035C833.992 85.7928 832.435 77.6633 828.111 71.2634C822.229 62.442 811.331 57.0799 800.605 57.7718C792.129 58.2907 783.999 62.7879 778.809 69.3607C774.311 67.804 769.467 67.4581 764.797 68.15C761.337 68.6689 758.223 69.8797 755.109 71.6094C758.05 79.22 759.607 87.3496 759.434 95.6521C759.261 105.857 758.569 116.581 754.244 126.095C750.266 134.743 743.519 142.354 735.216 147.716C727.258 152.732 717.744 155.845 707.71 156.71C706.154 156.883 704.597 156.883 703.213 156.883C699.753 156.883 696.639 156.537 693.698 155.672C684.53 153.251 676.745 145.813 673.805 136.819C673.286 135.262 672.94 133.705 672.767 132.149C672.767 132.322 672.594 132.322 672.594 132.495C667.058 138.894 658.755 142.354 650.278 142.354C644.397 142.354 638.515 140.797 633.498 137.511C624.503 131.63 619.14 120.906 618.967 109.49C618.448 109.663 617.929 109.836 617.583 110.182C614.296 111.565 611.01 112.603 607.723 113.295C614.469 119.003 619.313 129.208 618.967 136.819C617.756 162.072 590.251 171.932 570.011 179.196C566.033 180.58 562.4 181.964 559.286 183.175C548.561 187.672 542.506 192.688 542.852 196.839C543.198 200.645 548.561 203.931 558.075 206.353C568.973 209.12 579.526 210.677 588.694 212.061C610.318 215.347 627.271 217.941 632.806 232.298C633.671 234.547 633.325 237.314 631.595 240.082C626.752 248.73 609.28 260.492 582.639 265.508C569.319 268.103 555.653 269.14 541.122 270.178C515.866 272.081 489.745 274.157 463.969 284.708C460.336 286.264 453.59 287.821 445.978 289.724C428.16 294.048 403.769 300.102 396.85 309.442C393.563 313.939 394.774 319.475 396.158 325.355C397.714 332.447 399.444 340.404 392.525 346.977C372.804 365.657 356.37 365.138 316.929 364.101C308.971 363.928 299.803 363.582 289.596 363.582C288.04 363.582 286.137 363.409 283.888 363.409C267.281 362.717 233.548 361.333 213.481 378.457C216.076 381.398 218.325 384.684 220.228 388.316C220.747 388.143 221.439 387.97 221.958 387.797C224.553 387.106 227.147 386.933 229.742 386.933C230.261 386.933 230.953 386.933 231.472 386.933C231.299 386.414 231.126 385.895 230.953 385.549C228.185 372.403 258.112 366.003 266.762 364.965C279.736 363.409 292.71 364.62 305.684 365.311C326.443 366.349 348.24 366.522 369.344 364.62C391.314 362.544 412.937 356.49 434.388 351.301C443.383 349.052 450.303 340.404 439.405 334.004C435.426 331.582 430.582 330.891 426.431 328.469C420.549 325.01 416.916 318.091 417.954 311.345C420.722 290.416 455.147 292.145 470.37 289.724C492.339 286.091 514.136 282.632 536.106 279C566.898 273.984 598.209 268.794 626.06 254.611C630.384 252.535 634.536 250.114 637.823 246.654C641.11 243.195 643.359 238.525 643.013 233.682C642.667 229.012 639.553 224.86 635.92 221.92C632.287 218.979 627.79 217.077 623.465 215.347C613.605 211.196 603.917 207.217 594.057 203.066C587.483 200.299 579.699 196.147 579.526 189.056C579.353 184.558 582.294 180.407 586.099 178.159C589.905 175.91 594.403 175.045 598.9 174.18C616.199 171.413 633.671 170.029 651.143 170.029C670.345 168.126 684.011 167.78 694.39 169.337H694.563C705.981 169.683 717.917 167.088 727.95 162.072C741.789 155.154 753.034 143.738 759.78 129.727C761.856 125.23 763.586 120.387 765.316 115.717C766.008 113.641 766.7 111.565 767.565 109.663C769.813 103.436 772.927 96.344 777.944 90.463C783.134 84.2361 790.053 80.4308 796.973 79.9119C804.93 79.22 812.715 83.3713 815.655 90.1171C817.212 93.7494 817.212 98.2466 815.655 102.052C814.099 105.511 811.504 108.106 808.217 109.144C804.065 110.527 799.395 109.49 796.973 106.376C795.589 104.647 794.897 102.225 795.416 99.9763C795.762 97.9007 796.8 96.171 798.357 95.1332C798.703 94.9602 799.222 94.9602 799.568 95.3062C799.914 95.6521 799.741 96.171 799.395 96.5169C798.184 97.2088 797.492 98.5926 797.146 100.149C796.8 101.879 797.319 103.782 798.357 105.165C800.432 107.587 804.238 108.625 807.698 107.414C810.466 106.376 812.715 104.301 814.099 101.187C815.656 97.7277 815.655 93.7494 814.272 90.636C811.677 84.755 804.411 80.9497 797.319 81.4686C790.918 81.9875 784.517 85.6199 779.501 91.5008C774.657 97.2088 771.716 104.128 769.467 110.182C768.775 112.257 768.083 114.16 767.392 116.235C765.835 120.906 764.105 125.922 761.856 130.419C755.109 144.775 743.519 156.537 729.334 163.456C721.203 167.434 711.689 170.029 702.348 170.721C709.786 172.796 714.803 176.429 718.955 181.618C723.625 187.672 725.355 194.245 723.625 199.953C721.896 206.007 716.014 210.504 710.132 210.504C709.613 210.504 709.094 210.504 708.402 210.331C704.943 209.812 701.829 207.563 699.926 204.277C698.196 201.336 698.023 197.877 699.234 195.11C699.407 194.591 699.926 194.418 700.445 194.591C700.964 194.764 701.137 195.282 700.964 195.801C699.926 198.05 700.272 200.818 701.656 203.412C703.213 206.18 705.981 208.255 708.748 208.601C714.284 209.466 720.339 205.315 722.069 199.434C723.625 194.418 722.069 188.191 717.744 182.656C709.094 171.413 694.909 168.126 661.695 170.721C667.404 171.759 672.94 174.007 677.783 177.467C681.07 179.888 684.184 182.829 686.606 185.942C683.146 188.883 680.897 193.38 680.724 198.05C680.551 205.315 684.876 212.233 690.931 216.039C697.158 219.844 704.77 220.709 711.862 219.498C718.782 218.287 725.701 214.828 729.68 208.947C732.275 204.969 733.313 199.78 732.275 195.282C735.043 194.764 737.81 193.207 739.54 190.785C742.481 187.153 743 181.964 741.443 177.467C740.059 173.488 737.118 170.375 733.659 168.299C739.713 167.953 745.941 166.397 751.304 163.456C756.666 160.689 761.337 157.056 765.143 152.559C764.451 144.948 765.835 138.549 769.467 132.841C773.273 126.614 779.674 122.116 786.247 120.906C792.475 119.868 798.876 121.77 803.027 125.922C806.66 129.554 808.217 134.57 807.179 139.932C806.487 144.257 803.546 147.889 800.086 149.1C798.011 149.792 795.416 149.446 793.34 148.235C791.61 147.197 790.399 145.467 790.226 143.738C790.226 143.219 790.399 142.873 790.918 142.7C791.437 142.7 791.783 142.873 791.956 143.392C792.129 144.775 792.994 145.813 794.378 146.678C795.935 147.716 798.011 147.889 799.568 147.37C802.508 146.332 804.93 143.392 805.622 139.586C806.487 134.916 805.103 130.419 801.816 127.133C798.011 123.327 792.129 121.598 786.593 122.635C780.366 123.673 774.657 127.824 771.024 133.705C767.392 139.413 766.181 145.813 767.046 153.597C767.046 154.116 767.219 154.462 767.219 154.981C767.219 155.327 767.392 155.845 767.392 156.191C768.083 159.305 768.948 162.245 770.505 165.013C775.003 173.834 783.998 180.407 793.686 180.926C800.086 181.272 806.66 178.85 811.158 174.526C816.001 177.64 822.402 178.331 827.765 176.256C835.03 173.661 840.393 166.915 842.296 159.478C843.853 153.597 843.334 147.37 841.604 141.489C845.928 141.662 850.426 139.759 853.367 136.473C856.827 130.938 857.692 122.981 856.308 115.89ZM753.898 72.4742C752.169 67.6311 749.574 62.7879 746.114 58.9826C743.692 56.388 740.751 54.4854 737.638 52.9287C738.675 50.5071 739.367 47.7396 739.713 45.145C740.232 39.61 738.329 33.902 734.524 29.9237C730.026 25.4265 722.933 23.8698 716.879 25.9454C712.208 16.0862 702.867 8.30255 691.968 6.05394C678.648 3.28643 664.117 9.16739 655.987 20.0645C651.835 15.3943 645.78 12.2808 639.553 11.7619C634.709 11.243 629.865 12.4538 625.714 14.7024C629.865 18.5077 633.671 23.5239 636.958 29.2318C639.553 29.4048 642.148 30.0967 644.224 31.4804C648.029 33.729 650.451 37.5344 652.7 40.9938C658.063 35.1128 666.712 32.3453 675.707 33.3831C684.53 34.5939 692.487 40.4749 696.12 48.6044C696.293 49.1233 696.12 49.4693 695.601 49.8152C695.428 49.8152 695.428 49.8152 695.255 49.8152C694.909 49.8152 694.563 49.6422 694.39 49.2963C690.931 41.6856 683.492 36.1506 675.362 35.1128C666.539 33.902 658.063 36.8425 653.046 42.8964C652.873 43.0694 652.527 43.2424 652.354 43.2424C652.008 43.2424 651.835 43.0694 651.662 42.8964C649.413 39.2641 646.818 35.2858 643.186 32.8642C641.629 31.8264 639.726 31.1345 637.823 30.9615C647.51 49.1233 650.97 73.858 636.785 95.1332C633.152 100.668 627.617 105.338 620.697 108.798C620.697 120.041 625.887 130.419 634.536 136.127C645.953 143.738 662.733 141.662 671.21 131.63C671.729 130.938 672.248 130.419 672.594 129.9C672.248 124.192 673.632 118.311 676.572 113.295C675.361 107.76 671.383 102.917 666.366 101.187C660.657 99.1115 653.738 101.36 650.797 106.203C649.24 108.625 648.894 111.911 649.759 115.025C650.451 117.792 652.354 120.214 654.603 121.425C654.949 121.598 655.122 122.116 654.949 122.635C654.776 122.981 654.43 123.154 654.257 123.154C654.084 123.154 653.911 123.154 653.911 122.981C651.143 121.425 649.067 118.83 648.202 115.544C647.164 112.084 647.683 108.279 649.413 105.338C652.873 99.8034 660.657 97.2088 667.058 99.4574C672.075 101.187 676.227 105.857 677.956 111.219C678.302 110.7 678.648 110.354 678.994 109.836C681.935 106.03 685.741 103.263 689.72 102.052C694.217 100.668 699.234 101.014 702.867 103.436C707.018 106.03 709.44 110.7 708.921 115.198C708.402 120.041 704.424 124.192 699.753 124.538C699.234 124.538 698.888 124.192 698.888 123.673C698.888 123.154 699.234 122.808 699.753 122.808C703.559 122.462 706.846 119.003 707.365 115.025C707.71 111.219 705.635 107.068 702.002 104.992C698.715 102.917 694.217 102.571 690.239 103.782C686.606 104.992 683.146 107.414 680.378 111.046C679.686 111.911 678.994 112.776 678.475 113.814C678.475 113.814 678.475 113.987 678.302 113.987C675.534 118.657 674.151 124.365 674.497 129.9V130.073C674.67 132.322 675.016 134.397 675.707 136.473C678.475 144.948 685.914 151.867 694.39 154.289C698.196 155.327 702.521 155.672 707.71 155.154C717.398 154.289 726.739 151.348 734.351 146.332C742.481 141.143 749.055 133.705 752.688 125.403C756.839 116.235 757.531 105.684 757.704 95.6521C757.877 88.7333 756.493 82.1605 754.763 75.4147C754.59 74.3769 754.244 73.512 753.898 72.4742Z" fill="#2B2B2B"/>
</svg>
