<svg width="174" height="157" viewBox="0 0 174 157" fill="none" xmlns="http://www.w3.org/2000/svg">
<path d="M213.173 98.158C207.864 106.602 197.511 111.087 187.688 109.24C187.157 109.24 186.626 108.977 186.095 108.977C179.724 107.129 174.415 102.38 171.229 96.5748C167.512 96.0471 163.53 96.5748 159.814 97.6303C154.504 87.0757 144.416 79.4236 133.532 77.0488C121.586 74.674 108.578 79.1597 101.41 88.1311C97.959 92.6169 95.8352 97.8942 95.3043 103.435C95.3043 103.435 95.3043 103.435 95.3043 103.699C93.1805 114.518 84.1545 123.753 73.5356 126.128C69.2881 127.183 64.5096 127.183 59.4657 126.128C52.8289 124.808 46.9886 122.17 42.4756 118.476C37.4316 114.254 34.246 108.449 33.715 102.644C32.9186 96.8387 35.0424 91.2975 39.2899 87.0757C43.272 83.1177 48.8469 81.2706 54.4217 81.7984C59.9966 82.59 63.1823 86.548 62.9168 92.0891C62.6513 94.7278 61.5895 97.1026 59.9966 98.4219C58.6693 99.4774 57.0765 99.7412 55.4836 99.4774C54.4217 99.2135 53.0944 98.4219 52.5634 97.3664C52.298 96.8387 51.767 95.7832 52.0325 94.7278C52.298 93.9362 51.767 93.4084 50.9706 93.1446C50.1742 92.8807 49.6433 93.4084 49.3778 93.9362C48.8469 95.5194 49.1123 97.1026 50.1742 98.6858C51.2361 100.269 53.0944 101.588 54.9527 102.116C57.6074 102.644 59.7312 102.116 61.5895 100.533C63.9787 98.6858 65.3061 95.7832 65.5715 92.353C65.837 85.4925 61.5895 80.2152 54.6872 79.4236C48.3159 78.632 41.9446 80.7429 37.4316 85.2286C32.6531 89.9782 30.2639 96.311 31.0603 102.908C31.8567 109.504 35.3078 115.837 40.8827 120.323C45.6612 124.281 52.0325 127.183 59.2002 128.503C62.3859 129.03 65.5715 129.294 68.4917 129.294C70.6155 129.294 72.4738 129.03 74.3321 128.503C83.889 126.392 91.8531 119.531 96.1007 110.824C96.6316 114.518 98.2244 118.212 100.348 121.378C103.799 126.128 108.578 129.294 113.622 130.086C114.684 130.35 115.746 130.35 117.073 130.35C121.586 130.086 126.099 127.975 128.488 124.281C131.939 119.531 131.143 112.407 126.895 108.713C124.506 106.866 121.32 106.074 118.135 106.602C115.215 107.129 112.825 108.977 111.763 111.351C111.498 111.879 111.763 112.671 112.294 113.198C112.825 113.462 113.622 113.198 114.153 112.671C114.949 111.087 116.542 109.768 118.666 109.24C121.055 108.713 123.444 109.24 125.037 110.56C128.223 113.198 128.754 118.74 126.099 122.698C123.71 126.392 118.666 128.239 113.887 127.447C109.64 126.656 105.392 124.017 102.206 119.795C96.1007 111.087 96.6316 98.158 103.534 89.4505C110.171 81.0068 122.117 77.0488 133.001 79.4236C143.62 81.5345 152.115 89.1866 157.424 98.4219C161.406 105.546 162.468 114.518 159.548 122.17C158.221 125.336 156.628 128.239 154.239 130.877C148.929 137.21 140.7 141.432 132.47 142.487C124.506 143.279 116.276 141.432 109.374 137.474C108.047 140.377 105.923 143.015 103.534 145.126C97.1626 150.931 88.1365 153.306 79.376 152.514C66.6334 151.459 54.9527 144.071 48.3159 133.252C46.4576 134.308 44.3339 134.835 42.2101 135.099C36.1043 135.891 29.4675 133.516 25.22 129.03C23.0962 126.656 21.5034 123.753 21.5034 120.85C21.5034 120.323 21.5034 119.795 21.5034 119.267C19.6451 119.267 17.5213 119.003 15.663 118.476C8.76076 116.365 3.18587 110.56 0.796633 103.435C-1.32713 96.5748 -0.530721 88.9227 2.65493 82.3261C5.30964 76.7849 9.82264 71.7715 15.3975 68.8689C17.2558 68.6051 18.5832 67.8135 20.176 67.5496C21.5034 69.9244 23.3617 71.7715 25.7509 72.8269C27.8747 73.8824 29.9984 74.4101 32.1222 74.4101C34.246 74.4101 36.3697 73.8824 38.228 73.0908C39.0244 72.8269 39.2899 72.0353 39.0244 71.2437C38.759 70.4521 37.9626 70.1883 37.1661 70.716C33.9805 72.2992 29.9984 72.0353 26.8128 70.716C25.22 69.9244 23.6271 68.6051 22.5652 67.0219C22.5652 67.0219 22.5652 67.0219 22.5652 66.758C19.6451 60.4253 19.9105 52.2454 24.4235 46.7042C29.4675 40.3715 38.4935 37.9967 46.1921 40.6353C50.4397 23.2202 63.9787 7.65215 81.2343 2.37484C101.41 -3.95793 125.037 4.2219 138.311 20.5816C137.514 21.9009 136.452 22.9564 135.921 24.2757C131.939 31.9278 131.674 40.8992 135.656 47.4958C139.107 53.3009 145.478 56.7311 151.584 56.7311C153.442 56.7311 155.301 56.4673 156.893 55.6757C160.876 54.3563 163.796 51.19 165.123 47.7597C166.45 43.8017 165.389 39.0522 162.468 36.4135C159.283 33.511 153.973 33.2471 150.788 36.1496C150.257 36.6774 150.257 37.469 150.522 37.9967C151.053 38.5244 151.85 38.5244 152.38 38.2606C154.504 36.4135 158.221 36.6774 160.345 38.5244C162.468 40.3715 163.265 44.0656 162.203 46.9681C161.141 49.8706 158.752 52.2454 155.566 53.3009C149.195 55.6757 141.231 52.5093 137.514 46.1765C134.063 40.3715 134.328 32.1916 137.78 25.595C138.311 24.5395 138.841 23.4841 139.638 22.6925C143.354 19.2622 147.867 16.8874 152.911 15.832C167.247 12.4017 183.441 18.9984 191.139 31.1362C196.449 39.5799 197.776 50.3984 195.121 59.8975C201.227 61.2169 207.067 64.6471 211.05 69.6605C217.952 77.3126 218.748 89.4505 213.173 98.158Z" fill="#2B2B2B"/>
<path d="M182.379 120.059C177.07 113.726 172.822 106.338 169.105 98.9497C169.371 98.9497 169.636 98.9497 169.636 98.9497C173.088 105.019 178.928 109.504 185.299 111.351C185.83 111.615 186.361 111.615 187.157 111.879C187.688 111.879 188.219 112.143 189.016 112.143C191.67 117.948 195.387 122.961 200.166 126.919C209.192 134.572 221.669 138.002 233.615 136.155C245.561 134.308 255.914 127.711 266.799 123.225C276.09 119.531 287.24 117.684 296.001 121.642C279.541 118.476 268.923 123.225 257.507 128.239L254.056 129.822C242.11 135.099 229.898 140.904 217.156 139.849C204.944 139.057 192.201 131.933 182.379 120.059Z" fill="#2B2B2B"/>
<path d="M219.811 142.751C230.695 142.751 240.783 138.793 250.605 134.308C243.172 138.53 234.942 143.015 226.447 145.918C218.483 148.556 206.537 151.195 195.122 147.501C186.892 144.862 171.76 133.516 161.938 122.698C164.327 115.309 164.062 107.13 160.876 100.005C162.469 99.4774 164.327 99.2136 165.92 98.9497C169.902 106.866 174.415 114.782 180.255 121.642C190.609 134.044 203.882 141.432 216.89 142.488C217.952 142.751 219.014 142.751 219.811 142.751Z" fill="#2B2B2B"/>
<path d="M290.425 124.281C280.603 124.808 273.169 128.239 265.205 132.988C254.586 139.321 245.029 146.973 233.614 151.723C218.482 158.056 200.696 158.847 185.033 153.306C173.883 149.348 163.795 142.487 156.097 133.516L156.362 133.252C158.486 130.877 160.079 128.503 161.141 125.864C171.229 136.682 185.829 147.501 194.59 150.403C198.837 151.723 203.35 152.514 207.598 152.514C215.031 152.514 222.199 150.667 227.508 148.82C238.393 145.126 248.481 139.321 256.976 134.044C271.577 124.808 280.337 123.489 290.425 124.281Z" fill="#2B2B2B"/>
</svg>
