<svg width="280" height="166" viewBox="0 0 280 166" fill="none" xmlns="http://www.w3.org/2000/svg">
<path d="M54.5838 103.785C60.1981 112.713 71.1461 117.455 81.5326 115.503C82.0941 115.503 82.6555 115.224 83.2169 115.224C89.9542 113.271 95.5685 108.249 98.9371 102.111C102.867 101.553 107.078 102.111 111.008 103.227C116.622 92.0672 127.29 83.9764 138.799 81.4655C151.431 78.9546 165.186 83.6975 172.766 93.1832C176.415 97.926 178.661 103.506 179.222 109.365C179.222 109.365 179.222 109.365 179.222 109.644C181.468 121.082 191.012 130.847 202.241 133.358C206.733 134.474 211.786 134.474 217.119 133.358C224.137 131.963 230.313 129.173 235.085 125.267C240.419 120.803 243.787 114.666 244.349 108.528C245.191 102.39 242.945 96.5311 238.454 92.0672C234.243 87.8823 228.348 85.9294 222.453 86.4874C216.558 87.3243 213.189 91.5092 213.47 97.368C213.47 100.158 214.873 102.669 216.558 104.064C217.961 105.18 219.646 105.459 221.33 105.18C222.453 104.901 223.856 104.064 224.418 102.948C224.699 102.39 225.26 101.274 224.979 100.158C224.699 99.321 225.26 98.763 226.102 98.484C226.944 98.205 227.506 98.763 227.786 99.321C228.348 100.995 228.067 102.669 226.944 104.343C225.821 106.017 223.856 107.412 221.891 107.97C219.084 108.528 216.838 107.97 214.873 106.296C212.347 104.343 210.943 101.274 210.663 97.647C210.382 90.3932 214.873 84.8134 222.172 83.9764C228.909 83.1395 235.647 85.3714 240.419 90.1143C245.472 95.1361 247.998 101.832 247.156 108.807C246.314 115.781 242.664 122.477 236.769 127.22C231.716 131.405 224.979 134.474 217.4 135.869C214.031 136.427 210.663 136.706 207.575 136.706C205.329 136.706 203.364 136.427 201.399 135.869C191.293 133.637 182.872 126.383 178.38 117.176C177.819 121.082 176.134 124.988 173.889 128.336C170.239 133.358 165.186 136.706 159.853 137.543C158.73 137.822 157.607 137.822 156.203 137.822C151.431 137.543 146.659 135.311 144.133 131.405C140.483 126.383 141.325 118.85 145.817 114.945C148.343 112.992 151.712 112.155 155.081 112.713C158.169 113.271 160.695 115.224 161.818 117.734C162.099 118.292 161.818 119.129 161.256 119.687C160.695 119.966 159.853 119.687 159.291 119.129C158.449 117.455 156.765 116.06 154.519 115.503C151.993 114.945 149.466 115.503 147.782 116.897C144.413 119.687 143.852 125.546 146.659 129.731C149.186 133.637 154.519 135.59 159.572 134.753C164.064 133.916 168.555 131.126 171.924 126.662C178.38 117.455 177.819 103.785 170.52 94.5781C163.502 85.6504 150.87 81.4655 139.36 83.9764C128.132 86.2084 119.149 94.2991 113.534 104.064C109.324 111.597 108.201 121.082 111.289 129.173C112.692 132.521 114.377 135.59 116.903 138.38C122.517 145.076 131.22 149.539 139.922 150.655C148.343 151.492 157.046 149.539 164.344 145.355C165.748 148.423 167.994 151.213 170.52 153.445C177.257 159.583 186.802 162.094 196.065 161.257C209.54 160.141 221.891 152.329 228.909 140.891C230.874 142.007 233.12 142.565 235.366 142.844C241.822 143.681 248.84 141.17 253.332 136.427C255.577 133.916 257.262 130.847 257.262 127.778C257.262 127.22 257.262 126.662 257.262 126.104C259.227 126.104 261.473 125.825 263.438 125.267C270.736 123.035 276.631 116.897 279.158 109.365C281.403 102.111 280.561 94.0201 277.193 87.0453C274.386 81.1865 269.613 75.8857 263.718 72.8168C261.753 72.5378 260.35 71.7008 258.665 71.4218C257.262 73.9327 255.297 75.8857 252.77 77.0017C250.525 78.1176 248.279 78.6756 246.033 78.6756C243.787 78.6756 241.542 78.1176 239.577 77.2806C238.734 77.0017 238.454 76.1647 238.734 75.3277C239.015 74.4907 239.857 74.2117 240.699 74.7697C244.068 76.4437 248.279 76.1647 251.647 74.7697C253.332 73.9327 255.016 72.5378 256.139 70.8638C256.139 70.8638 256.139 70.8638 256.139 70.5848C259.227 63.889 258.946 55.2403 254.174 49.3815C248.84 42.6857 239.296 40.1748 231.155 42.9647C226.664 24.5512 212.347 8.09073 194.1 2.5109C172.766 -4.1849 147.782 4.46384 133.746 21.7613C134.588 23.1563 135.711 24.2722 136.273 25.6672C140.483 33.758 140.764 43.2437 136.553 50.2185C132.904 56.3563 126.167 59.9832 119.71 59.9832C117.745 59.9832 115.78 59.7042 114.096 58.8672C109.885 57.4722 106.797 54.1243 105.394 50.4975C103.99 46.3126 105.113 41.2907 108.201 38.5008C111.569 35.4319 117.184 35.1529 120.552 38.2218C121.114 38.7798 121.114 39.6168 120.833 40.1748C120.272 40.7327 119.429 40.7327 118.868 40.4538C116.622 38.5008 112.692 38.7798 110.447 40.7327C108.201 42.6857 107.359 46.5916 108.482 49.6605C109.604 52.7294 112.131 55.2403 115.499 56.3563C122.237 58.8672 130.658 55.5193 134.588 48.8235C138.238 42.6857 137.957 34.0369 134.308 27.0622C133.746 25.9462 133.185 24.8302 132.343 23.9933C128.412 20.3664 123.64 17.8554 118.307 16.7395C103.148 13.1126 86.0241 20.0874 77.8833 32.921C72.269 41.8487 70.8654 53.2874 73.6725 63.3311C67.216 64.726 61.0403 68.3529 56.8295 73.6537C49.5308 81.7445 48.6887 94.5781 54.5838 103.785Z" fill="#2B2B2B"/>
<path d="M87.1468 126.941C92.7611 120.245 97.2526 112.434 101.183 104.622C100.902 104.622 100.621 104.622 100.621 104.622C96.9719 111.039 90.7961 115.781 84.0588 117.734C83.4974 118.013 82.936 118.013 82.0938 118.292C81.5324 118.292 80.971 118.571 80.1288 118.571C77.3216 124.709 73.3916 130.01 68.3387 134.195C58.7943 142.286 45.6006 145.913 32.9683 143.96C20.336 142.007 9.38801 135.032 -2.12141 130.289C-11.9465 126.383 -23.7367 124.43 -33.0003 128.615C-15.5958 125.267 -4.36715 130.289 7.7037 135.59L11.353 137.264C23.9853 142.844 36.8983 148.981 50.3727 147.866C63.2858 147.029 76.7602 139.496 87.1468 126.941Z" fill="#2B2B2B"/>
<path d="M47.5655 150.934C36.0561 150.934 25.3888 146.75 15.0022 142.007C22.8623 146.471 31.5646 151.213 40.5475 154.282C48.9691 157.072 61.6014 159.862 73.6722 155.956C82.3744 153.166 98.3753 141.17 108.762 129.731C106.235 121.919 106.516 113.271 109.885 105.738C108.2 105.18 106.235 104.901 104.551 104.622C100.34 112.992 95.5682 121.361 89.3924 128.615C78.4444 141.728 64.4085 149.539 50.6534 150.655C49.5305 150.934 48.4076 150.934 47.5655 150.934Z" fill="#2B2B2B"/>
<path d="M-27.1046 131.405C-16.7181 131.963 -8.85796 135.59 -0.43644 140.612C10.7923 147.308 20.8981 155.398 32.969 160.42C48.9698 167.116 67.7779 167.953 84.3403 162.094C96.1304 157.909 106.798 150.655 114.938 141.17L114.658 140.891C112.412 138.38 110.728 135.869 109.605 133.079C98.9376 144.518 83.4981 155.956 74.2344 159.025C69.7429 160.42 64.9708 161.257 60.4793 161.257C52.6192 161.257 45.0398 159.304 39.4255 157.351C27.916 153.445 17.2488 147.308 8.2658 141.728C-7.17366 131.963 -16.4373 130.568 -27.1046 131.405Z" fill="#2B2B2B"/>
</svg>
