<svg width="857" height="526" viewBox="0 0 857 526" fill="none" xmlns="http://www.w3.org/2000/svg">
<path d="M301.706 399.212C300.149 408.207 294.613 414.78 287.002 417.547C278.179 420.661 267.454 417.72 261.572 410.283C260.015 408.38 258.804 406.131 257.593 403.883C256.901 402.672 256.383 401.634 255.691 400.423C253.096 396.099 250.328 393.504 247.041 392.121C246.176 391.775 245.311 391.429 244.446 391.256C244.619 391.083 244.619 391.083 244.792 390.91C247.041 388.834 249.982 387.278 252.923 386.413C256.728 386.067 259.496 386.759 261.399 388.488C263.475 390.391 264.859 392.986 266.243 395.753C266.762 396.618 267.108 397.656 267.627 398.521C270.914 404.747 279.217 410.11 286.137 408.207C291.845 406.65 295.824 400.596 294.959 394.715C294.613 392.121 293.402 389.872 291.672 388.488C289.596 386.759 286.829 386.413 284.753 387.278C283.715 387.796 282.85 388.488 282.331 389.699C282.158 387.624 282.85 385.375 284.234 383.818C286.483 381.397 290.288 380.532 293.575 381.743C296.689 382.78 299.457 385.375 300.841 388.834C302.225 391.775 302.398 395.407 301.706 399.212Z" fill="#2B2B2B"/>
<path d="M162.622 419.45C161.93 414.434 161.066 410.283 160.028 406.477V406.304C157.606 398.002 153.8 392.121 146.361 383.991C146.015 383.645 146.015 383.127 146.361 382.781C146.534 382.608 146.88 382.435 147.226 382.608C145.67 380.532 143.767 378.802 141.518 377.246C138.923 375.343 135.809 373.786 132.695 372.921C132.349 371.365 131.83 369.635 131.311 368.078C126.295 353.549 114.359 341.268 100.173 335.041C80.4527 326.393 57.2722 328.295 37.2055 336.252C29.94 339.192 22.8475 342.998 17.1388 348.36C14.717 350.608 12.6411 353.203 10.9112 355.97L10.7382 356.143C4.85661 366.867 6.41351 381.397 14.544 390.564C18.8687 395.407 24.5774 398.521 30.286 398.867C36.5136 399.386 42.7412 396.445 45.855 391.602C49.1418 386.413 48.4498 379.148 44.2981 375.343C42.2222 373.267 38.9354 372.402 35.8216 372.575C32.8808 372.921 30.286 374.132 28.9021 376.381C28.5561 376.727 28.0371 376.9 27.6911 376.554C27.3452 376.208 27.1722 375.689 27.5182 375.343C29.248 372.921 32.3618 371.192 35.6486 370.846C39.2814 370.5 43.0871 371.711 45.509 373.959C47.2389 375.516 48.2768 377.592 48.9688 379.667C61.424 372.575 76.474 370.327 90.3131 373.786C98.4436 375.689 105.19 379.494 109.861 384.51C116.434 391.602 116.607 399.559 115.396 405.267C121.97 405.786 126.641 408.38 129.755 413.223C136.155 423.082 132.868 440.206 129.409 448.682C125.257 458.541 117.126 465.633 108.131 467.017C107.093 467.19 106.228 467.19 105.19 467.19C96.1947 467.19 87.8913 460.617 86.3344 452.141V451.968C86.3344 451.449 86.5073 451.104 87.0263 450.931C87.1993 450.931 87.1993 450.931 87.3723 450.931C87.3723 450.931 87.3723 450.931 87.5453 450.931C90.8321 452.314 94.6378 451.795 98.2706 449.547C102.249 446.952 104.671 442.801 104.844 438.65C104.844 435.017 103.287 431.212 100.346 428.272C97.0597 424.985 92.7349 423.255 88.4102 423.255C80.2798 423.428 72.4953 430.001 70.2464 438.304C67.9975 446.087 70.2464 455.255 75.782 462.347C82.0096 470.13 90.8321 474.281 97.2327 476.184C116.088 482.065 137.193 477.395 149.821 464.422C160.374 453.525 165.217 436.574 162.622 419.45ZM226.801 457.849C226.455 457.503 226.282 456.984 226.628 456.639C232.683 447.817 233.202 435.19 227.839 426.023C222.477 416.683 211.232 410.975 200.507 412.012C196.182 412.358 192.204 413.915 188.917 416.164C187.014 417.547 185.284 419.104 184.073 421.007C180.094 426.542 179.921 433.807 183.208 438.996C186.841 444.358 194.625 446.26 199.642 442.974C202.583 441.071 204.832 436.747 203.275 433.288C202.583 431.558 200.853 430.347 198.777 430.001C197.047 429.828 195.49 430.174 194.625 431.385C194.279 431.731 193.76 431.731 193.414 431.558C193.068 431.212 193.068 430.693 193.241 430.347C194.625 428.79 196.701 428.099 198.95 428.445C201.545 428.79 203.967 430.52 204.832 432.769C206.735 437.266 204.14 442.282 200.507 444.531C194.625 448.336 185.803 446.26 181.651 440.033C177.845 434.325 178.191 426.196 182.516 420.142C183.9 418.239 185.457 416.683 187.36 415.299C187.187 413.223 186.495 411.321 185.457 409.418C183.554 406.304 180.44 403.71 176.98 402.499C172.656 400.942 167.639 401.807 163.833 404.575C162.968 405.267 162.103 405.959 161.412 406.65C162.449 410.283 163.314 414.434 164.006 419.45C166.601 437.093 161.585 454.563 150.513 466.152C141.172 475.665 127.333 481.027 113.148 481.027C107.439 481.027 101.73 480.162 96.1947 478.433C86.6803 475.492 79.0688 470.476 73.8792 463.903C67.9975 456.293 65.7487 446.606 67.9975 438.304C70.5924 428.963 78.8958 422.218 87.8913 422.045C92.562 421.872 97.5786 423.947 101.038 427.407C104.325 430.693 106.055 434.844 106.055 438.996C105.882 443.666 103.114 448.509 98.7896 451.449C95.3298 453.698 91.524 454.563 88.0642 453.525C90.3131 461.482 98.9625 467.19 107.612 465.806C116.088 464.422 123.7 457.849 127.506 448.336C130.965 440.206 134.079 423.947 128.025 414.434C125.084 409.937 120.413 407.515 114.013 407.169C113.667 407.169 113.494 406.996 113.321 406.823C113.148 406.65 113.148 406.304 113.148 406.131C115.223 398.175 113.494 391.429 108.304 385.894C103.806 381.051 97.4056 377.591 89.6211 375.689C76.128 372.402 61.424 374.651 49.1418 381.743C49.8337 385.375 49.1418 389.526 47.0659 392.813C43.7791 397.829 37.8975 400.942 31.3239 400.942C30.8049 400.942 30.286 400.942 29.767 400.942C23.5394 400.423 17.4848 397.137 12.8141 391.948C5.20259 383.3 3.12673 370.154 7.10547 359.43C-3.61983 358.219 -14.8641 361.505 -22.8216 368.77C-30.4331 375.862 -34.5848 386.586 -34.2389 396.964C-33.2009 405.094 -29.0492 413.05 -22.8216 418.412C-22.4756 418.758 -22.4756 419.277 -22.6486 419.623C-22.8216 419.796 -22.9946 419.969 -23.3406 419.969C-23.5136 419.969 -23.6865 419.969 -23.8595 419.796C-30.2601 414.261 -34.5848 406.477 -35.7958 398.175C-39.6015 397.483 -43.5803 397.137 -47.559 397.656C-61.9171 399.213 -75.0642 408.553 -81.8108 421.353C-88.5573 434.153 -89.0763 449.893 -83.7137 463.384C-78.697 476.53 -67.9717 487.773 -54.3056 491.578C-43.7532 494.519 -31.817 492.27 -23.3406 485.524C-20.3998 482.93 -18.1509 479.816 -16.767 476.357C-14.6911 470.995 -14.8641 464.941 -17.286 460.098C-19.8808 455.082 -25.0704 451.449 -30.4331 450.931C-35.9687 450.412 -41.6774 453.525 -44.0992 458.368C-45.6561 461.655 -45.6561 465.287 -44.0992 467.882C-42.3693 470.649 -38.3906 471.687 -35.7958 470.13C-35.4498 469.784 -34.9308 469.957 -34.5848 470.476C-34.2389 470.822 -34.4118 471.341 -34.9308 471.687C-38.2176 473.763 -43.2343 472.379 -45.4831 468.919C-47.559 465.806 -47.559 461.482 -45.6561 457.676C-42.8883 452.314 -36.6607 448.855 -30.2601 449.374C-24.3785 449.893 -18.6699 453.871 -15.7291 459.406C-13.1342 464.595 -12.7882 471.341 -15.0371 477.049C-16.421 480.508 -18.6699 483.795 -21.4377 486.389C-12.2693 499.881 2.95374 509.394 19.2147 511.47C31.1509 513.027 43.2601 510.432 53.8125 504.724H53.9854C61.078 499.881 66.4406 493.135 68.8625 485.87C71.6303 477.568 70.5924 468.4 66.0947 461.655C61.251 454.563 52.4285 450.412 44.644 451.795C36.1676 453.179 29.421 460.617 29.0751 468.573C28.9021 473.935 31.6699 479.125 35.9946 481.2C38.2435 482.238 41.1843 482.411 43.7791 481.373C46.028 480.508 47.7579 478.952 48.4498 477.049C48.6228 476.53 49.1418 476.357 49.4877 476.53C50.0067 476.703 50.1797 477.222 50.0067 477.568C48.9688 479.989 47.0659 481.892 44.2981 482.93C41.3573 484.141 37.8975 483.968 35.1297 482.757C30.286 480.335 26.9992 474.8 27.1722 468.573C27.5182 459.752 34.9567 451.622 44.1251 450.066C52.7745 448.682 62.1159 453.006 67.3056 460.617C72.1493 467.882 73.1872 477.395 70.2464 486.389C68.8625 490.368 66.9596 494 64.1918 497.459C65.2297 496.594 66.0947 495.73 66.9596 494.865C77.166 489.676 88.0643 486.216 99.4815 487.946C109.688 489.503 118.856 495.384 128.371 499.189C138.058 503.167 149.475 505.07 157.779 499.362C162.276 496.249 165.044 491.405 167.985 486.735C167.466 482.93 167.985 479.298 169.369 476.011C171.618 470.649 175.943 466.325 181.305 464.768C186.841 463.038 193.241 464.422 197.22 468.4C201.545 472.379 203.102 478.952 200.853 484.141C199.469 487.427 196.355 490.886 192.031 490.886C190.128 490.886 188.398 490.195 187.187 488.811C189.782 501.957 199.296 504.724 209.329 505.416C220.574 506.281 231.991 499.016 235.97 488.465C240.294 477.568 236.143 464.941 226.801 457.849ZM354.121 440.725C352.045 437.958 349.104 435.709 345.991 434.325C347.547 431.385 348.585 428.099 348.931 424.812C349.45 418.066 347.374 410.975 342.704 406.131C338.033 401.288 330.595 399.04 324.194 400.942C323.156 401.288 322.118 401.807 321.08 402.326C320.907 396.445 319.177 390.737 316.064 385.894C311.047 377.764 301.878 372.402 292.364 372.229C282.85 372.229 273.335 377.764 269.53 386.586C269.184 387.278 269.011 387.97 268.838 388.662C266.416 387.451 263.994 386.586 261.226 386.067C261.745 386.413 262.437 386.759 262.956 387.278C265.378 389.526 266.762 392.294 268.146 395.061C268.665 395.926 269.011 396.964 269.53 397.829C272.643 403.537 279.909 408.38 285.963 406.65C290.807 405.267 294.267 399.905 293.575 395.061C293.229 392.986 292.364 391.083 290.98 390.045C289.423 388.835 287.347 388.489 285.79 389.007C284.234 389.699 283.888 391.602 284.234 393.159C284.407 393.505 284.061 394.024 283.715 394.197C283.369 394.37 282.85 394.197 282.677 394.024C280.255 390.91 280.601 385.721 283.542 382.608C286.309 379.84 290.807 378.629 294.786 380.013C298.419 381.224 301.532 384.164 303.089 388.143C304.473 391.429 304.819 395.407 304.127 399.559C302.397 409.072 296.516 416.337 288.212 419.277C285.617 420.142 283.023 420.661 280.255 420.661C272.816 420.661 265.378 417.374 260.707 411.494C259.15 409.418 257.766 407.169 256.555 404.921C255.863 403.883 255.344 402.672 254.652 401.634C252.231 397.656 249.809 395.234 246.868 394.024C245.657 393.505 244.446 393.159 243.062 392.986C242.197 393.332 241.159 393.678 240.64 393.678C237.527 393.159 234.586 391.429 232.683 389.007C229.223 388.662 225.763 389.007 222.477 389.699C221.439 390.045 220.401 390.218 219.363 390.737C214 379.494 203.794 370.327 191.685 367.386C175.943 363.754 158.471 371.019 148.956 383.991C155.53 391.429 159.163 397.137 161.757 404.748C162.276 404.229 162.968 403.71 163.66 403.191C167.985 400.078 173.521 399.213 178.364 400.769C182.17 402.153 185.63 404.921 187.706 408.38C188.744 410.11 189.436 412.012 189.782 414.088C193.068 412.012 196.874 410.802 201.026 410.456C212.443 409.418 224.206 415.299 229.915 425.331C235.624 435.017 235.278 447.817 229.05 457.157C238.737 464.941 242.716 477.914 238.738 488.465C234.759 499.016 223.514 506.627 212.097 506.627C211.405 506.627 210.886 506.627 210.194 506.627C198.604 505.762 186.495 502.302 185.63 482.757C185.63 482.238 185.976 481.892 186.495 481.892C186.668 481.892 186.668 481.892 186.841 481.892H187.014C187.014 481.892 187.014 481.892 187.187 481.892L187.36 482.065C187.36 482.238 187.36 482.238 187.36 482.411C187.36 482.584 187.36 482.584 187.36 482.584C187.706 485.524 189.609 488.465 192.722 488.465H192.895C196.355 488.465 199.123 485.524 200.161 482.757C202.064 478.26 200.68 472.379 196.874 468.746C193.241 465.287 187.533 464.076 182.516 465.633C177.672 467.017 173.521 470.995 171.618 475.838C170.58 478.26 170.234 480.854 170.234 483.449C170.234 483.449 170.234 483.276 170.407 483.276C170.58 486.389 171.272 489.503 172.656 493.135C176.635 503.513 184.073 512.508 193.587 518.043C210.886 528.075 236.489 529.459 253.442 518.389C262.437 512.508 271.432 501.611 274.546 490.195C278.525 491.578 283.023 491.924 287.174 491.059C287.347 491.059 287.347 491.059 287.347 491.059C297.381 488.465 305.857 479.47 307.241 469.265C308.106 463.384 305.857 456.466 298.938 455.082C294.267 454.217 289.25 456.812 287.347 461.136C286.482 463.038 286.309 465.287 287.174 466.844C287.866 468.573 290.115 469.957 292.191 469.957C293.056 470.13 293.921 469.438 294.44 468.573C294.959 467.709 294.959 466.844 294.613 466.325C294.44 465.979 294.44 465.46 294.959 465.114C295.305 464.941 295.997 464.941 296.17 465.46C296.862 466.671 296.862 468.227 295.997 469.611C295.132 470.995 293.748 471.687 292.191 471.86C289.423 471.86 286.655 469.957 285.617 467.709C284.753 465.633 284.753 463.038 285.79 460.617C288.039 455.601 293.921 452.487 299.284 453.525C307.241 455.082 309.836 463.038 308.798 469.611C307.587 477.741 302.57 485.006 295.651 489.33C300.322 492.962 306.376 495.211 312.258 495.211C319.869 495.211 327.481 491.924 333.189 486.216C338.379 481.027 342.012 473.935 343.915 465.806C345.299 459.233 345.299 453.352 343.915 447.99C342.185 441.763 338.379 436.401 333.535 433.461C328.173 430.174 321.253 429.828 316.582 432.769C316.409 432.942 316.064 432.942 315.718 432.769C315.545 432.596 315.199 432.423 315.199 432.25C313.296 425.504 305.511 420.488 298.765 421.699C296.17 422.218 293.748 423.601 292.364 425.331C290.98 427.234 290.461 430.001 291.499 432.25C292.537 434.671 294.959 436.228 297.208 436.228C298.419 436.228 299.457 435.536 300.322 434.671C301.013 433.807 301.359 432.769 301.186 431.904C301.186 431.385 301.532 431.039 301.878 430.866C302.397 430.866 302.743 431.212 302.916 431.558C303.089 433.115 302.57 434.498 301.532 435.709C300.495 437.093 298.765 437.785 297.208 437.958C294.094 438.131 290.98 436.055 289.769 432.942C288.558 430.174 289.077 426.715 290.98 424.293C292.537 422.045 295.305 420.488 298.419 419.969C305.857 418.585 313.988 423.601 316.582 430.693C321.772 428.099 328.692 428.617 334.227 432.077C339.59 435.363 343.569 441.071 345.472 447.644C347.029 453.179 347.029 459.579 345.472 466.325C343.569 474.973 339.763 482.238 334.4 487.6C328.346 493.654 320.215 497.113 312.258 497.113C305.684 497.113 299.111 494.692 294.094 490.541C293.748 490.714 293.229 490.886 292.883 491.059C297.035 495.903 303.262 499.189 309.663 499.881C320.042 501.092 330.422 496.594 339.071 490.541C347.029 485.006 353.948 477.741 357.408 468.573C360.522 459.406 360.003 448.509 354.121 440.725Z" fill="#2B2B2B"/>
<path d="M621.216 13.1452L621.043 12.9722C613.086 6.57236 603.225 2.4211 593.192 0.864373C574.682 -2.07611 555.48 3.45891 539.911 13.6641C526.937 22.1396 516.385 33.7286 507.735 46.7013C491.128 42.2041 471.927 47.0472 459.99 59.674C448.919 71.4359 444.94 89.2517 448.919 104.819C444.248 106.549 440.27 109.835 437.675 113.986C432.658 122.289 434.388 134.224 442.173 139.932C447.362 143.737 454.109 144.775 460.509 143.737C462.066 143.564 463.45 143.218 464.834 142.872C467.948 153.769 477.116 162.764 488.188 165.358C495.972 167.261 504.276 165.877 511.195 161.899C513.444 165.704 516.731 168.991 520.709 171.239C520.882 171.412 521.228 171.585 521.401 171.585C523.996 172.969 526.591 173.834 529.532 174.353H529.705C531.781 174.526 534.203 174.353 536.797 173.834C543.371 172.796 552.539 170.028 559.805 162.764C566.206 156.537 569.492 147.542 568.454 139.586C567.243 130.937 560.67 123.327 552.712 121.597C544.236 119.694 535.068 125.056 532.992 133.013C531.781 137.856 533.338 143.045 536.624 145.986C540.257 149.099 545.966 149.272 549.426 146.159C549.772 145.813 550.291 145.813 550.637 146.159C550.983 146.505 550.983 147.024 550.637 147.369C546.658 150.829 539.911 150.829 535.587 147.196C531.608 143.91 529.878 138.029 531.262 132.494C533.511 123.673 543.717 117.792 553.058 119.867C561.708 121.77 568.8 129.9 570.011 139.24C571.222 147.888 567.762 157.056 560.843 163.975C553.231 171.412 543.717 174.353 536.797 175.563C534.722 175.909 532.819 176.082 530.916 176.082C529.705 176.082 528.667 176.082 527.629 175.909C524.342 177.293 521.401 179.196 519.153 181.963C512.579 190.093 515.866 203.239 523.823 209.984C531.781 216.903 542.679 218.806 553.231 219.498C560.843 220.017 607.55 221.919 599.592 240.081C598.554 242.503 596.133 244.059 594.057 245.616C581.775 253.573 573.99 258.243 558.94 259.281C526.937 261.183 490.955 257.032 461.201 271.734C448.919 277.788 437.502 286.264 423.836 288.685C415.532 290.069 406.883 289.031 398.406 290.242C388.027 291.626 374.534 299.064 376.437 311.344C377.648 319.128 378.513 327.258 375.918 334.695C367.787 358.046 339.244 356.489 319.351 357.008C299.803 357.527 280.255 356.489 260.534 356.317C217.633 355.971 174.559 359.776 132.35 367.733C132.869 368.943 133.215 370.154 133.561 371.538C136.674 372.576 139.442 373.959 142.037 375.862C144.113 377.419 146.016 379.148 147.746 381.224C156.049 370.846 169.023 364.619 182.17 364.619C183.727 364.619 185.284 364.792 186.841 364.965C211.751 358.046 241.16 357.527 252.923 357.7C265.378 357.873 276.622 358.219 287.694 358.565C328.519 360.122 358.1 361.16 376.437 343.69C382.837 337.636 382.145 329.506 381.626 321.723C381.108 314.977 380.589 308.577 384.221 303.561C390.622 294.739 404.115 293.01 415.878 291.453C422.971 290.415 429.544 289.55 433.869 287.475C460.682 273.637 466.564 270.87 495.972 265.162C504.622 263.432 521.401 263.086 536.278 262.567C546.831 262.394 556.864 262.048 562.919 261.356C586.791 258.762 600.284 249.767 604.782 242.33C606.685 239.216 607.204 236.103 606.339 233.681C601.495 220.881 589.386 219.152 570.876 216.557C561.362 215.173 550.637 213.617 538.527 210.33C531.262 208.255 523.477 202.72 523.131 196.32C522.958 193.033 524.688 188.017 534.376 184.039C537.143 182.828 540.43 181.617 544.063 180.407C565.687 172.277 598.208 160.169 599.419 135.435C599.765 128.862 597.171 120.213 592.673 114.332C591.289 114.159 589.905 113.986 588.521 113.64C575.72 111.046 564.995 101.706 560.843 89.7707C556.691 77.4898 560.151 62.9604 569.492 54.4849C579.007 45.6635 594.403 44.1067 605.128 50.5066C611.875 54.4849 616.199 61.2307 616.718 67.9765C617.237 75.2412 612.048 82.8519 605.474 85.1005C606.339 86.6572 607.896 88.3869 610.318 88.7328C612.567 89.0788 615.161 88.7328 618.102 87.522C624.676 85.1005 630.038 80.2573 632.806 74.5493C635.92 68.3224 635.92 61.0577 632.806 55.3497C629.692 49.4688 622.946 45.4905 616.718 46.0094C616.199 46.0094 616.026 45.8364 615.853 45.3175C614.296 39.7825 609.28 32.3448 600.111 27.6746C592.154 23.6963 578.488 20.4099 557.902 27.8476C533.684 36.4961 525.553 53.1011 522.958 62.4415C532.127 67.6306 537.662 78.7006 535.241 88.5599C534.03 93.403 531.262 97.2083 527.456 99.111C522.958 101.36 517.596 100.322 514.655 96.8624C513.098 94.9597 512.579 92.1922 513.271 89.5977C513.79 87.3491 515.347 85.4464 517.25 84.5816C517.769 84.4086 518.115 84.5816 518.461 85.1005C518.634 85.6194 518.461 85.9653 517.942 86.3113C516.558 87.0031 515.347 88.3869 515.001 90.1166C514.482 92.1922 515.001 94.2679 516.212 95.8246C518.461 98.5921 523.131 99.4569 526.764 97.5543C530.051 95.8246 532.473 92.3652 533.684 88.041C536.105 77.8358 529.359 66.0738 518.634 62.2685C508.773 58.8091 496.491 61.9226 488.361 70.0521C481.095 77.3169 476.77 88.3869 476.597 100.322C476.597 100.841 476.251 101.187 475.732 101.187C475.213 101.187 474.867 100.841 474.867 100.322C475.04 87.868 479.365 76.452 487.15 68.8414C495.799 60.1929 508.773 56.9065 519.153 60.5388C519.845 60.7118 520.71 61.0577 521.401 61.4037C524.342 51.5444 532.646 34.7664 557.383 25.9449C578.488 18.3343 592.673 21.7937 600.976 25.9449C610.318 30.7881 615.507 38.3987 617.41 44.1067H617.756C624.503 44.1067 631.249 48.085 634.536 54.4849C637.823 60.7118 637.823 68.6684 634.536 75.2412C631.595 81.2952 625.887 86.4842 618.967 89.0788C616.372 90.1166 614.123 90.4625 612.048 90.4625C611.356 90.4625 610.837 90.4625 610.318 90.2896C607.723 89.9436 605.301 88.041 603.917 84.9275V84.7545V84.5816C603.917 84.4086 603.917 84.0627 604.09 83.8897C604.09 83.8897 604.09 83.8897 604.263 83.7167C604.263 83.7167 604.436 83.7167 604.436 83.5438H604.609C610.837 81.987 616.026 74.7223 615.507 67.9765C615.161 61.7496 611.01 55.5227 604.782 51.7174C594.576 45.6635 580.218 47.2202 571.222 55.5227C562.4 63.4793 559.113 77.3169 563.092 88.9058C566.897 100.149 577.277 109.143 589.559 111.738C590.251 111.911 590.943 112.084 591.635 112.084C592.5 112.257 593.365 112.257 594.23 112.43C597.517 112.776 600.803 112.603 603.744 112.084C604.609 111.911 605.474 111.911 606.339 111.738C610.491 110.873 614.296 109.662 617.237 108.451C618.102 108.105 618.967 107.759 619.659 107.414H619.832C626.579 104.127 632.114 99.6299 635.747 94.2679C655.122 64.3441 639.553 27.3287 621.216 13.1452ZM631.076 232.816C626.06 219.325 610.145 216.903 588.348 213.617C579.007 212.233 568.454 210.503 557.556 207.736C547.004 204.968 541.468 201.336 541.122 196.666C540.776 191.477 547.004 186.115 558.594 181.271C561.708 179.888 565.514 178.677 569.319 177.293C589.04 170.201 616.026 160.688 617.064 136.472C617.41 129.035 612.221 118.83 605.301 113.467C602.533 113.986 599.765 114.159 596.998 114.159C596.306 114.159 595.614 114.159 594.922 114.159C599.073 120.386 601.495 128.862 601.149 135.262C599.938 161.207 566.725 173.661 544.582 181.79C541.122 183.174 537.662 184.385 535.068 185.423C528.148 188.363 524.688 191.996 524.861 195.974C525.207 201.509 532.3 206.698 539.046 208.428C550.983 211.714 561.708 213.271 571.049 214.655C589.386 217.249 602.706 219.152 607.896 232.816C609.107 235.757 608.415 239.389 606.166 243.022C599.938 253.227 583.85 260.664 562.919 262.913C556.691 263.605 546.831 263.778 536.106 264.124C521.401 264.47 504.622 264.989 496.145 266.545C467.083 272.253 461.201 275.021 434.561 288.685C430.063 290.934 423.144 291.972 416.051 292.837C404.634 294.393 391.487 296.123 385.432 304.253C382.145 308.75 382.664 314.804 383.183 321.204C383.875 329.506 384.567 337.982 377.475 344.555C358.619 362.37 328.692 361.333 287.521 359.776C276.622 359.43 265.205 358.911 252.923 358.911C244.965 358.738 216.595 358.911 191.339 365.138C198.95 366.868 205.87 371.019 211.405 376.727C231.991 359.257 266.243 360.468 283.196 361.16C285.445 361.16 287.348 361.333 288.904 361.333C299.284 361.506 308.279 361.679 316.41 361.852C356.543 362.889 371.593 363.408 390.795 345.246C397.023 339.366 395.639 332.447 393.909 325.182C392.525 319.301 391.141 313.074 394.947 307.885C402.212 298.026 426.95 291.972 445.113 287.475C452.725 285.572 459.298 284.015 462.931 282.459C488.88 271.907 515.174 269.832 540.603 267.756C554.961 266.718 568.627 265.681 581.948 263.086C608.069 258.07 625.022 246.827 629.692 238.524C631.422 236.795 631.768 234.546 631.076 232.816ZM856.308 115.889C854.924 109.143 851.637 102.57 846.274 98.2462C842.469 95.1327 837.625 93.403 832.781 93.403C833.992 85.7924 832.435 77.6628 828.111 71.2629C822.229 62.4415 811.331 57.0794 800.605 57.7713C792.129 58.2902 783.999 62.7874 778.809 69.3603C774.311 67.8035 769.467 67.4576 764.797 68.1495C761.337 68.6684 758.223 69.8792 755.109 71.6089C758.05 79.2195 759.607 87.3491 759.434 95.6516C759.261 105.857 758.569 116.581 754.244 126.094C750.266 134.743 743.519 142.353 735.216 147.715C727.258 152.732 717.744 155.845 707.71 156.71C706.154 156.883 704.597 156.883 703.213 156.883C699.753 156.883 696.639 156.537 693.698 155.672C684.53 153.25 676.745 145.813 673.805 136.818C673.286 135.262 672.94 133.705 672.767 132.148C672.767 132.321 672.594 132.321 672.594 132.494C667.058 138.894 658.755 142.353 650.278 142.353C644.397 142.353 638.515 140.797 633.498 137.51C624.503 131.629 619.14 120.905 618.967 109.489C618.448 109.662 617.929 109.835 617.583 110.181C614.296 111.565 611.01 112.603 607.723 113.294C614.469 119.002 619.313 129.208 618.967 136.818C617.756 162.072 590.251 171.931 570.011 179.196C566.033 180.58 562.4 181.963 559.286 183.174C548.561 187.671 542.506 192.687 542.852 196.839C543.198 200.644 548.561 203.93 558.075 206.352C568.973 209.12 579.526 210.676 588.694 212.06C610.318 215.346 627.271 217.941 632.806 232.297C633.671 234.546 633.325 237.314 631.595 240.081C626.752 248.73 609.28 260.491 582.639 265.508C569.319 268.102 555.653 269.14 541.122 270.178C515.866 272.08 489.745 274.156 463.969 284.707C460.336 286.264 453.59 287.821 445.978 289.723C428.16 294.048 403.769 300.101 396.85 309.442C393.563 313.939 394.774 319.474 396.158 325.355C397.714 332.447 399.444 340.403 392.525 346.976C372.804 365.657 356.37 365.138 316.929 364.1C308.971 363.927 299.803 363.581 289.596 363.581C288.04 363.581 286.137 363.408 283.888 363.408C267.281 362.716 233.548 361.333 213.481 378.457C216.076 381.397 218.325 384.684 220.228 388.316C220.747 388.143 221.439 387.97 221.958 387.797C224.553 387.105 227.147 386.932 229.742 386.932C230.261 386.932 230.953 386.932 231.472 386.932C231.299 386.413 231.126 385.894 230.953 385.548C228.185 372.403 258.112 366.003 266.762 364.965C279.736 363.408 292.71 364.619 305.684 365.311C326.443 366.349 348.24 366.522 369.344 364.619C391.314 362.543 412.937 356.49 434.388 351.3C443.383 349.052 450.303 340.403 439.405 334.003C435.426 331.582 430.582 330.89 426.431 328.468C420.549 325.009 416.916 318.09 417.954 311.344C420.722 290.415 455.147 292.145 470.37 289.723C492.339 286.091 514.136 282.632 536.106 278.999C566.898 273.983 598.209 268.794 626.06 254.611C630.384 252.535 634.536 250.113 637.823 246.654C641.11 243.195 643.359 238.524 643.013 233.681C642.667 229.011 639.553 224.86 635.92 221.919C632.287 218.979 627.79 217.076 623.465 215.346C613.605 211.195 603.917 207.217 594.057 203.066C587.483 200.298 579.699 196.147 579.526 189.055C579.353 184.558 582.294 180.407 586.099 178.158C589.905 175.909 594.403 175.045 598.9 174.18C616.199 171.412 633.671 170.028 651.143 170.028C670.345 168.126 684.011 167.78 694.39 169.337H694.563C705.981 169.683 717.917 167.088 727.95 162.072C741.789 155.153 753.034 143.737 759.78 129.727C761.856 125.229 763.586 120.386 765.316 115.716C766.008 113.64 766.7 111.565 767.565 109.662C769.813 103.435 772.927 96.3435 777.944 90.4625C783.134 84.2356 790.053 80.4303 796.973 79.9114C804.93 79.2195 812.715 83.3708 815.655 90.1166C817.212 93.7489 817.212 98.2462 815.655 102.051C814.099 105.511 811.504 108.105 808.217 109.143C804.065 110.527 799.395 109.489 796.973 106.376C795.589 104.646 794.897 102.224 795.416 99.9758C795.762 97.9002 796.8 96.1705 798.357 95.1327C798.703 94.9597 799.222 94.9597 799.568 95.3057C799.914 95.6516 799.741 96.1705 799.395 96.5165C798.184 97.2083 797.492 98.5921 797.146 100.149C796.8 101.879 797.319 103.781 798.357 105.165C800.432 107.587 804.238 108.624 807.698 107.414C810.466 106.376 812.715 104.3 814.099 101.187C815.656 97.7272 815.655 93.7489 814.272 90.6355C811.677 84.7545 804.411 80.9492 797.319 81.4681C790.918 81.987 784.517 85.6194 779.501 91.5004C774.657 97.2083 771.716 104.127 769.467 110.181C768.775 112.257 768.083 114.159 767.392 116.235C765.835 120.905 764.105 125.921 761.856 130.418C755.109 144.775 743.519 156.537 729.334 163.456C721.203 167.434 711.689 170.028 702.348 170.72C709.786 172.796 714.803 176.428 718.955 181.617C723.625 187.671 725.355 194.244 723.625 199.952C721.896 206.006 716.014 210.503 710.132 210.503C709.613 210.503 709.094 210.503 708.402 210.33C704.943 209.811 701.829 207.563 699.926 204.276C698.196 201.336 698.023 197.877 699.234 195.109C699.407 194.59 699.926 194.417 700.445 194.59C700.964 194.763 701.137 195.282 700.964 195.801C699.926 198.049 700.272 200.817 701.656 203.412C703.213 206.179 705.981 208.255 708.748 208.601C714.284 209.465 720.339 205.314 722.069 199.433C723.625 194.417 722.069 188.19 717.744 182.655C709.094 171.412 694.909 168.126 661.695 170.72C667.404 171.758 672.94 174.007 677.783 177.466C681.07 179.888 684.184 182.828 686.606 185.942C683.146 188.882 680.897 193.379 680.724 198.049C680.551 205.314 684.876 212.233 690.931 216.038C697.158 219.844 704.77 220.708 711.862 219.498C718.782 218.287 725.701 214.828 729.68 208.947C732.275 204.968 733.313 199.779 732.275 195.282C735.043 194.763 737.81 193.206 739.54 190.785C742.481 187.152 743 181.963 741.443 177.466C740.059 173.488 737.118 170.374 733.659 168.299C739.713 167.953 745.941 166.396 751.304 163.456C756.666 160.688 761.337 157.056 765.143 152.559C764.451 144.948 765.835 138.548 769.467 132.84C773.273 126.613 779.674 122.116 786.247 120.905C792.475 119.867 798.876 121.77 803.027 125.921C806.66 129.554 808.217 134.57 807.179 139.932C806.487 144.256 803.546 147.888 800.086 149.099C798.011 149.791 795.416 149.445 793.34 148.234C791.61 147.196 790.399 145.467 790.226 143.737C790.226 143.218 790.399 142.872 790.918 142.699C791.437 142.699 791.783 142.872 791.956 143.391C792.129 144.775 792.994 145.813 794.378 146.678C795.935 147.715 798.011 147.888 799.568 147.369C802.508 146.332 804.93 143.391 805.622 139.586C806.487 134.916 805.103 130.418 801.816 127.132C798.011 123.327 792.129 121.597 786.593 122.635C780.366 123.673 774.657 127.824 771.024 133.705C767.392 139.413 766.181 145.813 767.046 153.596C767.046 154.115 767.219 154.461 767.219 154.98C767.219 155.326 767.392 155.845 767.392 156.191C768.083 159.304 768.948 162.245 770.505 165.012C775.003 173.834 783.998 180.407 793.686 180.926C800.086 181.271 806.66 178.85 811.158 174.526C816.001 177.639 822.402 178.331 827.765 176.255C835.03 173.661 840.393 166.915 842.296 159.477C843.853 153.596 843.334 147.369 841.604 141.489C845.928 141.661 850.426 139.759 853.367 136.472C856.827 130.937 857.692 122.981 856.308 115.889ZM753.898 72.4737C752.169 67.6306 749.574 62.7874 746.114 58.9821C743.692 56.3876 740.751 54.4849 737.638 52.9282C738.675 50.5066 739.367 47.7391 739.713 45.1445C740.232 39.6095 738.329 33.9015 734.524 29.9232C730.026 25.426 722.933 23.8693 716.879 25.9449C712.208 16.0857 702.867 8.30206 691.968 6.05346C678.648 3.28595 664.117 9.16691 655.987 20.064C651.835 15.3938 645.78 12.2804 639.553 11.7614C634.709 11.2425 629.865 12.4533 625.714 14.7019C629.865 18.5073 633.671 23.5234 636.958 29.2314C639.553 29.4043 642.148 30.0962 644.224 31.48C648.029 33.7286 650.451 37.5339 652.7 40.9933C658.063 35.1123 666.712 32.3448 675.707 33.3826C684.53 34.5934 692.487 40.4744 696.12 48.6039C696.293 49.1228 696.12 49.4688 695.601 49.8147C695.428 49.8147 695.428 49.8147 695.255 49.8147C694.909 49.8147 694.563 49.6417 694.39 49.2958C690.931 41.6852 683.492 36.1501 675.362 35.1123C666.539 33.9015 658.063 36.842 653.046 42.8959C652.873 43.0689 652.527 43.2419 652.354 43.2419C652.008 43.2419 651.835 43.0689 651.662 42.8959C649.413 39.2636 646.818 35.2853 643.186 32.8637C641.629 31.8259 639.726 31.134 637.823 30.9611C647.51 49.1228 650.97 73.8575 636.785 95.1327C633.152 100.668 627.617 105.338 620.697 108.797C620.697 120.04 625.887 130.418 634.536 136.126C645.953 143.737 662.733 141.661 671.21 131.629C671.729 130.937 672.248 130.418 672.594 129.9C672.248 124.192 673.632 118.311 676.572 113.294C675.361 107.759 671.383 102.916 666.366 101.187C660.657 99.111 653.738 101.36 650.797 106.203C649.24 108.624 648.894 111.911 649.759 115.024C650.451 117.792 652.354 120.213 654.603 121.424C654.949 121.597 655.122 122.116 654.949 122.635C654.776 122.981 654.43 123.154 654.257 123.154C654.084 123.154 653.911 123.154 653.911 122.981C651.143 121.424 649.067 118.83 648.202 115.543C647.164 112.084 647.683 108.278 649.413 105.338C652.873 99.8029 660.657 97.2083 667.058 99.4569C672.075 101.187 676.227 105.857 677.956 111.219C678.302 110.7 678.648 110.354 678.994 109.835C681.935 106.03 685.741 103.262 689.72 102.051C694.217 100.668 699.234 101.014 702.867 103.435C707.018 106.03 709.44 110.7 708.921 115.197C708.402 120.04 704.424 124.192 699.753 124.538C699.234 124.538 698.888 124.192 698.888 123.673C698.888 123.154 699.234 122.808 699.753 122.808C703.559 122.462 706.846 119.002 707.365 115.024C707.71 111.219 705.635 107.068 702.002 104.992C698.715 102.916 694.217 102.57 690.239 103.781C686.606 104.992 683.146 107.414 680.378 111.046C679.686 111.911 678.994 112.776 678.475 113.813C678.475 113.813 678.475 113.986 678.302 113.986C675.534 118.657 674.151 124.365 674.497 129.9V130.073C674.67 132.321 675.016 134.397 675.707 136.472C678.475 144.948 685.914 151.867 694.39 154.288C698.196 155.326 702.521 155.672 707.71 155.153C717.398 154.288 726.739 151.348 734.351 146.332C742.481 141.143 749.055 133.705 752.688 125.402C756.839 116.235 757.531 105.684 757.704 95.6516C757.877 88.7328 756.493 82.16 754.763 75.4142C754.59 74.3764 754.244 73.5115 753.898 72.4737Z" fill="#2B2B2B"/>
</svg>
